SeanSlab_0.ufo
<glyph name="exclam" format="1">
  <advance width="226"/>
  <unicode hex="0021"/>
  <outline>
    <contour>
      <point x="125" y="229" type="line"/>
      <point x="130" y="722" type="line"/>
      <point x="98" y="722" type="line"/>
      <point x="102" y="229" type="line"/>
    </contour>
    <contour>
      <point x="133" y="12" type="curve"/>
      <point x="133" y="23"/>
      <point x="125" y="30"/>
      <point x="113" y="30" type="curve"/>
      <point x="102" y="30"/>
      <point x="96" y="23"/>
      <point x="96" y="12" type="curve"/>
      <point x="112" y="12"/>
      <point x="117" y="12"/>
      <point x="133" y="12" type="curve"/>
      <point x="133" y="1"/>
      <point x="125" y="-6"/>
      <point x="113" y="-6" type="curve"/>
      <point x="102" y="-6"/>
      <point x="96" y="1"/>
      <point x="96" y="12" type="curve"/>
      <point x="112" y="12"/>
      <point x="117" y="12"/>
    </contour>
  </outline>
</glyph>
<glyph name="dollar" format="1">
  <advance width="662"/>
  <unicode hex="0024"/>
  <outline>
    <contour>
      <point x="85" y="99" type="curve"/>
      <point x="85" y="219"/>
      <point x="85" y="99"/>
      <point x="85" y="219" type="curve"/>
      <point x="63" y="219"/>
      <point x="85" y="219"/>
      <point x="63" y="219" type="curve"/>
      <point x="63" y="99"/>
      <point x="63" y="219"/>
      <point x="63" y="99" type="curve"/>
      <point x="85" y="99"/>
      <point x="63" y="99"/>
    </contour>
    <contour>
      <point x="559" y="631" type="curve"/>
      <point x="559" y="511"/>
      <point x="559" y="631"/>
      <point x="559" y="511" type="curve"/>
      <point x="581" y="511"/>
      <point x="559" y="511"/>
      <point x="581" y="511" type="curve"/>
      <point x="581" y="631"/>
      <point x="581" y="511"/>
      <point x="581" y="631" type="curve"/>
      <point x="559" y="631"/>
      <point x="581" y="631"/>
    </contour>
    <contour>
      <point x="324" y="-43" type="curve"/>
      <point x="324" y="-9"/>
      <point x="324" y="25"/>
      <point x="324" y="59" type="curve"/>
      <point x="300" y="59"/>
      <point x="324" y="59"/>
      <point x="300" y="59" type="curve"/>
      <point x="300" y="25"/>
      <point x="300" y="-9"/>
      <point x="300" y="-43" type="curve"/>
      <point x="324" y="-43"/>
      <point x="300" y="-43"/>
    </contour>
    <contour>
      <point x="340" y="671" type="curve"/>
      <point x="340" y="705"/>
      <point x="340" y="739"/>
      <point x="340" y="773" type="curve"/>
      <point x="316" y="773"/>
      <point x="340" y="773"/>
      <point x="316" y="773" type="curve"/>
      <point x="316" y="739"/>
      <point x="316" y="705"/>
      <point x="316" y="671" type="curve"/>
      <point x="340" y="671"/>
      <point x="316" y="671"/>
    </contour>
    <contour>
      <point x="63" y="99" type="curve"/>
      <point x="133" y="71"/>
      <point x="217" y="48"/>
      <point x="311" y="48" type="curve"/>
      <point x="465" y="48"/>
      <point x="600" y="77"/>
      <point x="600" y="198" type="curve"/>
      <point x="600" y="316"/>
      <point x="467" y="341"/>
      <point x="338" y="385" type="curve"/>
      <point x="223" y="424"/>
      <point x="120" y="446"/>
      <point x="120" y="543" type="curve"/>
      <point x="120" y="632"/>
      <point x="217" y="662"/>
      <point x="333" y="662" type="curve"/>
      <point x="424" y="662"/>
      <point x="488" y="647"/>
      <point x="568" y="613" type="curve"/>
      <point x="581" y="631"/>
      <point x="568" y="613"/>
      <point x="581" y="631" type="curve"/>
      <point x="497" y="666"/>
      <point x="429" y="683"/>
      <point x="335" y="683" type="curve"/>
      <point x="203" y="683"/>
      <point x="96" y="648"/>
      <point x="96" y="543" type="curve"/>
      <point x="96" y="432"/>
      <point x="202" y="406"/>
      <point x="324" y="365" type="curve"/>
      <point x="446" y="326"/>
      <point x="576" y="301"/>
      <point x="576" y="197" type="curve"/>
      <point x="576" y="96"/>
      <point x="454" y="69"/>
      <point x="313" y="69" type="curve"/>
      <point x="223" y="69"/>
      <point x="143" y="93"/>
      <point x="76" y="118" type="curve"/>
      <point x="63" y="99"/>
      <point x="76" y="118"/>
    </contour>
  </outline>
</glyph>
<glyph name="slash" format="1">
  <advance width="651"/>
  <unicode hex="002F"/>
  <outline>
    <contour>
      <point x="64" y="-67" type="curve"/>
      <point x="247" y="236"/>
      <point x="429" y="540"/>
      <point x="611" y="843" type="curve"/>
      <point x="587" y="843"/>
      <point x="611" y="843"/>
      <point x="587" y="843" type="curve"/>
      <point x="405" y="540"/>
      <point x="223" y="236"/>
      <point x="40" y="-67" type="curve"/>
      <point x="64" y="-67"/>
      <point x="40" y="-67"/>
    </contour>
  </outline>
</glyph>
<glyph name="five" format="1">
  <advance width="626"/>
  <unicode hex="0035"/>
  <outline>
    <contour>
      <point x="122" y="722" type="curve"/>
      <point x="122" y="619"/>
      <point x="122" y="505"/>
      <point x="122" y="401" type="curve"/>
      <point x="145" y="396"/>
      <point x="122" y="401"/>
      <point x="145" y="396" type="curve"/>
      <point x="145" y="498"/>
      <point x="145" y="599"/>
      <point x="145" y="700" type="curve"/>
      <point x="122" y="722"/>
      <point x="145" y="700"/>
    </contour>
    <contour>
      <point x="145" y="396" type="curve"/>
      <point x="178" y="410"/>
      <point x="248" y="422"/>
      <point x="297" y="422" type="curve"/>
      <point x="435" y="422"/>
      <point x="539" y="353"/>
      <point x="539" y="224" type="curve"/>
      <point x="539" y="94"/>
      <point x="425" y="22"/>
      <point x="283" y="22" type="curve"/>
      <point x="205" y="22"/>
      <point x="142" y="38"/>
      <point x="70" y="67" type="curve"/>
      <point x="59" y="44"/>
      <point x="70" y="67"/>
      <point x="59" y="44" type="curve"/>
      <point x="130" y="12"/>
      <point x="200" y="-5"/>
      <point x="282" y="-5" type="curve"/>
      <point x="439" y="-5"/>
      <point x="564" y="78"/>
      <point x="564" y="224" type="curve"/>
      <point x="564" y="366"/>
      <point x="450" y="446"/>
      <point x="298" y="446" type="curve"/>
      <point x="239" y="446"/>
      <point x="162" y="431"/>
      <point x="122" y="411" type="curve"/>
      <point x="145" y="396"/>
      <point x="122" y="411"/>
    </contour>
    <contour>
      <point x="542" y="722" type="curve"/>
      <point x="397" y="722"/>
      <point x="267" y="722"/>
      <point x="122" y="722" type="curve"/>
      <point x="145" y="700"/>
      <point x="122" y="722"/>
      <point x="145" y="700" type="curve"/>
      <point x="282" y="700"/>
      <point x="405" y="700"/>
      <point x="542" y="700" type="curve"/>
      <point x="542" y="722"/>
      <point x="542" y="700"/>
    </contour>
  </outline>
</glyph>
<glyph name="eight" format="1">
  <advance width="656"/>
  <unicode hex="0038"/>
  <outline>
    <contour>
      <point x="94" y="562" type="curve"/>
      <point x="94" y="438"/>
      <point x="200" y="416"/>
      <point x="321" y="369" type="curve"/>
      <point x="449" y="319"/>
      <point x="563" y="293"/>
      <point x="563" y="170" type="curve"/>
      <point x="563" y="50"/>
      <point x="461" y="19"/>
      <point x="325" y="19" type="curve"/>
      <point x="191" y="19"/>
      <point x="93" y="52"/>
      <point x="93" y="170" type="curve"/>
      <point x="93" y="297"/>
      <point x="209" y="318"/>
      <point x="338" y="369" type="curve"/>
      <point x="455" y="418"/>
      <point x="562" y="438"/>
      <point x="562" y="560" type="curve"/>
      <point x="562" y="685"/>
      <point x="465" y="727"/>
      <point x="325" y="727" type="curve"/>
      <point x="191" y="727"/>
      <point x="94" y="683"/>
      <point x="94" y="562" type="curve"/>
      <point x="118" y="562"/>
      <point x="94" y="562"/>
      <point x="118" y="562" type="curve"/>
      <point x="118" y="667"/>
      <point x="206" y="703"/>
      <point x="324" y="703" type="curve"/>
      <point x="449" y="703"/>
      <point x="538" y="671"/>
      <point x="538" y="560" type="curve"/>
      <point x="538" y="450"/>
      <point x="434" y="430"/>
      <point x="321" y="387" type="curve"/>
      <point x="187" y="333"/>
      <point x="69" y="309"/>
      <point x="69" y="170" type="curve"/>
      <point x="69" y="39"/>
      <point x="176" y="-5"/>
      <point x="324" y="-5" type="curve"/>
      <point x="475" y="-5"/>
      <point x="587" y="35"/>
      <point x="587" y="170" type="curve"/>
      <point x="587" y="306"/>
      <point x="470" y="334"/>
      <point x="338" y="387" type="curve"/>
      <point x="223" y="433"/>
      <point x="118" y="449"/>
      <point x="118" y="562" type="curve"/>
      <point x="94" y="562"/>
      <point x="118" y="562"/>
    </contour>
  </outline>
</glyph>
<glyph name="question" format="1">
  <advance width="564"/>
  <unicode hex="003F"/>
  <outline>
    <contour>
      <point x="223" y="334" type="curve"/>
      <point x="223" y="297"/>
      <point x="223" y="259"/>
      <point x="223" y="222" type="curve"/>
      <point x="248" y="222"/>
      <point x="223" y="222"/>
      <point x="248" y="222" type="curve"/>
      <point x="248" y="259"/>
      <point x="248" y="297"/>
      <point x="248" y="334" type="curve"/>
      <point x="223" y="334"/>
      <point x="248" y="334"/>
    </contour>
    <contour>
      <point x="81" y="629" type="line"/>
      <point x="123" y="662"/>
      <point x="183" y="688"/>
      <point x="252" y="688" type="curve"/>
      <point x="376" y="688"/>
      <point x="474" y="635"/>
      <point x="474" y="519" type="curve"/>
      <point x="474" y="391"/>
      <point x="364" y="334"/>
      <point x="224" y="334" type="curve"/>
      <point x="224" y="325"/>
      <point x="224" y="321"/>
      <point x="224" y="311" type="curve"/>
      <point x="377" y="311"/>
      <point x="497" y="378"/>
      <point x="497" y="519" type="curve"/>
      <point x="497" y="648"/>
      <point x="391" y="710"/>
      <point x="254" y="710" type="curve"/>
      <point x="179" y="710"/>
      <point x="114" y="683"/>
      <point x="67" y="647" type="curve"/>
    </contour>
    <contour>
      <point x="250" y="11" type="curve"/>
      <point x="250" y="20"/>
      <point x="245" y="25"/>
      <point x="236" y="25" type="curve"/>
      <point x="227" y="25"/>
      <point x="222" y="19"/>
      <point x="222" y="11" type="curve"/>
      <point x="250" y="11"/>
      <point x="222" y="11"/>
      <point x="250" y="11" type="curve"/>
      <point x="250" y="2"/>
      <point x="245" y="-2"/>
      <point x="236" y="-2" type="curve"/>
      <point x="227" y="-2"/>
      <point x="222" y="3"/>
      <point x="222" y="11" type="curve"/>
      <point x="250" y="11"/>
      <point x="222" y="11"/>
    </contour>
  </outline>
</glyph>
<glyph name="H" format="1">
  <advance width="1059"/>
  <unicode hex="0048"/>
  <outline>
    <contour>
      <point x="855" y="700" type="curve"/>
      <point x="1021" y="700"/>
      <point x="853" y="700"/>
      <point x="1019" y="700" type="curve"/>
      <point x="1019" y="722"/>
      <point x="1019" y="700"/>
      <point x="1019" y="722" type="curve"/>
      <point x="964" y="722"/>
      <point x="910" y="722"/>
      <point x="855" y="722" type="curve"/>
      <point x="855" y="700"/>
      <point x="855" y="722"/>
    </contour>
    <contour>
      <point x="855" y="0" type="curve"/>
      <point x="910" y="0"/>
      <point x="964" y="0"/>
      <point x="1019" y="0" type="curve"/>
      <point x="1019" y="22"/>
      <point x="1019" y="0"/>
      <point x="1019" y="22" type="curve"/>
      <point x="853" y="22"/>
      <point x="1021" y="22"/>
      <point x="855" y="22" type="curve"/>
      <point x="855" y="0"/>
      <point x="855" y="22"/>
    </contour>
    <contour>
      <point x="855" y="22" type="curve"/>
      <point x="690" y="22"/>
      <point x="857" y="22"/>
      <point x="692" y="22" type="curve"/>
      <point x="692" y="0"/>
      <point x="692" y="22"/>
      <point x="692" y="0" type="curve"/>
      <point x="747" y="0"/>
      <point x="800" y="0"/>
      <point x="855" y="0" type="curve"/>
      <point x="855" y="22"/>
      <point x="855" y="0"/>
    </contour>
    <contour>
      <point x="855" y="722" type="curve"/>
      <point x="800" y="722"/>
      <point x="747" y="722"/>
      <point x="692" y="722" type="curve"/>
      <point x="692" y="700"/>
      <point x="692" y="722"/>
      <point x="692" y="700" type="curve"/>
      <point x="857" y="700"/>
      <point x="690" y="700"/>
      <point x="855" y="700" type="curve"/>
      <point x="855" y="722"/>
      <point x="855" y="700"/>
    </contour>
    <contour>
      <point x="205" y="700" type="curve"/>
      <point x="370" y="700"/>
      <point x="203" y="700"/>
      <point x="368" y="700" type="curve"/>
      <point x="368" y="722"/>
      <point x="368" y="700"/>
      <point x="368" y="722" type="curve"/>
      <point x="314" y="722"/>
      <point x="260" y="722"/>
      <point x="205" y="722" type="curve"/>
      <point x="205" y="700"/>
      <point x="205" y="722"/>
    </contour>
    <contour>
      <point x="205" y="722" type="curve"/>
      <point x="150" y="722"/>
      <point x="97" y="722"/>
      <point x="42" y="722" type="curve"/>
      <point x="42" y="700"/>
      <point x="42" y="722"/>
      <point x="42" y="700" type="curve"/>
      <point x="207" y="700"/>
      <point x="40" y="700"/>
      <point x="205" y="700" type="curve"/>
      <point x="205" y="722"/>
      <point x="205" y="700"/>
    </contour>
    <contour>
      <point x="205" y="0" type="curve"/>
      <point x="260" y="0"/>
      <point x="203" y="0"/>
      <point x="368" y="0" type="curve"/>
      <point x="368" y="22"/>
      <point x="368" y="0"/>
      <point x="368" y="22" type="curve"/>
      <point x="203" y="22"/>
      <point x="370" y="22"/>
      <point x="205" y="22" type="curve"/>
      <point x="205" y="0"/>
      <point x="205" y="22"/>
    </contour>
    <contour>
      <point x="205" y="22" type="curve"/>
      <point x="40" y="22"/>
      <point x="207" y="22"/>
      <point x="42" y="22" type="curve"/>
      <point x="42" y="0"/>
      <point x="42" y="22"/>
      <point x="42" y="0" type="curve"/>
      <point x="97" y="0"/>
      <point x="150" y="0"/>
      <point x="205" y="0" type="curve"/>
      <point x="205" y="22"/>
      <point x="205" y="0"/>
    </contour>
    <contour>
      <point x="217" y="0" type="curve"/>
      <point x="217" y="722" type="line"/>
      <point x="193" y="722"/>
      <point x="217" y="722"/>
      <point x="193" y="722" type="curve"/>
      <point x="193" y="481"/>
      <point x="193" y="241"/>
      <point x="193" y="0" type="curve"/>
      <point x="217" y="0"/>
      <point x="193" y="0"/>
    </contour>
    <contour>
      <point x="851" y="374" type="curve"/>
      <point x="636" y="374"/>
      <point x="420" y="374"/>
      <point x="205" y="374" type="curve"/>
      <point x="205" y="352"/>
      <point x="205" y="374"/>
      <point x="205" y="352" type="curve"/>
      <point x="420" y="352"/>
      <point x="636" y="352"/>
      <point x="851" y="352" type="curve"/>
      <point x="851" y="374"/>
      <point x="851" y="352"/>
    </contour>
    <contour>
      <point x="866" y="1" type="curve"/>
      <point x="866" y="241"/>
      <point x="866" y="481"/>
      <point x="866" y="721" type="curve"/>
      <point x="842" y="721"/>
      <point x="866" y="721"/>
      <point x="842" y="721" type="curve"/>
      <point x="842" y="1" type="line"/>
      <point x="866" y="1"/>
      <point x="842" y="1"/>
    </contour>
  </outline>
</glyph>
<glyph name="J" format="1">
  <advance width="579"/>
  <unicode hex="004A"/>
  <outline>
    <contour>
      <point x="406" y="722" type="curve"/>
      <point x="354" y="722"/>
      <point x="303" y="722"/>
      <point x="252" y="722" type="curve"/>
      <point x="252" y="700"/>
      <point x="252" y="722"/>
      <point x="252" y="700" type="curve"/>
      <point x="408" y="700"/>
      <point x="250" y="700"/>
      <point x="406" y="700" type="curve"/>
      <point x="406" y="722"/>
      <point x="406" y="700"/>
    </contour>
    <contour>
      <point x="406" y="700" type="curve"/>
      <point x="556" y="700"/>
      <point x="404" y="700"/>
      <point x="554" y="700" type="curve"/>
      <point x="554" y="722"/>
      <point x="554" y="700"/>
      <point x="554" y="722" type="curve"/>
      <point x="503" y="722"/>
      <point x="456" y="722"/>
      <point x="406" y="722" type="curve"/>
      <point x="406" y="700"/>
      <point x="406" y="722"/>
    </contour>
    <contour>
      <point x="33" y="43" type="curve"/>
      <point x="70" y="22"/>
      <point x="121" y="-1"/>
      <point x="183" y="-1" type="curve"/>
      <point x="329" y="-1"/>
      <point x="417" y="76"/>
      <point x="417" y="219" type="curve"/>
      <point x="417" y="388"/>
      <point x="417" y="552"/>
      <point x="417" y="722" type="curve"/>
      <point x="394" y="722"/>
      <point x="416" y="722"/>
      <point x="393" y="722" type="curve"/>
      <point x="393" y="552"/>
      <point x="393" y="388"/>
      <point x="393" y="219" type="curve"/>
      <point x="393" y="92"/>
      <point x="313" y="22"/>
      <point x="183" y="22" type="curve"/>
      <point x="128" y="22"/>
      <point x="90" y="39"/>
      <point x="44" y="60" type="curve"/>
      <point x="34" y="44"/>
      <point x="43" y="58"/>
    </contour>
  </outline>
</glyph>
<glyph name="O" format="1">
  <advance width="907"/>
  <unicode hex="004F"/>
  <outline>
    <contour>
      <point x="452" y="825" type="move" name="top"/>
    </contour>
    <contour>
      <point x="94" y="360" type="curve"/>
      <point x="94" y="573"/>
      <point x="235" y="705"/>
      <point x="452" y="705" type="curve"/>
      <point x="669" y="705"/>
      <point x="812" y="575"/>
      <point x="812" y="363" type="curve"/>
      <point x="812" y="151"/>
      <point x="671" y="18"/>
      <point x="455" y="18" type="curve"/>
      <point x="237" y="18"/>
      <point x="94" y="147"/>
      <point x="94" y="360" type="curve"/>
      <point x="70" y="360"/>
      <point x="94" y="360"/>
      <point x="70" y="360" type="curve"/>
      <point x="70" y="132"/>
      <point x="223" y="-5"/>
      <point x="454" y="-5" type="curve"/>
      <point x="685" y="-5"/>
      <point x="837" y="134"/>
      <point x="837" y="363" type="curve"/>
      <point x="837" y="590"/>
      <point x="684" y="727"/>
      <point x="453" y="727" type="curve"/>
      <point x="221" y="727"/>
      <point x="70" y="588"/>
      <point x="70" y="360" type="curve"/>
      <point x="94" y="360"/>
      <point x="70" y="360"/>
    </contour>
  </outline>
</glyph>
<glyph name="P" format="1">
  <advance width="743"/>
  <unicode hex="0050"/>
  <outline>
    <contour>
      <point x="206" y="722" type="curve"/>
      <point x="151" y="722"/>
      <point x="98" y="722"/>
      <point x="43" y="722" type="curve"/>
      <point x="43" y="700"/>
      <point x="43" y="722"/>
      <point x="43" y="700" type="curve"/>
      <point x="208" y="700"/>
      <point x="41" y="700"/>
      <point x="206" y="700" type="curve"/>
      <point x="206" y="722"/>
      <point x="206" y="700"/>
    </contour>
    <contour>
      <point x="206" y="22" type="curve"/>
      <point x="41" y="22"/>
      <point x="208" y="22"/>
      <point x="43" y="22" type="curve"/>
      <point x="43" y="0"/>
      <point x="43" y="22"/>
      <point x="43" y="0" type="curve"/>
      <point x="98" y="0"/>
      <point x="151" y="0"/>
      <point x="206" y="0" type="curve"/>
      <point x="206" y="22"/>
      <point x="206" y="0"/>
    </contour>
    <contour>
      <point x="206" y="0" type="curve"/>
      <point x="260" y="0"/>
      <point x="204" y="0"/>
      <point x="368" y="0" type="curve"/>
      <point x="368" y="22"/>
      <point x="368" y="0"/>
      <point x="368" y="22" type="curve"/>
      <point x="204" y="22"/>
      <point x="370" y="22"/>
      <point x="206" y="22" type="curve"/>
      <point x="206" y="0"/>
      <point x="206" y="22"/>
    </contour>
    <contour>
      <point x="204" y="326" type="curve"/>
      <point x="271" y="299"/>
      <point x="332" y="280"/>
      <point x="405" y="280" type="curve"/>
      <point x="563" y="283"/>
      <point x="684" y="349"/>
      <point x="684" y="494" type="curve"/>
      <point x="684" y="651"/>
      <point x="547" y="722"/>
      <point x="374" y="722" type="curve"/>
      <point x="319" y="722"/>
      <point x="264" y="722"/>
      <point x="210" y="722" type="curve"/>
      <point x="210" y="700"/>
      <point x="210" y="722"/>
      <point x="210" y="700" type="curve"/>
      <point x="263" y="700"/>
      <point x="317" y="700"/>
      <point x="371" y="700" type="curve"/>
      <point x="532" y="700"/>
      <point x="659" y="639"/>
      <point x="659" y="493" type="curve"/>
      <point x="659" y="363"/>
      <point x="549" y="302"/>
      <point x="408" y="302" type="curve"/>
      <point x="333" y="302"/>
      <point x="280" y="318"/>
      <point x="212" y="346" type="curve"/>
      <point x="204" y="326"/>
      <point x="212" y="346"/>
    </contour>
    <contour>
      <point x="217" y="0" type="curve"/>
      <point x="217" y="241"/>
      <point x="217" y="481"/>
      <point x="217" y="722" type="curve"/>
      <point x="192" y="722"/>
      <point x="217" y="722"/>
      <point x="192" y="722" type="curve"/>
      <point x="192" y="481"/>
      <point x="192" y="241"/>
      <point x="192" y="0" type="curve"/>
      <point x="217" y="0"/>
      <point x="192" y="0"/>
    </contour>
  </outline>
</glyph>
<glyph name="Q" format="1">
  <advance width="977"/>
  <unicode hex="0051"/>
  <outline>
    <contour>
      <point x="455" y="4" type="curve"/>
      <point x="594" y="-192"/>
      <point x="747" y="-240"/>
      <point x="976" y="-240" type="curve"/>
      <point x="976" y="-217"/>
      <point x="976" y="-240"/>
      <point x="976" y="-217" type="curve"/>
      <point x="758" y="-217"/>
      <point x="611" y="-172"/>
      <point x="476" y="15" type="curve"/>
      <point x="455" y="4"/>
      <point x="476" y="15"/>
    </contour>
    <contour>
      <point x="95" y="360" type="curve"/>
      <point x="95" y="573"/>
      <point x="237" y="703"/>
      <point x="455" y="703" type="curve"/>
      <point x="672" y="703"/>
      <point x="815" y="575"/>
      <point x="815" y="363" type="curve"/>
      <point x="815" y="150"/>
      <point x="674" y="19"/>
      <point x="458" y="19" type="curve"/>
      <point x="238" y="19"/>
      <point x="95" y="147"/>
      <point x="95" y="360" type="curve"/>
      <point x="70" y="360"/>
      <point x="95" y="360"/>
      <point x="70" y="360" type="curve"/>
      <point x="70" y="132"/>
      <point x="224" y="-5"/>
      <point x="457" y="-5" type="curve"/>
      <point x="688" y="-5"/>
      <point x="840" y="135"/>
      <point x="840" y="364" type="curve"/>
      <point x="840" y="591"/>
      <point x="687" y="727"/>
      <point x="456" y="727" type="curve"/>
      <point x="224" y="727"/>
      <point x="70" y="588"/>
      <point x="70" y="360" type="curve"/>
      <point x="95" y="360"/>
      <point x="70" y="360"/>
    </contour>
  </outline>
</glyph>
<glyph name="T" format="1">
  <advance width="897"/>
  <unicode hex="0054"/>
  <outline>
    <contour>
      <point x="447" y="825" type="move" name="top"/>
    </contour>
    <contour>
      <point x="460" y="-8" type="move" name="bottom"/>
    </contour>
    <contour>
      <point x="51" y="710" type="curve"/>
      <point x="51" y="590"/>
      <point x="51" y="711"/>
      <point x="51" y="591" type="curve"/>
      <point x="73" y="591"/>
      <point x="51" y="591"/>
      <point x="73" y="591" type="curve"/>
      <point x="73" y="711"/>
      <point x="73" y="590"/>
      <point x="73" y="710" type="curve"/>
      <point x="51" y="710"/>
      <point x="73" y="710"/>
    </contour>
    <contour>
      <point x="825" y="710" type="curve"/>
      <point x="825" y="590"/>
      <point x="825" y="711"/>
      <point x="825" y="591" type="curve"/>
      <point x="847" y="591"/>
      <point x="825" y="591"/>
      <point x="847" y="591" type="curve"/>
      <point x="847" y="711"/>
      <point x="847" y="590"/>
      <point x="847" y="710" type="curve"/>
      <point x="825" y="710"/>
      <point x="847" y="710"/>
    </contour>
    <contour>
      <point x="448" y="0" type="curve"/>
      <point x="503" y="0"/>
      <point x="557" y="0"/>
      <point x="611" y="0" type="curve"/>
      <point x="611" y="22"/>
      <point x="611" y="0"/>
      <point x="611" y="22" type="curve"/>
      <point x="447" y="22"/>
      <point x="612" y="22"/>
      <point x="448" y="22" type="curve"/>
      <point x="448" y="0"/>
      <point x="448" y="22"/>
    </contour>
    <contour>
      <point x="448" y="22" type="curve"/>
      <point x="283" y="22"/>
      <point x="449" y="22"/>
      <point x="284" y="22" type="curve"/>
      <point x="284" y="0"/>
      <point x="284" y="22"/>
      <point x="284" y="0" type="curve"/>
      <point x="340" y="0"/>
      <point x="393" y="0"/>
      <point x="448" y="0" type="curve"/>
      <point x="448" y="22"/>
      <point x="448" y="0"/>
    </contour>
    <contour>
      <point x="462" y="0" type="curve"/>
      <point x="462" y="237"/>
      <point x="462" y="473"/>
      <point x="462" y="710" type="curve"/>
      <point x="438" y="710"/>
      <point x="462" y="710"/>
      <point x="438" y="710" type="curve"/>
      <point x="438" y="473"/>
      <point x="438" y="237"/>
      <point x="438" y="0" type="curve"/>
      <point x="462" y="0"/>
      <point x="438" y="0"/>
    </contour>
    <contour>
      <point x="51" y="698" type="curve"/>
      <point x="316" y="698"/>
      <point x="582" y="698"/>
      <point x="847" y="698" type="curve"/>
      <point x="847" y="722"/>
      <point x="847" y="698"/>
      <point x="847" y="722" type="curve"/>
      <point x="582" y="722"/>
      <point x="316" y="722"/>
      <point x="51" y="722" type="curve"/>
      <point x="51" y="698"/>
      <point x="51" y="722"/>
    </contour>
  </outline>
</glyph>
<glyph name="W" format="1">
  <advance width="1278"/>
  <unicode hex="0057"/>
  <outline>
    <contour>
      <point x="155" y="700" type="curve"/>
      <point x="320" y="700"/>
      <point x="154" y="700"/>
      <point x="319" y="700" type="curve"/>
      <point x="319" y="722"/>
      <point x="319" y="700"/>
      <point x="319" y="722" type="curve"/>
      <point x="264" y="722"/>
      <point x="210" y="722"/>
      <point x="155" y="722" type="curve"/>
      <point x="155" y="700"/>
      <point x="155" y="722"/>
    </contour>
    <contour>
      <point x="155" y="722" type="curve"/>
      <point x="101" y="722"/>
      <point x="46" y="722"/>
      <point x="-8" y="722" type="curve"/>
      <point x="-8" y="700"/>
      <point x="-8" y="722"/>
      <point x="-8" y="700" type="curve"/>
      <point x="156" y="700"/>
      <point x="-9" y="700"/>
      <point x="155" y="700" type="curve"/>
      <point x="155" y="722"/>
      <point x="155" y="700"/>
    </contour>
    <contour>
      <point x="1102" y="722" type="curve"/>
      <point x="1046" y="722"/>
      <point x="993" y="722"/>
      <point x="938" y="722" type="curve"/>
      <point x="938" y="700"/>
      <point x="938" y="722"/>
      <point x="938" y="700" type="curve"/>
      <point x="1102" y="700"/>
      <point x="937" y="700"/>
      <point x="1102" y="700" type="curve"/>
      <point x="1102" y="722"/>
      <point x="1102" y="700"/>
    </contour>
    <contour>
      <point x="1102" y="700" type="curve"/>
      <point x="1266" y="700"/>
      <point x="1101" y="700"/>
      <point x="1265" y="700" type="curve"/>
      <point x="1265" y="722"/>
      <point x="1265" y="700"/>
      <point x="1265" y="722" type="curve"/>
      <point x="1210" y="722"/>
      <point x="1156" y="722"/>
      <point x="1102" y="722" type="curve"/>
      <point x="1102" y="700"/>
      <point x="1102" y="722"/>
    </contour>
    <contour>
      <point x="385" y="0" type="curve"/>
      <point x="471" y="241"/>
      <point x="557" y="481"/>
      <point x="643" y="722" type="curve"/>
      <point x="620" y="722"/>
      <point x="643" y="722"/>
      <point x="620" y="722" type="curve"/>
      <point x="535" y="481"/>
      <point x="448" y="241"/>
      <point x="363" y="0" type="curve"/>
      <point x="380" y="0"/>
      <point x="368" y="0"/>
    </contour>
    <contour>
      <point x="629" y="722" type="curve"/>
      <point x="706" y="481"/>
      <point x="784" y="241"/>
      <point x="861" y="0" type="curve"/>
      <point x="879" y="0"/>
      <point x="866" y="0"/>
      <point x="884" y="0" type="curve"/>
      <point x="808" y="241"/>
      <point x="730" y="481"/>
      <point x="652" y="722" type="curve"/>
      <point x="629" y="722"/>
      <point x="652" y="722"/>
    </contour>
    <contour>
      <point x="127" y="722" type="curve"/>
      <point x="204" y="481"/>
      <point x="282" y="241"/>
      <point x="361" y="0" type="curve"/>
      <point x="378" y="0"/>
      <point x="366" y="0"/>
      <point x="383" y="0" type="curve"/>
      <point x="307" y="240"/>
      <point x="228" y="482"/>
      <point x="152" y="722" type="curve"/>
      <point x="127" y="722"/>
      <point x="152" y="722"/>
    </contour>
    <contour>
      <point x="1105" y="722" type="curve"/>
      <point x="1024" y="481"/>
      <point x="943" y="241"/>
      <point x="864" y="0" type="curve"/>
      <point x="882" y="0"/>
      <point x="869" y="0"/>
      <point x="887" y="0" type="curve"/>
      <point x="968" y="241"/>
      <point x="1049" y="481"/>
      <point x="1130" y="722" type="curve"/>
      <point x="1105" y="722"/>
      <point x="1130" y="722"/>
    </contour>
  </outline>
</glyph>
<glyph name="Y" format="1">
  <advance width="889"/>
  <unicode hex="0059"/>
  <outline>
    <contour>
      <point x="424" y="825" type="move" name="top"/>
    </contour>
    <contour>
      <point x="423" y="22" type="curve"/>
      <point x="259" y="22"/>
      <point x="424" y="22"/>
      <point x="260" y="22" type="curve"/>
      <point x="260" y="0"/>
      <point x="260" y="22"/>
      <point x="260" y="0" type="curve"/>
      <point x="314" y="0"/>
      <point x="368" y="0"/>
      <point x="423" y="0" type="curve"/>
      <point x="423" y="22"/>
      <point x="423" y="0"/>
    </contour>
    <contour>
      <point x="423" y="0" type="curve"/>
      <point x="477" y="0"/>
      <point x="531" y="0"/>
      <point x="586" y="0" type="curve"/>
      <point x="586" y="22"/>
      <point x="586" y="0"/>
      <point x="586" y="22" type="curve"/>
      <point x="422" y="22"/>
      <point x="587" y="22"/>
      <point x="423" y="22" type="curve"/>
      <point x="423" y="0"/>
      <point x="423" y="22"/>
    </contour>
    <contour>
      <point x="708" y="722" type="curve"/>
      <point x="653" y="722"/>
      <point x="600" y="722"/>
      <point x="545" y="722" type="curve"/>
      <point x="545" y="700"/>
      <point x="545" y="722"/>
      <point x="545" y="700" type="curve"/>
      <point x="709" y="700"/>
      <point x="544" y="700"/>
      <point x="708" y="700" type="curve"/>
      <point x="708" y="722"/>
      <point x="708" y="700"/>
    </contour>
    <contour>
      <point x="154" y="722" type="curve"/>
      <point x="99" y="722"/>
      <point x="45" y="722"/>
      <point x="-9" y="722" type="curve"/>
      <point x="-9" y="700"/>
      <point x="-9" y="722"/>
      <point x="-9" y="700" type="curve"/>
      <point x="155" y="700"/>
      <point x="-10" y="700"/>
      <point x="154" y="700" type="curve"/>
      <point x="154" y="722"/>
      <point x="154" y="700"/>
    </contour>
    <contour>
      <point x="154" y="700" type="curve"/>
      <point x="319" y="700"/>
      <point x="153" y="700"/>
      <point x="318" y="700" type="curve"/>
      <point x="318" y="722"/>
      <point x="318" y="700"/>
      <point x="318" y="722" type="curve"/>
      <point x="262" y="722"/>
      <point x="209" y="722"/>
      <point x="154" y="722" type="curve"/>
      <point x="154" y="700"/>
      <point x="154" y="722"/>
    </contour>
    <contour>
      <point x="708" y="700" type="curve"/>
      <point x="873" y="700"/>
      <point x="708" y="700"/>
      <point x="872" y="700" type="curve"/>
      <point x="872" y="722"/>
      <point x="872" y="700"/>
      <point x="872" y="722" type="curve"/>
      <point x="816" y="722"/>
      <point x="763" y="722"/>
      <point x="708" y="722" type="curve"/>
      <point x="708" y="700"/>
      <point x="708" y="722"/>
    </contour>
    <contour>
      <point x="108" y="722" type="curve"/>
      <point x="208" y="594"/>
      <point x="309" y="465"/>
      <point x="410" y="337" type="curve"/>
      <point x="436" y="337"/>
      <point x="410" y="341"/>
      <point x="436" y="341" type="curve"/>
      <point x="336" y="468"/>
      <point x="236" y="595"/>
      <point x="137" y="722" type="curve"/>
      <point x="108" y="722"/>
      <point x="137" y="722"/>
    </contour>
    <contour>
      <point x="726" y="722" type="curve"/>
      <point x="620" y="595"/>
      <point x="516" y="468"/>
      <point x="411" y="341" type="curve"/>
      <point x="436" y="341"/>
      <point x="411" y="337"/>
      <point x="436" y="337" type="curve"/>
      <point x="542" y="465"/>
      <point x="648" y="594"/>
      <point x="755" y="722" type="curve"/>
      <point x="726" y="722"/>
      <point x="755" y="722"/>
    </contour>
    <contour>
      <point x="436" y="0" type="curve"/>
      <point x="436" y="115"/>
      <point x="436" y="231"/>
      <point x="436" y="346" type="curve"/>
      <point x="410" y="346"/>
      <point x="436" y="346"/>
      <point x="410" y="346" type="curve"/>
      <point x="410" y="231"/>
      <point x="410" y="115"/>
      <point x="410" y="0" type="curve"/>
      <point x="436" y="0"/>
      <point x="410" y="0"/>
    </contour>
  </outline>
</glyph>
<glyph name="bracketleft" format="1">
  <advance width="326"/>
  <unicode hex="005B"/>
  <outline>
    <contour>
      <point x="285" y="771" type="curve"/>
      <point x="219" y="771"/>
      <point x="154" y="771"/>
      <point x="88" y="771" type="curve"/>
      <point x="87" y="771"/>
      <point x="88" y="771"/>
      <point x="85" y="771" type="curve"/>
      <point x="85" y="769"/>
      <point x="85" y="767"/>
      <point x="85" y="765" type="curve"/>
      <point x="85" y="470"/>
      <point x="85" y="175"/>
      <point x="85" y="-120" type="curve"/>
      <point x="85" y="-121"/>
      <point x="85" y="-123"/>
      <point x="85" y="-124" type="curve"/>
      <point x="86" y="-124"/>
      <point x="86" y="-124"/>
      <point x="87" y="-124" type="curve"/>
      <point x="153" y="-124"/>
      <point x="218" y="-124"/>
      <point x="285" y="-124" type="curve"/>
      <point x="285" y="-100"/>
      <point x="285" y="-124"/>
      <point x="285" y="-100" type="curve"/>
      <point x="218" y="-100"/>
      <point x="153" y="-100"/>
      <point x="87" y="-100" type="curve"/>
      <point x="110" y="-100"/>
      <point x="87" y="-100"/>
      <point x="110" y="-100" type="curve"/>
      <point x="110" y="-120"/>
      <point x="110" y="-100"/>
      <point x="110" y="-120" type="curve"/>
      <point x="110" y="175"/>
      <point x="110" y="470"/>
      <point x="110" y="765" type="curve"/>
      <point x="110" y="747"/>
      <point x="110" y="765"/>
      <point x="110" y="747" type="curve"/>
      <point x="88" y="747"/>
      <point x="110" y="747"/>
      <point x="88" y="747" type="curve"/>
      <point x="154" y="747"/>
      <point x="219" y="747"/>
      <point x="285" y="747" type="curve"/>
      <point x="285" y="771"/>
      <point x="285" y="747"/>
    </contour>
  </outline>
</glyph>
<glyph name="backslash" format="1">
  <advance width="614"/>
  <unicode hex="005C"/>
  <outline>
    <contour>
      <point x="571" y="-68" type="curve"/>
      <point x="404" y="236"/>
      <point x="236" y="540"/>
      <point x="68" y="844" type="curve"/>
      <point x="43" y="844"/>
      <point x="68" y="844"/>
      <point x="43" y="844" type="curve"/>
      <point x="210" y="540"/>
      <point x="379" y="236"/>
      <point x="546" y="-68" type="curve"/>
      <point x="571" y="-68"/>
      <point x="546" y="-68"/>
    </contour>
  </outline>
</glyph>
<glyph name="underscore" format="1">
  <advance width="876"/>
  <unicode hex="005F"/>
  <outline>
    <contour>
      <point x="-1" y="-210" type="curve"/>
      <point x="291" y="-210"/>
      <point x="584" y="-210"/>
      <point x="875" y="-210" type="curve"/>
      <point x="875" y="-189"/>
      <point x="875" y="-210"/>
      <point x="875" y="-189" type="curve"/>
      <point x="584" y="-189"/>
      <point x="291" y="-189"/>
      <point x="-1" y="-189" type="curve"/>
      <point x="-1" y="-210"/>
      <point x="-1" y="-189"/>
    </contour>
  </outline>
</glyph>
<glyph name="grave" format="1">
  <advance width="474"/>
  <unicode hex="0060"/>
  <outline>
    <contour>
      <point x="257" y="591" type="move" name="_top"/>
    </contour>
    <contour>
      <point x="275" y="591" type="line"/>
      <point x="99" y="757" type="line"/>
      <point x="60" y="757" type="line"/>
      <point x="245" y="591" type="line"/>
    </contour>
  </outline>
</glyph>
<glyph name="b" format="1">
  <advance width="788"/>
  <unicode hex="0062"/>
  <outline>
    <contour>
      <point x="170" y="800" type="curve"/>
      <point x="116" y="800"/>
      <point x="62" y="800"/>
      <point x="7" y="800" type="curve"/>
      <point x="7" y="778"/>
      <point x="7" y="800"/>
      <point x="7" y="778" type="curve"/>
      <point x="171" y="778"/>
      <point x="6" y="778"/>
      <point x="170" y="778" type="curve"/>
      <point x="170" y="800"/>
      <point x="170" y="778"/>
    </contour>
    <contour>
      <point x="174" y="408" type="curve"/>
      <point x="230" y="462"/>
      <point x="329" y="516"/>
      <point x="441" y="516" type="curve"/>
      <point x="593" y="516"/>
      <point x="696" y="418"/>
      <point x="696" y="264" type="curve"/>
      <point x="696" y="115"/>
      <point x="591" y="15"/>
      <point x="440" y="17" type="curve"/>
      <point x="337" y="17"/>
      <point x="258" y="45"/>
      <point x="177" y="113" type="curve"/>
      <point x="161" y="100"/>
      <point x="178" y="112"/>
      <point x="161" y="99" type="curve"/>
      <point x="246" y="24"/>
      <point x="330" y="-5"/>
      <point x="441" y="-5" type="curve"/>
      <point x="607" y="-5"/>
      <point x="720" y="100"/>
      <point x="720" y="265" type="curve"/>
      <point x="720" y="430"/>
      <point x="608" y="538"/>
      <point x="444" y="538" type="curve"/>
      <point x="325" y="538"/>
      <point x="222" y="483"/>
      <point x="162" y="425" type="curve"/>
      <point x="174" y="408"/>
      <point x="162" y="424"/>
    </contour>
    <contour>
      <point x="180" y="0" type="curve"/>
      <point x="180" y="267"/>
      <point x="180" y="533"/>
      <point x="180" y="800" type="curve"/>
      <point x="156" y="800"/>
      <point x="180" y="800"/>
      <point x="156" y="800" type="curve"/>
      <point x="156" y="533"/>
      <point x="156" y="267"/>
      <point x="156" y="0" type="curve"/>
      <point x="180" y="0"/>
      <point x="156" y="0"/>
    </contour>
    <contour>
      <point x="170" y="22" type="curve"/>
      <point x="6" y="22"/>
      <point x="171" y="22"/>
      <point x="7" y="22" type="curve"/>
      <point x="7" y="0"/>
      <point x="7" y="22"/>
      <point x="7" y="0" type="curve"/>
      <point x="62" y="0"/>
      <point x="116" y="0"/>
      <point x="170" y="0" type="curve"/>
      <point x="170" y="22"/>
      <point x="170" y="0"/>
    </contour>
  </outline>
</glyph>
<glyph name="i" format="1">
  <advance width="359"/>
  <unicode hex="0069"/>
  <outline>
    <contour>
      <point x="199" y="669" type="move" name="top"/>
    </contour>
    <contour>
      <point x="213" y="0" type="move" name="bottom"/>
    </contour>
    <contour>
      <point x="199" y="22" type="curve"/>
      <point x="35" y="22"/>
      <point x="200" y="22"/>
      <point x="36" y="22" type="curve"/>
      <point x="36" y="0"/>
      <point x="36" y="22"/>
      <point x="36" y="0" type="curve"/>
      <point x="91" y="0"/>
      <point x="145" y="0"/>
      <point x="199" y="0" type="curve"/>
      <point x="199" y="22"/>
      <point x="199" y="0"/>
    </contour>
    <contour>
      <point x="199" y="0" type="curve"/>
      <point x="250" y="0"/>
      <point x="299" y="0"/>
      <point x="350" y="0" type="curve"/>
      <point x="350" y="22"/>
      <point x="350" y="0"/>
      <point x="350" y="22" type="curve"/>
      <point x="198" y="22"/>
      <point x="351" y="22"/>
      <point x="199" y="22" type="curve"/>
      <point x="199" y="0"/>
      <point x="199" y="22"/>
    </contour>
    <contour>
      <point x="199" y="533" type="curve"/>
      <point x="145" y="533"/>
      <point x="91" y="533"/>
      <point x="36" y="533" type="curve"/>
      <point x="36" y="511"/>
      <point x="36" y="533"/>
      <point x="36" y="511" type="curve"/>
      <point x="200" y="511"/>
      <point x="35" y="511"/>
      <point x="199" y="511" type="curve"/>
      <point x="199" y="533"/>
      <point x="199" y="511"/>
    </contour>
    <contour>
      <point x="213" y="0" type="curve"/>
      <point x="213" y="178"/>
      <point x="213" y="355"/>
      <point x="213" y="533" type="curve"/>
      <point x="187" y="533"/>
      <point x="213" y="533"/>
      <point x="187" y="533" type="curve"/>
      <point x="187" y="355"/>
      <point x="187" y="178"/>
      <point x="187" y="0" type="curve"/>
      <point x="213" y="0"/>
      <point x="187" y="0"/>
    </contour>
    <contour>
      <point x="218" y="684" type="curve"/>
      <point x="218" y="695"/>
      <point x="210" y="702"/>
      <point x="198" y="702" type="curve"/>
      <point x="187" y="702"/>
      <point x="180" y="695"/>
      <point x="180" y="684" type="curve"/>
      <point x="196" y="684"/>
      <point x="202" y="684"/>
      <point x="218" y="684" type="curve"/>
      <point x="218" y="673"/>
      <point x="210" y="666"/>
      <point x="198" y="666" type="curve"/>
      <point x="187" y="666"/>
      <point x="180" y="673"/>
      <point x="180" y="684" type="curve"/>
      <point x="196" y="684"/>
      <point x="202" y="684"/>
    </contour>
  </outline>
</glyph>
<glyph name="m" format="1">
  <advance width="1221"/>
  <unicode hex="006D"/>
  <outline>
    <contour>
      <point x="626" y="0" type="curve"/>
      <point x="763" y="0"/>
      <point x="626" y="0"/>
      <point x="763" y="0" type="curve"/>
      <point x="763" y="22"/>
      <point x="763" y="0"/>
      <point x="763" y="22" type="curve"/>
      <point x="626" y="22"/>
      <point x="763" y="22"/>
      <point x="626" y="22" type="curve"/>
      <point x="626" y="0"/>
      <point x="626" y="22"/>
    </contour>
    <contour>
      <point x="1054" y="0" type="curve"/>
      <point x="1108" y="0"/>
      <point x="1163" y="0"/>
      <point x="1217" y="0" type="curve"/>
      <point x="1217" y="22"/>
      <point x="1217" y="0"/>
      <point x="1217" y="22" type="curve"/>
      <point x="1053" y="22"/>
      <point x="1218" y="22"/>
      <point x="1054" y="22" type="curve"/>
      <point x="1054" y="0"/>
      <point x="1054" y="22"/>
    </contour>
    <contour>
      <point x="199" y="22" type="curve"/>
      <point x="35" y="22"/>
      <point x="200" y="22"/>
      <point x="36" y="22" type="curve"/>
      <point x="36" y="0"/>
      <point x="36" y="22"/>
      <point x="36" y="0" type="curve"/>
      <point x="90" y="0"/>
      <point x="145" y="0"/>
      <point x="199" y="0" type="curve"/>
      <point x="199" y="22"/>
      <point x="199" y="0"/>
    </contour>
    <contour>
      <point x="199" y="0" type="curve"/>
      <point x="245" y="0"/>
      <point x="197" y="0"/>
      <point x="336" y="0" type="curve"/>
      <point x="336" y="22"/>
      <point x="336" y="0"/>
      <point x="336" y="22" type="curve"/>
      <point x="197" y="22"/>
      <point x="338" y="22"/>
      <point x="199" y="22" type="curve"/>
      <point x="199" y="0"/>
      <point x="199" y="22"/>
    </contour>
    <contour>
      <point x="199" y="533" type="curve"/>
      <point x="145" y="533"/>
      <point x="90" y="533"/>
      <point x="36" y="533" type="curve"/>
      <point x="36" y="511"/>
      <point x="36" y="533"/>
      <point x="36" y="511" type="curve"/>
      <point x="200" y="511"/>
      <point x="35" y="511"/>
      <point x="199" y="511" type="curve"/>
      <point x="199" y="533"/>
      <point x="199" y="511"/>
    </contour>
    <contour>
      <point x="633" y="354" type="curve"/>
      <point x="680" y="456"/>
      <point x="761" y="516"/>
      <point x="868" y="516" type="curve"/>
      <point x="987" y="516"/>
      <point x="1040" y="462"/>
      <point x="1040" y="341" type="curve"/>
      <point x="1040" y="228"/>
      <point x="1040" y="114"/>
      <point x="1040" y="0" type="curve"/>
      <point x="1065" y="0"/>
      <point x="1040" y="0"/>
      <point x="1065" y="0" type="curve"/>
      <point x="1065" y="115"/>
      <point x="1065" y="229"/>
      <point x="1065" y="344" type="curve"/>
      <point x="1065" y="476"/>
      <point x="1005" y="538"/>
      <point x="873" y="538" type="curve"/>
      <point x="755" y="538"/>
      <point x="663" y="478"/>
      <point x="621" y="365" type="curve"/>
      <point x="633" y="354"/>
      <point x="621" y="365"/>
    </contour>
    <contour>
      <point x="206" y="354" type="curve"/>
      <point x="254" y="456"/>
      <point x="333" y="516"/>
      <point x="441" y="516" type="curve"/>
      <point x="559" y="516"/>
      <point x="614" y="462"/>
      <point x="614" y="341" type="curve"/>
      <point x="614" y="228"/>
      <point x="614" y="114"/>
      <point x="614" y="0" type="curve"/>
      <point x="638" y="0"/>
      <point x="614" y="0"/>
      <point x="638" y="0" type="curve"/>
      <point x="638" y="115"/>
      <point x="638" y="229"/>
      <point x="638" y="344" type="curve"/>
      <point x="638" y="476"/>
      <point x="578" y="538"/>
      <point x="447" y="538" type="curve"/>
      <point x="327" y="538"/>
      <point x="237" y="479"/>
      <point x="194" y="365" type="curve"/>
      <point x="206" y="354"/>
      <point x="194" y="365"/>
    </contour>
    <contour>
      <point x="211" y="0" type="curve"/>
      <point x="211" y="178"/>
      <point x="211" y="355"/>
      <point x="211" y="533" type="curve"/>
      <point x="187" y="533"/>
      <point x="211" y="533"/>
      <point x="187" y="533" type="curve"/>
      <point x="187" y="355"/>
      <point x="187" y="178"/>
      <point x="187" y="0" type="curve"/>
      <point x="211" y="0"/>
      <point x="187" y="0"/>
    </contour>
  </outline>
</glyph>
<glyph name="n" format="1">
  <advance width="843"/>
  <unicode hex="006E"/>
  <outline>
    <contour>
      <point x="443" y="669" type="move" name="top"/>
    </contour>
    <contour>
      <point x="484" y="-9" type="move" name="bottom"/>
    </contour>
    <contour>
      <point x="206" y="353" type="curve"/>
      <point x="253" y="456"/>
      <point x="357" y="516"/>
      <point x="468" y="516" type="curve"/>
      <point x="589" y="516"/>
      <point x="665" y="459"/>
      <point x="665" y="341" type="curve"/>
      <point x="665" y="228"/>
      <point x="665" y="114"/>
      <point x="665" y="0" type="curve"/>
      <point x="690" y="0"/>
      <point x="665" y="0"/>
      <point x="690" y="0" type="curve"/>
      <point x="690" y="115"/>
      <point x="690" y="229"/>
      <point x="690" y="344" type="curve"/>
      <point x="690" y="475"/>
      <point x="607" y="538"/>
      <point x="472" y="538" type="curve"/>
      <point x="352" y="538"/>
      <point x="236" y="479"/>
      <point x="194" y="364" type="curve"/>
      <point x="206" y="353"/>
      <point x="194" y="364"/>
    </contour>
    <contour>
      <point x="676" y="0" type="curve"/>
      <point x="730" y="0"/>
      <point x="785" y="0"/>
      <point x="839" y="0" type="curve"/>
      <point x="839" y="22"/>
      <point x="839" y="0"/>
      <point x="839" y="22" type="curve"/>
      <point x="675" y="22"/>
      <point x="840" y="22"/>
      <point x="676" y="22" type="curve"/>
      <point x="676" y="0"/>
      <point x="676" y="22"/>
    </contour>
    <contour>
      <point x="199" y="22" type="curve"/>
      <point x="35" y="22"/>
      <point x="200" y="22"/>
      <point x="36" y="22" type="curve"/>
      <point x="36" y="0"/>
      <point x="36" y="22"/>
      <point x="36" y="0" type="curve"/>
      <point x="91" y="0"/>
      <point x="145" y="0"/>
      <point x="199" y="0" type="curve"/>
      <point x="199" y="22"/>
      <point x="199" y="0"/>
    </contour>
    <contour>
      <point x="199" y="0" type="curve"/>
      <point x="249" y="0"/>
      <point x="198" y="0"/>
      <point x="348" y="0" type="curve"/>
      <point x="348" y="22"/>
      <point x="348" y="0"/>
      <point x="348" y="22" type="curve"/>
      <point x="198" y="22"/>
      <point x="350" y="22"/>
      <point x="199" y="22" type="curve"/>
      <point x="199" y="0"/>
      <point x="199" y="22"/>
    </contour>
    <contour>
      <point x="211" y="0" type="curve"/>
      <point x="211" y="178"/>
      <point x="211" y="355"/>
      <point x="211" y="533" type="curve"/>
      <point x="187" y="533"/>
      <point x="211" y="533"/>
      <point x="187" y="533" type="curve"/>
      <point x="187" y="355"/>
      <point x="187" y="178"/>
      <point x="187" y="0" type="curve"/>
      <point x="211" y="0"/>
      <point x="187" y="0"/>
    </contour>
    <contour>
      <point x="199" y="533" type="curve"/>
      <point x="145" y="533"/>
      <point x="91" y="533"/>
      <point x="36" y="533" type="curve"/>
      <point x="36" y="511"/>
      <point x="36" y="533"/>
      <point x="36" y="511" type="curve"/>
      <point x="200" y="511"/>
      <point x="35" y="511"/>
      <point x="199" y="511" type="curve"/>
      <point x="199" y="533"/>
      <point x="199" y="511"/>
    </contour>
  </outline>
</glyph>
<glyph name="p" format="1">
  <advance width="798"/>
  <unicode hex="0070"/>
  <outline>
    <contour>
      <point x="178" y="-278" type="curve"/>
      <point x="5" y="-278"/>
      <point x="179" y="-278"/>
      <point x="6" y="-278" type="curve"/>
      <point x="6" y="-299"/>
      <point x="6" y="-278"/>
      <point x="6" y="-299" type="curve"/>
      <point x="65" y="-299"/>
      <point x="121" y="-299"/>
      <point x="178" y="-299" type="curve"/>
      <point x="178" y="-278"/>
      <point x="178" y="-299"/>
    </contour>
    <contour>
      <point x="178" y="-300" type="curve"/>
      <point x="233" y="-300"/>
      <point x="285" y="-300"/>
      <point x="338" y="-300" type="curve"/>
      <point x="338" y="-278"/>
      <point x="338" y="-300"/>
      <point x="338" y="-278" type="curve"/>
      <point x="177" y="-279"/>
      <point x="339" y="-278"/>
      <point x="178" y="-279" type="curve"/>
      <point x="178" y="-300"/>
      <point x="178" y="-279"/>
    </contour>
    <contour>
      <point x="180" y="533" type="curve"/>
      <point x="122" y="533"/>
      <point x="66" y="533"/>
      <point x="8" y="533" type="curve"/>
      <point x="8" y="511"/>
      <point x="8" y="533"/>
      <point x="8" y="511" type="curve"/>
      <point x="181" y="512"/>
      <point x="7" y="511"/>
      <point x="180" y="512" type="curve"/>
      <point x="180" y="533"/>
      <point x="180" y="512"/>
    </contour>
    <contour>
      <point x="184" y="421" type="curve"/>
      <point x="237" y="474"/>
      <point x="339" y="516"/>
      <point x="450" y="516" type="curve"/>
      <point x="603" y="516"/>
      <point x="707" y="424"/>
      <point x="707" y="276" type="curve"/>
      <point x="711" y="119"/>
      <point x="607" y="15"/>
      <point x="451" y="17" type="curve"/>
      <point x="345" y="17"/>
      <point x="269" y="55"/>
      <point x="186" y="122" type="curve"/>
      <point x="171" y="111"/>
      <point x="186" y="122"/>
      <point x="171" y="111" type="curve"/>
      <point x="256" y="36"/>
      <point x="338" y="-5"/>
      <point x="451" y="-5" type="curve"/>
      <point x="621" y="-5"/>
      <point x="731" y="108"/>
      <point x="730" y="277" type="curve"/>
      <point x="730" y="438"/>
      <point x="616" y="538"/>
      <point x="451" y="538" type="curve"/>
      <point x="335" y="538"/>
      <point x="230" y="493"/>
      <point x="172" y="436" type="curve"/>
      <point x="185" y="422"/>
      <point x="172" y="436"/>
    </contour>
    <contour>
      <point x="191" y="-300" type="curve"/>
      <point x="191" y="-22"/>
      <point x="191" y="255"/>
      <point x="191" y="533" type="curve"/>
      <point x="167" y="533"/>
      <point x="191" y="533"/>
      <point x="167" y="533" type="curve"/>
      <point x="167" y="255"/>
      <point x="167" y="-22"/>
      <point x="167" y="-300" type="curve"/>
      <point x="191" y="-300"/>
      <point x="167" y="-300"/>
    </contour>
  </outline>
</glyph>
<glyph name="r" format="1">
  <advance width="552"/>
  <unicode hex="0072"/>
  <outline>
    <contour>
      <point x="205" y="671" type="move" name="top"/>
    </contour>
    <contour>
      <point x="234" y="-5" type="move" name="bottom"/>
    </contour>
    <contour>
      <point x="200" y="0" type="curve"/>
      <point x="251" y="0"/>
      <point x="300" y="0"/>
      <point x="351" y="0" type="curve"/>
      <point x="351" y="22"/>
      <point x="351" y="0"/>
      <point x="351" y="22" type="curve"/>
      <point x="199" y="22"/>
      <point x="352" y="22"/>
      <point x="200" y="22" type="curve"/>
      <point x="200" y="0"/>
      <point x="200" y="22"/>
    </contour>
    <contour>
      <point x="200" y="22" type="curve"/>
      <point x="36" y="22"/>
      <point x="201" y="22"/>
      <point x="37" y="22" type="curve"/>
      <point x="37" y="0"/>
      <point x="37" y="22"/>
      <point x="37" y="0" type="curve"/>
      <point x="91" y="0"/>
      <point x="146" y="0"/>
      <point x="200" y="0" type="curve"/>
      <point x="200" y="22"/>
      <point x="200" y="0"/>
    </contour>
    <contour>
      <point x="199" y="533" type="curve"/>
      <point x="144" y="533"/>
      <point x="90" y="533"/>
      <point x="36" y="533" type="curve"/>
      <point x="36" y="511"/>
      <point x="36" y="533"/>
      <point x="36" y="511" type="curve"/>
      <point x="200" y="511"/>
      <point x="35" y="511"/>
      <point x="199" y="511" type="curve"/>
      <point x="199" y="533"/>
      <point x="199" y="511"/>
    </contour>
    <contour>
      <point x="212" y="0" type="curve"/>
      <point x="212" y="178"/>
      <point x="212" y="355"/>
      <point x="212" y="533" type="curve"/>
      <point x="188" y="533"/>
      <point x="212" y="533"/>
      <point x="188" y="533" type="curve"/>
      <point x="188" y="355"/>
      <point x="188" y="178"/>
      <point x="188" y="0" type="curve"/>
      <point x="212" y="0"/>
      <point x="188" y="0"/>
    </contour>
    <contour>
      <point x="206" y="354" type="curve"/>
      <point x="272" y="478"/>
      <point x="392" y="516"/>
      <point x="520" y="516" type="curve"/>
      <point x="520" y="539"/>
      <point x="520" y="516"/>
      <point x="520" y="538" type="curve"/>
      <point x="386" y="538"/>
      <point x="250" y="490"/>
      <point x="199" y="376" type="curve"/>
      <point x="212" y="359"/>
      <point x="193" y="371"/>
    </contour>
  </outline>
</glyph>
<glyph name="v" format="1">
  <advance width="854"/>
  <unicode hex="0076"/>
  <outline>
    <contour>
      <point x="164" y="533" type="curve"/>
      <point x="110" y="533"/>
      <point x="55" y="533"/>
      <point x="1" y="533" type="curve"/>
      <point x="1" y="511"/>
      <point x="1" y="533"/>
      <point x="1" y="511" type="curve"/>
      <point x="165" y="511"/>
      <point x="0" y="511"/>
      <point x="164" y="511" type="curve"/>
      <point x="164" y="533"/>
      <point x="164" y="511"/>
    </contour>
    <contour>
      <point x="164" y="511" type="curve"/>
      <point x="326" y="511"/>
      <point x="164" y="511"/>
      <point x="325" y="511" type="curve"/>
      <point x="325" y="533"/>
      <point x="325" y="511"/>
      <point x="325" y="533" type="curve"/>
      <point x="271" y="533"/>
      <point x="219" y="533"/>
      <point x="164" y="533" type="curve"/>
      <point x="164" y="511"/>
      <point x="164" y="533"/>
    </contour>
    <contour>
      <point x="690" y="533" type="curve"/>
      <point x="636" y="533"/>
      <point x="583" y="533"/>
      <point x="529" y="533" type="curve"/>
      <point x="529" y="511"/>
      <point x="529" y="533"/>
      <point x="529" y="511" type="curve"/>
      <point x="691" y="511"/>
      <point x="528" y="511"/>
      <point x="690" y="511" type="curve"/>
      <point x="690" y="533"/>
      <point x="690" y="511"/>
    </contour>
    <contour>
      <point x="690" y="511" type="curve"/>
      <point x="853" y="511"/>
      <point x="689" y="511"/>
      <point x="852" y="511" type="curve"/>
      <point x="852" y="533"/>
      <point x="852" y="511"/>
      <point x="852" y="533" type="curve"/>
      <point x="798" y="533"/>
      <point x="745" y="533"/>
      <point x="690" y="533" type="curve"/>
      <point x="690" y="511"/>
      <point x="690" y="533"/>
    </contour>
    <contour>
      <point x="139" y="533" type="curve"/>
      <point x="228" y="355"/>
      <point x="317" y="178"/>
      <point x="406" y="0" type="curve"/>
      <point x="430" y="0"/>
      <point x="406" y="0"/>
      <point x="430" y="0" type="curve"/>
      <point x="342" y="178"/>
      <point x="254" y="355"/>
      <point x="166" y="533" type="curve"/>
      <point x="139" y="533"/>
      <point x="166" y="533"/>
    </contour>
    <contour>
      <point x="691" y="533" type="curve"/>
      <point x="411" y="0" type="line"/>
      <point x="436" y="0"/>
      <point x="411" y="0"/>
      <point x="436" y="0" type="curve"/>
      <point x="530" y="178"/>
      <point x="623" y="355"/>
      <point x="716" y="533" type="curve"/>
      <point x="691" y="533"/>
      <point x="716" y="533"/>
    </contour>
  </outline>
</glyph>
<glyph name="w" format="1">
  <advance width="1274"/>
  <unicode hex="0077"/>
  <outline>
    <contour>
      <point x="1109" y="511" type="curve"/>
      <point x="1273" y="511"/>
      <point x="1108" y="511"/>
      <point x="1272" y="511" type="curve"/>
      <point x="1272" y="533"/>
      <point x="1272" y="511"/>
      <point x="1272" y="533" type="curve"/>
      <point x="1217" y="533"/>
      <point x="1163" y="533"/>
      <point x="1109" y="533" type="curve"/>
      <point x="1109" y="511"/>
      <point x="1109" y="533"/>
    </contour>
    <contour>
      <point x="1109" y="533" type="curve"/>
      <point x="1054" y="533"/>
      <point x="1002" y="533"/>
      <point x="947" y="533" type="curve"/>
      <point x="947" y="511"/>
      <point x="947" y="533"/>
      <point x="947" y="511" type="curve"/>
      <point x="1111" y="511"/>
      <point x="945" y="511"/>
      <point x="1109" y="511" type="curve"/>
      <point x="1109" y="533"/>
      <point x="1109" y="511"/>
    </contour>
    <contour>
      <point x="164" y="533" type="curve"/>
      <point x="110" y="533"/>
      <point x="55" y="533"/>
      <point x="1" y="533" type="curve"/>
      <point x="1" y="511"/>
      <point x="1" y="533"/>
      <point x="1" y="511" type="curve"/>
      <point x="165" y="511"/>
      <point x="0" y="511"/>
      <point x="164" y="511" type="curve"/>
      <point x="164" y="533"/>
      <point x="164" y="511"/>
    </contour>
    <contour>
      <point x="164" y="511" type="curve"/>
      <point x="328" y="511"/>
      <point x="163" y="511"/>
      <point x="327" y="511" type="curve"/>
      <point x="327" y="533"/>
      <point x="327" y="511"/>
      <point x="327" y="533" type="curve"/>
      <point x="272" y="533"/>
      <point x="219" y="533"/>
      <point x="164" y="533" type="curve"/>
      <point x="164" y="511"/>
      <point x="164" y="533"/>
    </contour>
    <contour>
      <point x="393" y="0" type="curve"/>
      <point x="481" y="178"/>
      <point x="568" y="355"/>
      <point x="654" y="533" type="curve"/>
      <point x="628" y="533"/>
      <point x="654" y="533"/>
      <point x="628" y="533" type="curve"/>
      <point x="543" y="355"/>
      <point x="456" y="178"/>
      <point x="370" y="0" type="curve"/>
      <point x="393" y="0"/>
      <point x="370" y="0"/>
    </contour>
    <contour>
      <point x="1113" y="533" type="curve"/>
      <point x="1032" y="355"/>
      <point x="952" y="178"/>
      <point x="872" y="0" type="curve"/>
      <point x="895" y="0"/>
      <point x="872" y="0"/>
      <point x="895" y="0" type="curve"/>
      <point x="976" y="178"/>
      <point x="1057" y="355"/>
      <point x="1139" y="533" type="curve"/>
      <point x="1113" y="533"/>
      <point x="1139" y="533"/>
    </contour>
    <contour>
      <point x="636" y="533" type="curve"/>
      <point x="714" y="355"/>
      <point x="792" y="178"/>
      <point x="870" y="0" type="curve"/>
      <point x="893" y="0"/>
      <point x="870" y="0"/>
      <point x="893" y="0" type="curve"/>
      <point x="816" y="178"/>
      <point x="738" y="355"/>
      <point x="661" y="533" type="curve"/>
      <point x="636" y="533"/>
      <point x="661" y="533"/>
    </contour>
    <contour>
      <point x="135" y="533" type="curve"/>
      <point x="213" y="355"/>
      <point x="291" y="178"/>
      <point x="369" y="0" type="curve"/>
      <point x="392" y="0"/>
      <point x="369" y="0"/>
      <point x="392" y="0" type="curve"/>
      <point x="315" y="178"/>
      <point x="238" y="355"/>
      <point x="161" y="533" type="curve"/>
      <point x="135" y="533"/>
      <point x="161" y="533"/>
    </contour>
  </outline>
</glyph>
<glyph name="asciitilde" format="1">
  <advance width="818"/>
  <unicode hex="007E"/>
  <outline>
    <contour>
      <point x="706" y="344" type="curve"/>
      <point x="681" y="290"/>
      <point x="642" y="241"/>
      <point x="570" y="241" type="curve"/>
      <point x="509" y="241"/>
      <point x="466" y="256"/>
      <point x="415" y="290" type="curve"/>
      <point x="363" y="325"/>
      <point x="322" y="345"/>
      <point x="261" y="345" type="curve"/>
      <point x="168" y="345"/>
      <point x="120" y="306"/>
      <point x="93" y="227" type="curve"/>
      <point x="112" y="219"/>
      <point x="93" y="227"/>
      <point x="112" y="219" type="curve"/>
      <point x="134" y="284"/>
      <point x="179" y="324"/>
      <point x="259" y="324" type="curve"/>
      <point x="313" y="324"/>
      <point x="350" y="310"/>
      <point x="394" y="279" type="curve"/>
      <point x="453" y="241"/>
      <point x="498" y="221"/>
      <point x="568" y="220" type="curve"/>
      <point x="654" y="220"/>
      <point x="696" y="268"/>
      <point x="726" y="337" type="curve"/>
      <point x="706" y="344"/>
      <point x="726" y="337"/>
    </contour>
  </outline>
</glyph>
<glyph name="yen" format="1">
  <advance width="1041"/>
  <unicode hex="00A5"/>
  <outline>
    <contour>
      <point x="803" y="371" type="curve"/>
      <point x="712" y="371"/>
      <point x="622" y="371"/>
      <point x="531" y="371" type="curve"/>
      <point x="531" y="348"/>
      <point x="531" y="371"/>
      <point x="531" y="348" type="curve"/>
      <point x="622" y="348"/>
      <point x="712" y="348"/>
      <point x="803" y="348" type="curve"/>
      <point x="803" y="371"/>
      <point x="803" y="348"/>
    </contour>
    <contour>
      <point x="494" y="371" type="curve"/>
      <point x="406" y="371"/>
      <point x="316" y="371"/>
      <point x="228" y="371" type="curve"/>
      <point x="228" y="348"/>
      <point x="228" y="371"/>
      <point x="228" y="348" type="curve"/>
      <point x="316" y="348"/>
      <point x="406" y="348"/>
      <point x="494" y="348" type="curve"/>
      <point x="494" y="371"/>
      <point x="494" y="348"/>
    </contour>
    <contour>
      <point x="803" y="252" type="curve"/>
      <point x="611" y="252"/>
      <point x="419" y="252"/>
      <point x="228" y="252" type="curve"/>
      <point x="228" y="229"/>
      <point x="228" y="252"/>
      <point x="228" y="229" type="curve"/>
      <point x="419" y="229"/>
      <point x="611" y="229"/>
      <point x="803" y="229" type="curve"/>
      <point x="803" y="252"/>
      <point x="803" y="229"/>
    </contour>
    <contour>
      <point x="513" y="22" type="curve"/>
      <point x="321" y="22"/>
      <point x="514" y="22"/>
      <point x="322" y="22" type="curve"/>
      <point x="322" y="1"/>
      <point x="322" y="22"/>
      <point x="322" y="1" type="curve"/>
      <point x="386" y="1"/>
      <point x="449" y="1"/>
      <point x="513" y="1" type="curve"/>
      <point x="513" y="22"/>
      <point x="513" y="1"/>
    </contour>
    <contour>
      <point x="513" y="0" type="curve"/>
      <point x="576" y="0"/>
      <point x="640" y="0"/>
      <point x="703" y="0" type="curve"/>
      <point x="703" y="22"/>
      <point x="703" y="0"/>
      <point x="703" y="22" type="curve"/>
      <point x="512" y="21"/>
      <point x="704" y="22"/>
      <point x="513" y="21" type="curve"/>
      <point x="513" y="0"/>
      <point x="513" y="21"/>
    </contour>
    <contour>
      <point x="816" y="722" type="curve"/>
      <point x="752" y="722"/>
      <point x="689" y="722"/>
      <point x="626" y="722" type="curve"/>
      <point x="626" y="701"/>
      <point x="626" y="722"/>
      <point x="626" y="701" type="curve"/>
      <point x="817" y="701"/>
      <point x="625" y="701"/>
      <point x="816" y="701" type="curve"/>
      <point x="816" y="722"/>
      <point x="816" y="701"/>
    </contour>
    <contour>
      <point x="226" y="722" type="curve"/>
      <point x="163" y="722"/>
      <point x="99" y="722"/>
      <point x="36" y="722" type="curve"/>
      <point x="36" y="701"/>
      <point x="36" y="722"/>
      <point x="36" y="701" type="curve"/>
      <point x="227" y="701"/>
      <point x="35" y="701"/>
      <point x="226" y="701" type="curve"/>
      <point x="226" y="722"/>
      <point x="226" y="701"/>
    </contour>
    <contour>
      <point x="226" y="701" type="curve"/>
      <point x="417" y="701"/>
      <point x="225" y="701"/>
      <point x="416" y="701" type="curve"/>
      <point x="416" y="722"/>
      <point x="416" y="701"/>
      <point x="416" y="722" type="curve"/>
      <point x="353" y="722"/>
      <point x="290" y="722"/>
      <point x="226" y="722" type="curve"/>
      <point x="226" y="701"/>
      <point x="226" y="722"/>
    </contour>
    <contour>
      <point x="816" y="701" type="curve"/>
      <point x="1007" y="701"/>
      <point x="815" y="701"/>
      <point x="1007" y="701" type="curve"/>
      <point x="1007" y="722"/>
      <point x="1007" y="701"/>
      <point x="1007" y="722" type="curve"/>
      <point x="942" y="722"/>
      <point x="880" y="722"/>
      <point x="816" y="722" type="curve"/>
      <point x="816" y="701"/>
      <point x="816" y="722"/>
    </contour>
    <contour>
      <point x="198" y="722" type="curve"/>
      <point x="299" y="593"/>
      <point x="400" y="464"/>
      <point x="501" y="335" type="curve"/>
      <point x="524" y="335"/>
      <point x="501" y="335"/>
      <point x="524" y="335" type="curve"/>
      <point x="424" y="464"/>
      <point x="323" y="593"/>
      <point x="223" y="722" type="curve"/>
      <point x="198" y="722"/>
      <point x="223" y="722"/>
    </contour>
    <contour>
      <point x="818" y="721" type="curve"/>
      <point x="712" y="592"/>
      <point x="606" y="464"/>
      <point x="501" y="335" type="curve"/>
      <point x="524" y="335"/>
      <point x="501" y="335"/>
      <point x="524" y="335" type="curve"/>
      <point x="630" y="464"/>
      <point x="737" y="593"/>
      <point x="844" y="721" type="curve"/>
      <point x="818" y="721"/>
      <point x="844" y="721"/>
    </contour>
    <contour>
      <point x="524" y="0" type="curve"/>
      <point x="524" y="112"/>
      <point x="524" y="224"/>
      <point x="524" y="336" type="curve"/>
      <point x="501" y="336"/>
      <point x="524" y="336"/>
      <point x="501" y="336" type="curve"/>
      <point x="501" y="224"/>
      <point x="501" y="112"/>
      <point x="501" y="0" type="curve"/>
      <point x="524" y="0"/>
      <point x="501" y="0"/>
    </contour>
  </outline>
</glyph>
<glyph name="macron" format="1">
  <advance width="424"/>
  <unicode hex="00AF"/>
  <outline>
    <contour>
      <point x="172" y="659" type="move" name="_top"/>
    </contour>
    <contour>
      <point x="312" y="680" type="curve"/>
      <point x="215" y="680"/>
      <point x="119" y="680"/>
      <point x="23" y="680" type="curve"/>
      <point x="23" y="659"/>
      <point x="23" y="680"/>
      <point x="23" y="659" type="curve"/>
      <point x="119" y="659"/>
      <point x="215" y="659"/>
      <point x="312" y="659" type="curve"/>
      <point x="312" y="680"/>
      <point x="312" y="659"/>
    </contour>
  </outline>
</glyph>
<glyph name="degree" format="1">
  <advance width="564"/>
  <unicode hex="00B0"/>
  <outline>
    <contour>
      <point x="488" y="431" type="curve"/>
      <point x="488" y="558"/>
      <point x="408" y="637"/>
      <point x="280" y="637" type="curve"/>
      <point x="153" y="637"/>
      <point x="75" y="558"/>
      <point x="75" y="433" type="curve"/>
      <point x="97" y="433"/>
      <point x="75" y="433"/>
      <point x="97" y="433" type="curve"/>
      <point x="97" y="545"/>
      <point x="165" y="617"/>
      <point x="278" y="617" type="curve"/>
      <point x="393" y="617"/>
      <point x="466" y="545"/>
      <point x="466" y="431" type="curve"/>
      <point x="466" y="314"/>
      <point x="397" y="238"/>
      <point x="281" y="238" type="curve"/>
      <point x="165" y="238"/>
      <point x="97" y="316"/>
      <point x="97" y="433" type="curve"/>
      <point x="75" y="433"/>
      <point x="97" y="433"/>
      <point x="75" y="433" type="curve"/>
      <point x="75" y="303"/>
      <point x="151" y="217"/>
      <point x="280" y="217" type="curve"/>
      <point x="410" y="217"/>
      <point x="488" y="301"/>
    </contour>
  </outline>
</glyph>
<glyph name="Igrave" format="1">
  <advance width="429"/>
  <unicode hex="00CC"/>
  <outline>
    <contour>
      <point x="225" y="722" type="curve"/>
      <point x="169" y="722"/>
      <point x="116" y="722"/>
      <point x="62" y="722" type="curve"/>
      <point x="62" y="700"/>
      <point x="62" y="722"/>
      <point x="62" y="700" type="curve"/>
      <point x="227" y="700"/>
      <point x="60" y="700"/>
      <point x="225" y="700" type="curve"/>
      <point x="225" y="722"/>
      <point x="225" y="700"/>
    </contour>
    <contour>
      <point x="225" y="700" type="curve"/>
      <point x="390" y="700"/>
      <point x="223" y="700"/>
      <point x="388" y="700" type="curve"/>
      <point x="388" y="722"/>
      <point x="388" y="700"/>
      <point x="388" y="722" type="curve"/>
      <point x="333" y="722"/>
      <point x="280" y="722"/>
      <point x="225" y="722" type="curve"/>
      <point x="225" y="700"/>
      <point x="225" y="722"/>
    </contour>
    <contour>
      <point x="225" y="0" type="curve"/>
      <point x="280" y="0"/>
      <point x="333" y="0"/>
      <point x="388" y="0" type="curve"/>
      <point x="388" y="22"/>
      <point x="388" y="0"/>
      <point x="388" y="22" type="curve"/>
      <point x="223" y="22"/>
      <point x="390" y="22"/>
      <point x="225" y="22" type="curve"/>
      <point x="225" y="0"/>
      <point x="225" y="22"/>
    </contour>
    <contour>
      <point x="225" y="22" type="curve"/>
      <point x="60" y="22"/>
      <point x="227" y="22"/>
      <point x="62" y="22" type="curve"/>
      <point x="62" y="0"/>
      <point x="62" y="22"/>
      <point x="62" y="0" type="curve"/>
      <point x="116" y="0"/>
      <point x="169" y="0"/>
      <point x="225" y="0" type="curve"/>
      <point x="225" y="22"/>
      <point x="225" y="0"/>
    </contour>
    <contour>
      <point x="235" y="0" type="curve"/>
      <point x="235" y="241"/>
      <point x="235" y="481"/>
      <point x="235" y="722" type="curve"/>
      <point x="211" y="722"/>
      <point x="235" y="722"/>
      <point x="211" y="722" type="curve"/>
      <point x="211" y="481"/>
      <point x="211" y="241"/>
      <point x="211" y="0" type="curve"/>
      <point x="235" y="0"/>
      <point x="211" y="0"/>
    </contour>
    <contour>
      <point x="242" y="825" type="line"/>
      <point x="66" y="991" type="line"/>
      <point x="27" y="991" type="line"/>
      <point x="212" y="825" type="line"/>
    </contour>
  </outline>
</glyph>
<glyph name="Odieresis" format="1">
  <advance width="908"/>
  <unicode hex="00D6"/>
  <outline>
    <contour>
      <point x="94" y="360" type="curve"/>
      <point x="94" y="573"/>
      <point x="235" y="705"/>
      <point x="452" y="705" type="curve"/>
      <point x="669" y="705"/>
      <point x="812" y="575"/>
      <point x="812" y="363" type="curve"/>
      <point x="812" y="151"/>
      <point x="671" y="18"/>
      <point x="455" y="18" type="curve"/>
      <point x="237" y="18"/>
      <point x="94" y="147"/>
      <point x="94" y="360" type="curve"/>
      <point x="70" y="360"/>
      <point x="94" y="360"/>
      <point x="70" y="360" type="curve"/>
      <point x="70" y="132"/>
      <point x="223" y="-5"/>
      <point x="454" y="-5" type="curve"/>
      <point x="685" y="-5"/>
      <point x="837" y="134"/>
      <point x="837" y="363" type="curve"/>
      <point x="837" y="590"/>
      <point x="684" y="727"/>
      <point x="453" y="727" type="curve"/>
      <point x="221" y="727"/>
      <point x="70" y="588"/>
      <point x="70" y="360" type="curve"/>
      <point x="94" y="360"/>
      <point x="70" y="360"/>
    </contour>
    <contour>
      <point x="393" y="843" type="curve"/>
      <point x="393" y="854"/>
      <point x="385" y="861"/>
      <point x="373" y="861" type="curve"/>
      <point x="362" y="861"/>
      <point x="355" y="854"/>
      <point x="355" y="843" type="curve"/>
      <point x="371" y="843"/>
      <point x="377" y="843"/>
      <point x="393" y="843" type="curve"/>
      <point x="393" y="832"/>
      <point x="385" y="825"/>
      <point x="373" y="825" type="curve"/>
      <point x="362" y="825"/>
      <point x="355" y="832"/>
      <point x="355" y="843" type="curve"/>
      <point x="371" y="843"/>
      <point x="377" y="843"/>
    </contour>
    <contour>
      <point x="547" y="843" type="curve"/>
      <point x="547" y="854"/>
      <point x="539" y="861"/>
      <point x="527" y="861" type="curve"/>
      <point x="516" y="861"/>
      <point x="509" y="854"/>
      <point x="509" y="843" type="curve"/>
      <point x="525" y="843"/>
      <point x="531" y="843"/>
      <point x="547" y="843" type="curve"/>
      <point x="547" y="832"/>
      <point x="539" y="825"/>
      <point x="527" y="825" type="curve"/>
      <point x="516" y="825"/>
      <point x="509" y="832"/>
      <point x="509" y="843" type="curve"/>
      <point x="525" y="843"/>
      <point x="531" y="843"/>
    </contour>
  </outline>
</glyph>
<glyph name="Udieresis" format="1">
  <advance width="1023"/>
  <unicode hex="00DC"/>
  <outline>
    <contour>
      <point x="833" y="700" type="curve"/>
      <point x="997" y="700"/>
      <point x="832" y="700"/>
      <point x="996" y="700" type="curve"/>
      <point x="996" y="722"/>
      <point x="996" y="700"/>
      <point x="996" y="722" type="curve"/>
      <point x="942" y="722"/>
      <point x="887" y="722"/>
      <point x="833" y="722" type="curve"/>
      <point x="833" y="700"/>
      <point x="833" y="722"/>
    </contour>
    <contour>
      <point x="833" y="722" type="curve"/>
      <point x="777" y="722"/>
      <point x="724" y="722"/>
      <point x="669" y="722" type="curve"/>
      <point x="669" y="700"/>
      <point x="669" y="722"/>
      <point x="669" y="700" type="curve"/>
      <point x="834" y="700"/>
      <point x="669" y="700"/>
      <point x="833" y="700" type="curve"/>
      <point x="833" y="722"/>
      <point x="833" y="700"/>
    </contour>
    <contour>
      <point x="190" y="722" type="curve"/>
      <point x="135" y="722"/>
      <point x="81" y="722"/>
      <point x="27" y="722" type="curve"/>
      <point x="27" y="700"/>
      <point x="27" y="722"/>
      <point x="27" y="700" type="curve"/>
      <point x="191" y="700"/>
      <point x="26" y="700"/>
      <point x="190" y="700" type="curve"/>
      <point x="190" y="722"/>
      <point x="190" y="700"/>
    </contour>
    <contour>
      <point x="190" y="700" type="curve"/>
      <point x="354" y="700"/>
      <point x="189" y="700"/>
      <point x="354" y="700" type="curve"/>
      <point x="354" y="722"/>
      <point x="354" y="700"/>
      <point x="354" y="722" type="curve"/>
      <point x="299" y="722"/>
      <point x="245" y="722"/>
      <point x="190" y="722" type="curve"/>
      <point x="190" y="700"/>
      <point x="190" y="722"/>
    </contour>
    <contour>
      <point x="175" y="721" type="curve"/>
      <point x="175" y="543"/>
      <point x="175" y="449"/>
      <point x="175" y="271" type="curve"/>
      <point x="175" y="72"/>
      <point x="300" y="-5"/>
      <point x="513" y="-5" type="curve"/>
      <point x="722" y="-5"/>
      <point x="845" y="69"/>
      <point x="845" y="263" type="curve"/>
      <point x="845" y="444"/>
      <point x="845" y="540"/>
      <point x="845" y="721" type="curve"/>
      <point x="834" y="721"/>
      <point x="832" y="721"/>
      <point x="822" y="721" type="curve"/>
      <point x="822" y="538"/>
      <point x="822" y="442"/>
      <point x="822" y="259" type="curve"/>
      <point x="822" y="87"/>
      <point x="706" y="19"/>
      <point x="515" y="19" type="curve"/>
      <point x="315" y="19"/>
      <point x="198" y="89"/>
      <point x="198" y="275" type="curve"/>
      <point x="198" y="451"/>
      <point x="198" y="545"/>
      <point x="198" y="721" type="curve"/>
      <point x="188" y="721"/>
      <point x="186" y="721"/>
    </contour>
    <contour>
      <point x="458" y="843" type="curve"/>
      <point x="458" y="854"/>
      <point x="450" y="861"/>
      <point x="439" y="861" type="curve"/>
      <point x="428" y="861"/>
      <point x="421" y="854"/>
      <point x="421" y="843" type="curve"/>
      <point x="437" y="843"/>
      <point x="442" y="843"/>
      <point x="458" y="843" type="curve"/>
      <point x="458" y="832"/>
      <point x="450" y="825"/>
      <point x="439" y="825" type="curve"/>
      <point x="428" y="825"/>
      <point x="421" y="832"/>
      <point x="421" y="843" type="curve"/>
      <point x="437" y="843"/>
      <point x="442" y="843"/>
    </contour>
    <contour>
      <point x="613" y="843" type="curve"/>
      <point x="613" y="854"/>
      <point x="605" y="861"/>
      <point x="593" y="861" type="curve"/>
      <point x="582" y="861"/>
      <point x="575" y="854"/>
      <point x="575" y="843" type="curve"/>
      <point x="591" y="843"/>
      <point x="596" y="843"/>
      <point x="613" y="843" type="curve"/>
      <point x="613" y="832"/>
      <point x="605" y="825"/>
      <point x="593" y="825" type="curve"/>
      <point x="582" y="825"/>
      <point x="575" y="832"/>
      <point x="575" y="843" type="curve"/>
      <point x="591" y="843"/>
      <point x="596" y="843"/>
    </contour>
  </outline>
</glyph>
<glyph name="igrave" format="1">
  <advance width="368"/>
  <unicode hex="00EC"/>
  <outline>
    <contour>
      <point x="208" y="22" type="curve"/>
      <point x="44" y="22"/>
      <point x="209" y="22"/>
      <point x="45" y="22" type="curve"/>
      <point x="45" y="0"/>
      <point x="45" y="22"/>
      <point x="45" y="0" type="curve"/>
      <point x="100" y="0"/>
      <point x="154" y="0"/>
      <point x="208" y="0" type="curve"/>
      <point x="208" y="22"/>
      <point x="208" y="0"/>
    </contour>
    <contour>
      <point x="208" y="0" type="curve"/>
      <point x="259" y="0"/>
      <point x="308" y="0"/>
      <point x="359" y="0" type="curve"/>
      <point x="359" y="22"/>
      <point x="359" y="0"/>
      <point x="359" y="22" type="curve"/>
      <point x="207" y="22"/>
      <point x="360" y="22"/>
      <point x="208" y="22" type="curve"/>
      <point x="208" y="0"/>
      <point x="208" y="22"/>
    </contour>
    <contour>
      <point x="208" y="533" type="curve"/>
      <point x="154" y="533"/>
      <point x="100" y="533"/>
      <point x="45" y="533" type="curve"/>
      <point x="45" y="511"/>
      <point x="45" y="533"/>
      <point x="45" y="511" type="curve"/>
      <point x="209" y="511"/>
      <point x="44" y="511"/>
      <point x="208" y="511" type="curve"/>
      <point x="208" y="533"/>
      <point x="208" y="511"/>
    </contour>
    <contour>
      <point x="222" y="0" type="curve"/>
      <point x="222" y="178"/>
      <point x="222" y="355"/>
      <point x="222" y="533" type="curve"/>
      <point x="196" y="533"/>
      <point x="222" y="533"/>
      <point x="196" y="533" type="curve"/>
      <point x="196" y="355"/>
      <point x="196" y="178"/>
      <point x="196" y="0" type="curve"/>
      <point x="222" y="0"/>
      <point x="196" y="0"/>
    </contour>
    <contour>
      <point x="224" y="671" type="line"/>
      <point x="48" y="837" type="line"/>
      <point x="9" y="837" type="line"/>
      <point x="194" y="671" type="line"/>
    </contour>
  </outline>
</glyph>
<glyph name="iacute" format="1">
  <advance width="372"/>
  <unicode hex="00ED"/>
  <outline>
    <contour>
      <point x="199" y="22" type="curve"/>
      <point x="35" y="22"/>
      <point x="200" y="22"/>
      <point x="36" y="22" type="curve"/>
      <point x="36" y="0"/>
      <point x="36" y="22"/>
      <point x="36" y="0" type="curve"/>
      <point x="91" y="0"/>
      <point x="145" y="0"/>
      <point x="199" y="0" type="curve"/>
      <point x="199" y="22"/>
      <point x="199" y="0"/>
    </contour>
    <contour>
      <point x="199" y="0" type="curve"/>
      <point x="250" y="0"/>
      <point x="299" y="0"/>
      <point x="350" y="0" type="curve"/>
      <point x="350" y="22"/>
      <point x="350" y="0"/>
      <point x="350" y="22" type="curve"/>
      <point x="198" y="22"/>
      <point x="351" y="22"/>
      <point x="199" y="22" type="curve"/>
      <point x="199" y="0"/>
      <point x="199" y="22"/>
    </contour>
    <contour>
      <point x="199" y="533" type="curve"/>
      <point x="145" y="533"/>
      <point x="91" y="533"/>
      <point x="36" y="533" type="curve"/>
      <point x="36" y="511"/>
      <point x="36" y="533"/>
      <point x="36" y="511" type="curve"/>
      <point x="200" y="511"/>
      <point x="35" y="511"/>
      <point x="199" y="511" type="curve"/>
      <point x="199" y="533"/>
      <point x="199" y="511"/>
    </contour>
    <contour>
      <point x="213" y="0" type="curve"/>
      <point x="213" y="178"/>
      <point x="213" y="355"/>
      <point x="213" y="533" type="curve"/>
      <point x="187" y="533"/>
      <point x="213" y="533"/>
      <point x="187" y="533" type="curve"/>
      <point x="187" y="355"/>
      <point x="187" y="178"/>
      <point x="187" y="0" type="curve"/>
      <point x="213" y="0"/>
      <point x="187" y="0"/>
    </contour>
    <contour>
      <point x="212" y="671" type="line"/>
      <point x="397" y="837" type="line"/>
      <point x="358" y="837" type="line"/>
      <point x="182" y="671" type="line"/>
    </contour>
  </outline>
</glyph>
<glyph name="ntilde" format="1">
  <advance width="843"/>
  <unicode hex="00F1"/>
  <outline>
    <contour>
      <point x="206" y="353" type="curve"/>
      <point x="253" y="456"/>
      <point x="357" y="516"/>
      <point x="468" y="516" type="curve"/>
      <point x="589" y="516"/>
      <point x="665" y="459"/>
      <point x="665" y="341" type="curve"/>
      <point x="665" y="228"/>
      <point x="665" y="114"/>
      <point x="665" y="0" type="curve"/>
      <point x="690" y="0"/>
      <point x="665" y="0"/>
      <point x="690" y="0" type="curve"/>
      <point x="690" y="115"/>
      <point x="690" y="229"/>
      <point x="690" y="344" type="curve"/>
      <point x="690" y="475"/>
      <point x="607" y="538"/>
      <point x="472" y="538" type="curve"/>
      <point x="352" y="538"/>
      <point x="236" y="479"/>
      <point x="194" y="364" type="curve"/>
      <point x="206" y="353"/>
      <point x="194" y="364"/>
    </contour>
    <contour>
      <point x="676" y="0" type="curve"/>
      <point x="730" y="0"/>
      <point x="785" y="0"/>
      <point x="839" y="0" type="curve"/>
      <point x="839" y="22"/>
      <point x="839" y="0"/>
      <point x="839" y="22" type="curve"/>
      <point x="675" y="22"/>
      <point x="840" y="22"/>
      <point x="676" y="22" type="curve"/>
      <point x="676" y="0"/>
      <point x="676" y="22"/>
    </contour>
    <contour>
      <point x="199" y="22" type="curve"/>
      <point x="35" y="22"/>
      <point x="200" y="22"/>
      <point x="36" y="22" type="curve"/>
      <point x="36" y="0"/>
      <point x="36" y="22"/>
      <point x="36" y="0" type="curve"/>
      <point x="91" y="0"/>
      <point x="145" y="0"/>
      <point x="199" y="0" type="curve"/>
      <point x="199" y="22"/>
      <point x="199" y="0"/>
    </contour>
    <contour>
      <point x="199" y="0" type="curve"/>
      <point x="249" y="0"/>
      <point x="198" y="0"/>
      <point x="348" y="0" type="curve"/>
      <point x="348" y="22"/>
      <point x="348" y="0"/>
      <point x="348" y="22" type="curve"/>
      <point x="198" y="22"/>
      <point x="350" y="22"/>
      <point x="199" y="22" type="curve"/>
      <point x="199" y="0"/>
      <point x="199" y="22"/>
    </contour>
    <contour>
      <point x="211" y="0" type="curve"/>
      <point x="211" y="178"/>
      <point x="211" y="355"/>
      <point x="211" y="533" type="curve"/>
      <point x="187" y="533"/>
      <point x="211" y="533"/>
      <point x="187" y="533" type="curve"/>
      <point x="187" y="355"/>
      <point x="187" y="178"/>
      <point x="187" y="0" type="curve"/>
      <point x="211" y="0"/>
      <point x="187" y="0"/>
    </contour>
    <contour>
      <point x="199" y="533" type="curve"/>
      <point x="145" y="533"/>
      <point x="91" y="533"/>
      <point x="36" y="533" type="curve"/>
      <point x="36" y="511"/>
      <point x="36" y="533"/>
      <point x="36" y="511" type="curve"/>
      <point x="200" y="511"/>
      <point x="35" y="511"/>
      <point x="199" y="511" type="curve"/>
      <point x="199" y="533"/>
      <point x="199" y="511"/>
    </contour>
    <contour>
      <point x="660" y="792" type="curve"/>
      <point x="642" y="736"/>
      <point x="619" y="689"/>
      <point x="563" y="689" type="curve"/>
      <point x="515" y="689"/>
      <point x="483" y="706"/>
      <point x="448" y="738" type="curve"/>
      <point x="410" y="772"/>
      <point x="379" y="793"/>
      <point x="329" y="793" type="curve"/>
      <point x="258" y="793"/>
      <point x="219" y="746"/>
      <point x="201" y="674" type="curve"/>
      <point x="220" y="668"/>
      <point x="201" y="674"/>
      <point x="220" y="668" type="curve"/>
      <point x="237" y="730"/>
      <point x="268" y="772"/>
      <point x="329" y="772" type="curve"/>
      <point x="372" y="772"/>
      <point x="398" y="754"/>
      <point x="430" y="724" type="curve"/>
      <point x="471" y="689"/>
      <point x="507" y="668"/>
      <point x="561" y="668" type="curve"/>
      <point x="629" y="668"/>
      <point x="658" y="721"/>
      <point x="680" y="788" type="curve"/>
      <point x="660" y="792"/>
      <point x="680" y="788"/>
    </contour>
  </outline>
</glyph>
<glyph name="aogonek" format="1">
  <advance width="675"/>
  <unicode hex="0105"/>
  <outline>
    <contour>
      <point x="77" y="464" type="curve"/>
      <point x="77" y="344"/>
      <point x="77" y="465"/>
      <point x="77" y="345" type="curve"/>
      <point x="99" y="345"/>
      <point x="77" y="345"/>
      <point x="99" y="345" type="curve"/>
      <point x="99" y="465"/>
      <point x="99" y="344"/>
      <point x="99" y="464" type="curve"/>
      <point x="77" y="464"/>
      <point x="99" y="464"/>
    </contour>
    <contour>
      <point x="533" y="0" type="curve"/>
      <point x="533" y="130"/>
      <point x="533" y="260"/>
      <point x="533" y="390" type="curve"/>
      <point x="533" y="510"/>
      <point x="448" y="538"/>
      <point x="321" y="538" type="curve"/>
      <point x="217" y="538"/>
      <point x="139" y="507"/>
      <point x="77" y="464" type="curve"/>
      <point x="86" y="446"/>
      <point x="77" y="464"/>
      <point x="86" y="446" type="curve"/>
      <point x="146" y="484"/>
      <point x="219" y="516"/>
      <point x="318" y="516" type="curve"/>
      <point x="433" y="516"/>
      <point x="508" y="493"/>
      <point x="508" y="383" type="curve"/>
      <point x="508" y="255"/>
      <point x="508" y="128"/>
      <point x="508" y="0" type="curve"/>
      <point x="533" y="0"/>
      <point x="508" y="0"/>
    </contour>
    <contour>
      <point x="523" y="0" type="curve"/>
      <point x="573" y="0"/>
      <point x="623" y="0"/>
      <point x="674" y="0" type="curve"/>
      <point x="674" y="22"/>
      <point x="674" y="0"/>
      <point x="674" y="22" type="curve"/>
      <point x="522" y="22"/>
      <point x="675" y="22"/>
      <point x="523" y="22" type="curve"/>
      <point x="523" y="0"/>
      <point x="523" y="22"/>
    </contour>
    <contour>
      <point x="519" y="320" type="curve"/>
      <point x="420" y="309"/>
      <point x="361" y="304"/>
      <point x="261" y="293" type="curve"/>
      <point x="150" y="281"/>
      <point x="67" y="251"/>
      <point x="67" y="140" type="curve"/>
      <point x="67" y="41"/>
      <point x="140" y="-5"/>
      <point x="255" y="-5" type="curve"/>
      <point x="381" y="-5"/>
      <point x="445" y="56"/>
      <point x="526" y="149" type="curve"/>
      <point x="512" y="163"/>
      <point x="528" y="151"/>
      <point x="514" y="165" type="curve"/>
      <point x="441" y="84"/>
      <point x="376" y="17"/>
      <point x="260" y="17" type="curve"/>
      <point x="156" y="17"/>
      <point x="91" y="55"/>
      <point x="91" y="142" type="curve"/>
      <point x="91" y="239"/>
      <point x="164" y="263"/>
      <point x="260" y="273" type="curve"/>
      <point x="361" y="284"/>
      <point x="420" y="290"/>
      <point x="520" y="301" type="curve"/>
      <point x="519" y="320"/>
      <point x="520" y="301"/>
    </contour>
    <contour>
      <point x="523" y="15" type="curve"/>
      <point x="453" y="-11"/>
      <point x="387" y="-27"/>
      <point x="387" y="-99" type="curve"/>
      <point x="387" y="-160"/>
      <point x="433" y="-194"/>
      <point x="498" y="-194" type="curve"/>
      <point x="536" y="-194"/>
      <point x="561" y="-183"/>
      <point x="596" y="-166" type="curve"/>
      <point x="586" y="-151"/>
      <point x="595" y="-165"/>
      <point x="585" y="-150" type="curve"/>
      <point x="555" y="-165"/>
      <point x="532" y="-173"/>
      <point x="500" y="-173" type="curve"/>
      <point x="447" y="-173"/>
      <point x="409" y="-148"/>
      <point x="409" y="-99" type="curve"/>
      <point x="409" y="-35"/>
      <point x="470" y="-25"/>
      <point x="532" y="1" type="curve"/>
      <point x="524" y="14"/>
      <point x="531" y="2"/>
    </contour>
  </outline>
</glyph>
<glyph name="Edotaccent" format="1">
  <advance width="805"/>
  <unicode hex="0116"/>
  <outline>
    <contour>
      <point x="754" y="11" type="curve"/>
      <point x="754" y="131"/>
      <point x="754" y="10"/>
      <point x="754" y="130" type="curve"/>
      <point x="733" y="130"/>
      <point x="754" y="130"/>
      <point x="733" y="130" type="curve"/>
      <point x="733" y="10"/>
      <point x="733" y="131"/>
      <point x="733" y="11" type="curve"/>
      <point x="754" y="11"/>
      <point x="733" y="11"/>
    </contour>
    <contour>
      <point x="690" y="711" type="curve"/>
      <point x="690" y="591"/>
      <point x="690" y="712"/>
      <point x="690" y="592" type="curve"/>
      <point x="712" y="592"/>
      <point x="690" y="592"/>
      <point x="712" y="592" type="curve"/>
      <point x="712" y="712"/>
      <point x="712" y="591"/>
      <point x="712" y="711" type="curve"/>
      <point x="690" y="711"/>
      <point x="712" y="711"/>
    </contour>
    <contour>
      <point x="205" y="22" type="curve"/>
      <point x="40" y="22"/>
      <point x="207" y="22"/>
      <point x="42" y="22" type="curve"/>
      <point x="42" y="0"/>
      <point x="42" y="22"/>
      <point x="42" y="0" type="curve"/>
      <point x="97" y="0"/>
      <point x="149" y="0"/>
      <point x="205" y="0" type="curve"/>
      <point x="205" y="22"/>
      <point x="205" y="0"/>
    </contour>
    <contour>
      <point x="205" y="722" type="curve"/>
      <point x="149" y="722"/>
      <point x="97" y="722"/>
      <point x="42" y="722" type="curve"/>
      <point x="42" y="700"/>
      <point x="42" y="722"/>
      <point x="42" y="700" type="curve"/>
      <point x="207" y="700"/>
      <point x="40" y="700"/>
      <point x="205" y="700" type="curve"/>
      <point x="205" y="722"/>
      <point x="205" y="700"/>
    </contour>
    <contour>
      <point x="209" y="363" type="curve"/>
      <point x="349" y="363"/>
      <point x="490" y="363"/>
      <point x="631" y="363" type="curve"/>
      <point x="631" y="385"/>
      <point x="631" y="363"/>
      <point x="631" y="385" type="curve"/>
      <point x="490" y="385"/>
      <point x="349" y="385"/>
      <point x="209" y="385" type="curve"/>
      <point x="209" y="363"/>
      <point x="209" y="385"/>
    </contour>
    <contour>
      <point x="189" y="700" type="curve"/>
      <point x="363" y="700"/>
      <point x="537" y="700"/>
      <point x="712" y="700" type="curve"/>
      <point x="712" y="722"/>
      <point x="712" y="700"/>
      <point x="712" y="722" type="curve"/>
      <point x="537" y="722"/>
      <point x="363" y="722"/>
      <point x="189" y="722" type="curve"/>
      <point x="189" y="700"/>
      <point x="189" y="722"/>
    </contour>
    <contour>
      <point x="215" y="0" type="curve"/>
      <point x="215" y="722" type="line"/>
      <point x="191" y="722"/>
      <point x="215" y="722"/>
      <point x="191" y="722" type="curve"/>
      <point x="191" y="481"/>
      <point x="191" y="241"/>
      <point x="191" y="0" type="curve"/>
      <point x="215" y="0"/>
      <point x="191" y="0"/>
    </contour>
    <contour>
      <point x="189" y="0" type="curve"/>
      <point x="378" y="0"/>
      <point x="566" y="0"/>
      <point x="754" y="0" type="curve"/>
      <point x="754" y="22"/>
      <point x="754" y="0"/>
      <point x="754" y="22" type="curve"/>
      <point x="566" y="22"/>
      <point x="378" y="22"/>
      <point x="189" y="22" type="curve"/>
      <point x="189" y="0"/>
      <point x="189" y="22"/>
    </contour>
    <contour>
      <point x="442" y="843" type="curve"/>
      <point x="442" y="854"/>
      <point x="434" y="861"/>
      <point x="422" y="861" type="curve"/>
      <point x="411" y="861"/>
      <point x="404" y="854"/>
      <point x="404" y="843" type="curve"/>
      <point x="420" y="843"/>
      <point x="426" y="843"/>
      <point x="442" y="843" type="curve"/>
      <point x="442" y="832"/>
      <point x="434" y="825"/>
      <point x="422" y="825" type="curve"/>
      <point x="411" y="825"/>
      <point x="404" y="832"/>
      <point x="404" y="843" type="curve"/>
      <point x="420" y="843"/>
      <point x="426" y="843"/>
    </contour>
  </outline>
</glyph>
<glyph name="gbreve" format="1">
  <advance width="666"/>
  <unicode hex="011F"/>
  <outline>
    <contour>
      <point x="456" y="500" type="curve"/>
      <point x="644" y="576" type="line"/>
      <point x="643" y="578"/>
      <point x="633" y="595"/>
      <point x="631" y="597" type="curve"/>
      <point x="443" y="517" type="line"/>
      <point x="456" y="500"/>
      <point x="443" y="517"/>
    </contour>
    <contour>
      <point x="127" y="358" type="curve"/>
      <point x="127" y="464"/>
      <point x="222" y="517"/>
      <point x="341" y="517" type="curve"/>
      <point x="457" y="517"/>
      <point x="548" y="467"/>
      <point x="548" y="361" type="curve"/>
      <point x="548" y="259"/>
      <point x="455" y="210"/>
      <point x="338" y="210" type="curve"/>
      <point x="223" y="210"/>
      <point x="127" y="255"/>
      <point x="127" y="358" type="curve"/>
      <point x="102" y="357"/>
      <point x="127" y="358"/>
      <point x="102" y="357" type="curve"/>
      <point x="102" y="241"/>
      <point x="207" y="189"/>
      <point x="336" y="189" type="curve"/>
      <point x="467" y="189"/>
      <point x="572" y="243"/>
      <point x="572" y="362" type="curve"/>
      <point x="572" y="481"/>
      <point x="470" y="538"/>
      <point x="341" y="538" type="curve"/>
      <point x="207" y="538"/>
      <point x="102" y="479"/>
      <point x="102" y="357" type="curve"/>
      <point x="127" y="358"/>
      <point x="102" y="357"/>
    </contour>
    <contour>
      <point x="205" y="227" type="curve"/>
      <point x="149" y="203"/>
      <point x="108" y="169"/>
      <point x="108" y="109" type="curve"/>
      <point x="108" y="7"/>
      <point x="217" y="-5"/>
      <point x="332" y="-13" type="curve"/>
      <point x="476" y="-23"/>
      <point x="621" y="-21"/>
      <point x="621" y="-144" type="curve"/>
      <point x="621" y="-262"/>
      <point x="482" y="-283"/>
      <point x="334" y="-283" type="curve"/>
      <point x="195" y="-283"/>
      <point x="70" y="-248"/>
      <point x="70" y="-134" type="curve"/>
      <point x="70" y="-56"/>
      <point x="132" y="-17"/>
      <point x="209" y="9" type="curve"/>
      <point x="197" y="22"/>
      <point x="209" y="9"/>
      <point x="197" y="22" type="curve"/>
      <point x="113" y="-5"/>
      <point x="46" y="-48"/>
      <point x="46" y="-135" type="curve"/>
      <point x="46" y="-268"/>
      <point x="180" y="-304"/>
      <point x="333" y="-304" type="curve"/>
      <point x="495" y="-304"/>
      <point x="646" y="-283"/>
      <point x="643" y="-142" type="curve"/>
      <point x="643" y="-4"/>
      <point x="491" y="-2"/>
      <point x="336" y="8" type="curve"/>
      <point x="232" y="13"/>
      <point x="132" y="20"/>
      <point x="132" y="112" type="curve"/>
      <point x="132" y="163"/>
      <point x="168" y="192"/>
      <point x="216" y="214" type="curve"/>
      <point x="205" y="227"/>
      <point x="216" y="214"/>
    </contour>
    <contour>
      <point x="496" y="794" type="curve"/>
      <point x="496" y="719"/>
      <point x="430" y="692"/>
      <point x="344" y="692" type="curve"/>
      <point x="263" y="692"/>
      <point x="200" y="722"/>
      <point x="200" y="795" type="curve"/>
      <point x="178" y="795"/>
      <point x="200" y="795"/>
      <point x="178" y="795" type="curve"/>
      <point x="178" y="708"/>
      <point x="247" y="671"/>
      <point x="342" y="671" type="curve"/>
      <point x="444" y="671"/>
      <point x="518" y="704"/>
      <point x="518" y="794" type="curve"/>
      <point x="496" y="794"/>
      <point x="518" y="794"/>
    </contour>
  </outline>
</glyph>
<glyph name="Gcommaaccent" format="1">
  <advance width="935"/>
  <unicode hex="0122"/>
  <outline>
    <contour>
      <point x="819" y="642" type="curve"/>
      <point x="819" y="522"/>
      <point x="819" y="643"/>
      <point x="819" y="523" type="curve"/>
      <point x="841" y="523"/>
      <point x="819" y="523"/>
      <point x="841" y="523" type="curve"/>
      <point x="841" y="643"/>
      <point x="841" y="522"/>
      <point x="841" y="642" type="curve"/>
      <point x="819" y="642"/>
      <point x="841" y="642"/>
    </contour>
    <contour>
      <point x="854" y="319" type="curve"/>
      <point x="759" y="319"/>
      <point x="665" y="319"/>
      <point x="571" y="319" type="curve"/>
      <point x="571" y="297"/>
      <point x="571" y="319"/>
      <point x="571" y="297" type="curve"/>
      <point x="665" y="297"/>
      <point x="759" y="297"/>
      <point x="854" y="297" type="curve"/>
      <point x="854" y="319"/>
      <point x="854" y="297"/>
    </contour>
    <contour>
      <point x="862" y="77" type="curve"/>
      <point x="862" y="158"/>
      <point x="862" y="238"/>
      <point x="862" y="319" type="curve"/>
      <point x="840" y="319"/>
      <point x="862" y="319"/>
      <point x="840" y="319" type="curve"/>
      <point x="840" y="238"/>
      <point x="840" y="158"/>
      <point x="840" y="77" type="curve"/>
      <point x="862" y="77"/>
      <point x="840" y="77"/>
    </contour>
    <contour>
      <point x="841" y="642" type="curve"/>
      <point x="723" y="702"/>
      <point x="619" y="727"/>
      <point x="487" y="727" type="curve"/>
      <point x="235" y="727"/>
      <point x="68" y="607"/>
      <point x="68" y="365" type="curve"/>
      <point x="68" y="116"/>
      <point x="242" y="-5"/>
      <point x="501" y="-5" type="curve"/>
      <point x="643" y="-5"/>
      <point x="734" y="20"/>
      <point x="862" y="77" type="curve"/>
      <point x="850" y="93"/>
      <point x="862" y="77"/>
      <point x="850" y="93" type="curve"/>
      <point x="730" y="40"/>
      <point x="636" y="20"/>
      <point x="502" y="20" type="curve"/>
      <point x="257" y="20"/>
      <point x="92" y="133"/>
      <point x="92" y="367" type="curve"/>
      <point x="92" y="591"/>
      <point x="252" y="704"/>
      <point x="488" y="704" type="curve"/>
      <point x="615" y="704"/>
      <point x="715" y="680"/>
      <point x="829" y="624" type="curve"/>
      <point x="841" y="642"/>
      <point x="829" y="624"/>
    </contour>
    <contour>
      <point x="425" y="-238" type="line"/>
      <point x="456" y="-212"/>
      <point x="484" y="-178"/>
      <point x="484" y="-124" type="curve"/>
      <point x="484" y="-103"/>
      <point x="480" y="-85"/>
      <point x="461" y="-85" type="curve"/>
      <point x="448" y="-85"/>
      <point x="441" y="-91"/>
      <point x="441" y="-103" type="curve"/>
      <point x="441" y="-113"/>
      <point x="445" y="-119"/>
      <point x="456" y="-124" type="curve"/>
      <point x="456" y="-150"/>
      <point x="444" y="-192"/>
      <point x="410" y="-219" type="curve"/>
    </contour>
  </outline>
</glyph>
<glyph name="imacron" format="1">
  <advance width="359"/>
  <unicode hex="012B"/>
  <outline>
    <contour>
      <point x="199" y="22" type="curve"/>
      <point x="35" y="22"/>
      <point x="200" y="22"/>
      <point x="36" y="22" type="curve"/>
      <point x="36" y="0"/>
      <point x="36" y="22"/>
      <point x="36" y="0" type="curve"/>
      <point x="91" y="0"/>
      <point x="145" y="0"/>
      <point x="199" y="0" type="curve"/>
      <point x="199" y="22"/>
      <point x="199" y="0"/>
    </contour>
    <contour>
      <point x="199" y="0" type="curve"/>
      <point x="250" y="0"/>
      <point x="299" y="0"/>
      <point x="350" y="0" type="curve"/>
      <point x="350" y="22"/>
      <point x="350" y="0"/>
      <point x="350" y="22" type="curve"/>
      <point x="198" y="22"/>
      <point x="351" y="22"/>
      <point x="199" y="22" type="curve"/>
      <point x="199" y="0"/>
      <point x="199" y="22"/>
    </contour>
    <contour>
      <point x="199" y="533" type="curve"/>
      <point x="145" y="533"/>
      <point x="91" y="533"/>
      <point x="36" y="533" type="curve"/>
      <point x="36" y="511"/>
      <point x="36" y="533"/>
      <point x="36" y="511" type="curve"/>
      <point x="200" y="511"/>
      <point x="35" y="511"/>
      <point x="199" y="511" type="curve"/>
      <point x="199" y="533"/>
      <point x="199" y="511"/>
    </contour>
    <contour>
      <point x="213" y="0" type="curve"/>
      <point x="213" y="178"/>
      <point x="213" y="355"/>
      <point x="213" y="533" type="curve"/>
      <point x="187" y="533"/>
      <point x="213" y="533"/>
      <point x="187" y="533" type="curve"/>
      <point x="187" y="355"/>
      <point x="187" y="178"/>
      <point x="187" y="0" type="curve"/>
      <point x="213" y="0"/>
      <point x="187" y="0"/>
    </contour>
    <contour>
      <point x="337" y="692" type="curve"/>
      <point x="240" y="692"/>
      <point x="144" y="692"/>
      <point x="48" y="692" type="curve"/>
      <point x="48" y="671"/>
      <point x="48" y="692"/>
      <point x="48" y="671" type="curve"/>
      <point x="144" y="671"/>
      <point x="240" y="671"/>
      <point x="337" y="671" type="curve"/>
      <point x="337" y="692"/>
      <point x="337" y="671"/>
    </contour>
  </outline>
</glyph>
<glyph name="Kcommaaccent" format="1">
  <advance width="882"/>
  <unicode hex="0136"/>
  <outline>
    <contour>
      <point x="683" y="722" type="curve"/>
      <point x="628" y="722"/>
      <point x="577" y="722"/>
      <point x="522" y="722" type="curve"/>
      <point x="522" y="700"/>
      <point x="522" y="722"/>
      <point x="522" y="700" type="curve"/>
      <point x="687" y="700"/>
      <point x="518" y="700"/>
      <point x="683" y="700" type="curve"/>
      <point x="683" y="722"/>
      <point x="683" y="700"/>
    </contour>
    <contour>
      <point x="717" y="0" type="curve"/>
      <point x="770" y="0"/>
      <point x="818" y="0"/>
      <point x="871" y="0" type="curve"/>
      <point x="871" y="22"/>
      <point x="871" y="0"/>
      <point x="871" y="22" type="curve"/>
      <point x="714" y="22"/>
      <point x="874" y="22"/>
      <point x="717" y="22" type="curve"/>
      <point x="717" y="0"/>
      <point x="717" y="22"/>
    </contour>
    <contour>
      <point x="683" y="700" type="curve"/>
      <point x="840" y="700"/>
      <point x="680" y="700"/>
      <point x="837" y="700" type="curve"/>
      <point x="837" y="722"/>
      <point x="837" y="700"/>
      <point x="837" y="722" type="curve"/>
      <point x="784" y="722"/>
      <point x="736" y="722"/>
      <point x="683" y="722" type="curve"/>
      <point x="683" y="700"/>
      <point x="683" y="722"/>
    </contour>
    <contour>
      <point x="205" y="722" type="curve"/>
      <point x="150" y="722"/>
      <point x="98" y="722"/>
      <point x="42" y="722" type="curve"/>
      <point x="42" y="700"/>
      <point x="42" y="722"/>
      <point x="42" y="700" type="curve"/>
      <point x="207" y="700"/>
      <point x="40" y="700"/>
      <point x="205" y="700" type="curve"/>
      <point x="205" y="722"/>
      <point x="205" y="700"/>
    </contour>
    <contour>
      <point x="205" y="700" type="curve"/>
      <point x="371" y="700"/>
      <point x="202" y="700"/>
      <point x="368" y="700" type="curve"/>
      <point x="368" y="722"/>
      <point x="368" y="700"/>
      <point x="368" y="722" type="curve"/>
      <point x="313" y="722"/>
      <point x="261" y="722"/>
      <point x="205" y="722" type="curve"/>
      <point x="205" y="700"/>
      <point x="205" y="722"/>
    </contour>
    <contour>
      <point x="205" y="0" type="curve"/>
      <point x="261" y="0"/>
      <point x="202" y="0"/>
      <point x="368" y="0" type="curve"/>
      <point x="368" y="22"/>
      <point x="368" y="0"/>
      <point x="368" y="22" type="curve"/>
      <point x="202" y="22"/>
      <point x="371" y="22"/>
      <point x="205" y="22" type="curve"/>
      <point x="205" y="0"/>
      <point x="205" y="22"/>
    </contour>
    <contour>
      <point x="205" y="22" type="curve"/>
      <point x="40" y="22"/>
      <point x="207" y="22"/>
      <point x="42" y="22" type="curve"/>
      <point x="42" y="0"/>
      <point x="42" y="22"/>
      <point x="42" y="0" type="curve"/>
      <point x="98" y="0"/>
      <point x="150" y="0"/>
      <point x="205" y="0" type="curve"/>
      <point x="205" y="22"/>
      <point x="205" y="0"/>
    </contour>
    <contour>
      <point x="686" y="722" type="curve"/>
      <point x="205" y="380" type="line"/>
      <point x="242" y="380"/>
      <point x="208" y="380"/>
      <point x="246" y="380" type="curve"/>
      <point x="727" y="722" type="line"/>
      <point x="689" y="722"/>
      <point x="724" y="722"/>
    </contour>
    <contour>
      <point x="218" y="0" type="curve"/>
      <point x="218" y="722" type="line"/>
      <point x="193" y="722"/>
      <point x="218" y="722"/>
      <point x="193" y="722" type="curve"/>
      <point x="193" y="481"/>
      <point x="193" y="241"/>
      <point x="193" y="0" type="curve"/>
      <point x="218" y="0"/>
      <point x="193" y="0"/>
    </contour>
    <contour>
      <point x="760" y="0" type="curve"/>
      <point x="246" y="380" type="line"/>
      <point x="208" y="380"/>
      <point x="242" y="380"/>
      <point x="205" y="380" type="curve"/>
      <point x="716" y="0" type="line"/>
      <point x="757" y="0"/>
      <point x="719" y="0"/>
    </contour>
    <contour>
      <point x="413" y="-241" type="line"/>
      <point x="444" y="-215"/>
      <point x="472" y="-181"/>
      <point x="472" y="-127" type="curve"/>
      <point x="472" y="-106"/>
      <point x="469" y="-88"/>
      <point x="450" y="-88" type="curve"/>
      <point x="437" y="-88"/>
      <point x="430" y="-94"/>
      <point x="430" y="-106" type="curve"/>
      <point x="430" y="-116"/>
      <point x="434" y="-122"/>
      <point x="445" y="-127" type="curve"/>
      <point x="445" y="-152"/>
      <point x="432" y="-194"/>
      <point x="398" y="-222" type="curve"/>
    </contour>
  </outline>
</glyph>
<glyph name="lacute" format="1">
  <advance width="352"/>
  <unicode hex="013A"/>
  <outline>
    <contour>
      <point x="172" y="22" type="curve"/>
      <point x="8" y="22"/>
      <point x="172" y="22"/>
      <point x="8" y="22" type="curve"/>
      <point x="8" y="0"/>
      <point x="8" y="22"/>
      <point x="8" y="0" type="curve"/>
      <point x="63" y="0"/>
      <point x="118" y="0"/>
      <point x="172" y="0" type="curve"/>
      <point x="172" y="22"/>
      <point x="172" y="0"/>
    </contour>
    <contour>
      <point x="175" y="800" type="curve"/>
      <point x="121" y="800"/>
      <point x="65" y="800"/>
      <point x="11" y="800" type="curve"/>
      <point x="11" y="778"/>
      <point x="11" y="800"/>
      <point x="11" y="778" type="curve"/>
      <point x="175" y="778"/>
      <point x="11" y="778"/>
      <point x="175" y="778" type="curve"/>
      <point x="175" y="800"/>
      <point x="175" y="778"/>
    </contour>
    <contour>
      <point x="172" y="0" type="curve"/>
      <point x="228" y="0"/>
      <point x="282" y="0"/>
      <point x="338" y="0" type="curve"/>
      <point x="338" y="22"/>
      <point x="338" y="0"/>
      <point x="338" y="22" type="curve"/>
      <point x="172" y="22"/>
      <point x="338" y="22"/>
      <point x="172" y="22" type="curve"/>
      <point x="172" y="0"/>
      <point x="172" y="22"/>
    </contour>
    <contour>
      <point x="183" y="0" type="curve"/>
      <point x="183" y="267"/>
      <point x="183" y="533"/>
      <point x="183" y="800" type="curve"/>
      <point x="159" y="800"/>
      <point x="183" y="800"/>
      <point x="159" y="800" type="curve"/>
      <point x="159" y="533"/>
      <point x="159" y="267"/>
      <point x="159" y="0" type="curve"/>
      <point x="183" y="0"/>
      <point x="159" y="0"/>
    </contour>
    <contour>
      <point x="187" y="913" type="line"/>
      <point x="372" y="1079" type="line"/>
      <point x="333" y="1079" type="line"/>
      <point x="157" y="913" type="line"/>
    </contour>
  </outline>
</glyph>
<glyph name="Lcommaaccent" format="1">
  <advance width="789"/>
  <unicode hex="013B"/>
  <outline>
    <contour>
      <point x="747" y="11" type="curve"/>
      <point x="747" y="131"/>
      <point x="747" y="10"/>
      <point x="747" y="130" type="curve"/>
      <point x="725" y="130"/>
      <point x="747" y="130"/>
      <point x="725" y="130" type="curve"/>
      <point x="725" y="10"/>
      <point x="725" y="131"/>
      <point x="725" y="11" type="curve"/>
      <point x="747" y="11"/>
      <point x="725" y="11"/>
    </contour>
    <contour>
      <point x="204" y="22" type="curve"/>
      <point x="39" y="22"/>
      <point x="206" y="22"/>
      <point x="41" y="22" type="curve"/>
      <point x="41" y="0"/>
      <point x="41" y="22"/>
      <point x="41" y="0" type="curve"/>
      <point x="96" y="0"/>
      <point x="149" y="0"/>
      <point x="204" y="0" type="curve"/>
      <point x="204" y="22"/>
      <point x="204" y="0"/>
    </contour>
    <contour>
      <point x="204" y="722" type="curve"/>
      <point x="149" y="722"/>
      <point x="96" y="722"/>
      <point x="41" y="722" type="curve"/>
      <point x="41" y="700"/>
      <point x="41" y="722"/>
      <point x="41" y="700" type="curve"/>
      <point x="206" y="700"/>
      <point x="39" y="700"/>
      <point x="204" y="700" type="curve"/>
      <point x="204" y="722"/>
      <point x="204" y="700"/>
    </contour>
    <contour>
      <point x="204" y="700" type="curve"/>
      <point x="369" y="700"/>
      <point x="202" y="700"/>
      <point x="367" y="700" type="curve"/>
      <point x="367" y="722"/>
      <point x="367" y="700"/>
      <point x="367" y="722" type="curve"/>
      <point x="313" y="722"/>
      <point x="259" y="722"/>
      <point x="204" y="722" type="curve"/>
      <point x="204" y="700"/>
      <point x="204" y="722"/>
    </contour>
    <contour>
      <point x="218" y="0" type="curve"/>
      <point x="218" y="241"/>
      <point x="218" y="481"/>
      <point x="218" y="722" type="curve"/>
      <point x="193" y="722"/>
      <point x="218" y="722"/>
      <point x="193" y="722" type="curve"/>
      <point x="193" y="481"/>
      <point x="193" y="241"/>
      <point x="193" y="0" type="curve"/>
      <point x="218" y="0"/>
      <point x="193" y="0"/>
    </contour>
    <contour>
      <point x="204" y="0" type="curve"/>
      <point x="385" y="0"/>
      <point x="566" y="0"/>
      <point x="747" y="0" type="curve"/>
      <point x="747" y="22"/>
      <point x="747" y="0"/>
      <point x="747" y="22" type="curve"/>
      <point x="566" y="22"/>
      <point x="385" y="22"/>
      <point x="204" y="22" type="curve"/>
      <point x="204" y="0"/>
      <point x="204" y="22"/>
    </contour>
    <contour>
      <point x="356" y="-234" type="line"/>
      <point x="388" y="-209"/>
      <point x="416" y="-174"/>
      <point x="416" y="-120" type="curve"/>
      <point x="416" y="-99"/>
      <point x="412" y="-81"/>
      <point x="393" y="-81" type="curve"/>
      <point x="380" y="-81"/>
      <point x="373" y="-87"/>
      <point x="373" y="-99" type="curve"/>
      <point x="373" y="-109"/>
      <point x="377" y="-115"/>
      <point x="388" y="-120" type="curve"/>
      <point x="388" y="-146"/>
      <point x="375" y="-188"/>
      <point x="341" y="-216" type="curve"/>
    </contour>
  </outline>
</glyph>
<glyph name="lcommaaccent" format="1">
  <advance width="345"/>
  <unicode hex="013C"/>
  <outline>
    <contour>
      <point x="172" y="22" type="curve"/>
      <point x="8" y="22"/>
      <point x="172" y="22"/>
      <point x="8" y="22" type="curve"/>
      <point x="8" y="0"/>
      <point x="8" y="22"/>
      <point x="8" y="0" type="curve"/>
      <point x="63" y="0"/>
      <point x="118" y="0"/>
      <point x="172" y="0" type="curve"/>
      <point x="172" y="22"/>
      <point x="172" y="0"/>
    </contour>
    <contour>
      <point x="175" y="800" type="curve"/>
      <point x="121" y="800"/>
      <point x="65" y="800"/>
      <point x="11" y="800" type="curve"/>
      <point x="11" y="778"/>
      <point x="11" y="800"/>
      <point x="11" y="778" type="curve"/>
      <point x="175" y="778"/>
      <point x="11" y="778"/>
      <point x="175" y="778" type="curve"/>
      <point x="175" y="800"/>
      <point x="175" y="778"/>
    </contour>
    <contour>
      <point x="172" y="0" type="curve"/>
      <point x="228" y="0"/>
      <point x="282" y="0"/>
      <point x="338" y="0" type="curve"/>
      <point x="338" y="22"/>
      <point x="338" y="0"/>
      <point x="338" y="22" type="curve"/>
      <point x="172" y="22"/>
      <point x="338" y="22"/>
      <point x="172" y="22" type="curve"/>
      <point x="172" y="0"/>
      <point x="172" y="22"/>
    </contour>
    <contour>
      <point x="183" y="0" type="curve"/>
      <point x="183" y="267"/>
      <point x="183" y="533"/>
      <point x="183" y="800" type="curve"/>
      <point x="159" y="800"/>
      <point x="183" y="800"/>
      <point x="159" y="800" type="curve"/>
      <point x="159" y="533"/>
      <point x="159" y="267"/>
      <point x="159" y="0" type="curve"/>
      <point x="183" y="0"/>
      <point x="159" y="0"/>
    </contour>
    <contour>
      <point x="96" y="-239" type="line"/>
      <point x="127" y="-213"/>
      <point x="155" y="-179"/>
      <point x="155" y="-125" type="curve"/>
      <point x="155" y="-104"/>
      <point x="151" y="-86"/>
      <point x="132" y="-86" type="curve"/>
      <point x="119" y="-86"/>
      <point x="112" y="-92"/>
      <point x="112" y="-104" type="curve"/>
      <point x="112" y="-114"/>
      <point x="116" y="-120"/>
      <point x="127" y="-125" type="curve"/>
      <point x="127" y="-150"/>
      <point x="114" y="-193"/>
      <point x="81" y="-220" type="curve"/>
    </contour>
  </outline>
</glyph>
<glyph name="Ncommaaccent" format="1">
  <advance width="1088"/>
  <unicode hex="0145"/>
  <outline>
    <contour>
      <point x="207" y="722" type="curve"/>
      <point x="152" y="722"/>
      <point x="99" y="722"/>
      <point x="44" y="722" type="curve"/>
      <point x="44" y="700"/>
      <point x="44" y="722"/>
      <point x="44" y="700" type="curve"/>
      <point x="209" y="700"/>
      <point x="42" y="700"/>
      <point x="207" y="700" type="curve"/>
      <point x="207" y="722"/>
      <point x="207" y="700"/>
    </contour>
    <contour>
      <point x="901" y="700" type="curve"/>
      <point x="1066" y="700"/>
      <point x="899" y="700"/>
      <point x="1064" y="700" type="curve"/>
      <point x="1064" y="722"/>
      <point x="1064" y="700"/>
      <point x="1064" y="722" type="curve"/>
      <point x="1009" y="722"/>
      <point x="956" y="722"/>
      <point x="901" y="722" type="curve"/>
      <point x="901" y="700"/>
      <point x="901" y="722"/>
    </contour>
    <contour>
      <point x="901" y="722" type="curve"/>
      <point x="846" y="722"/>
      <point x="792" y="722"/>
      <point x="738" y="722" type="curve"/>
      <point x="738" y="700"/>
      <point x="738" y="722"/>
      <point x="738" y="700" type="curve"/>
      <point x="903" y="700"/>
      <point x="736" y="700"/>
      <point x="901" y="700" type="curve"/>
      <point x="901" y="722"/>
      <point x="901" y="700"/>
    </contour>
    <contour>
      <point x="206" y="22" type="curve"/>
      <point x="41" y="22"/>
      <point x="208" y="22"/>
      <point x="43" y="22" type="curve"/>
      <point x="42" y="0"/>
      <point x="43" y="22"/>
      <point x="42" y="0" type="curve"/>
      <point x="98" y="0"/>
      <point x="150" y="0"/>
      <point x="206" y="0" type="curve"/>
      <point x="206" y="22"/>
      <point x="206" y="0"/>
    </contour>
    <contour>
      <point x="206" y="0" type="curve"/>
      <point x="261" y="0"/>
      <point x="204" y="0"/>
      <point x="369" y="0" type="curve"/>
      <point x="369" y="22"/>
      <point x="369" y="0"/>
      <point x="369" y="22" type="curve"/>
      <point x="204" y="22"/>
      <point x="371" y="22"/>
      <point x="206" y="22" type="curve"/>
      <point x="206" y="0"/>
      <point x="206" y="22"/>
    </contour>
    <contour>
      <point x="911" y="0" type="curve"/>
      <point x="682" y="241"/>
      <point x="452" y="481"/>
      <point x="224" y="722" type="curve"/>
      <point x="194" y="722"/>
      <point x="220" y="722"/>
      <point x="190" y="722" type="curve"/>
      <point x="420" y="481"/>
      <point x="649" y="241"/>
      <point x="879" y="0" type="curve"/>
      <point x="908" y="0"/>
      <point x="882" y="0"/>
    </contour>
    <contour>
      <point x="887" y="722" type="curve"/>
      <point x="887" y="481"/>
      <point x="887" y="241"/>
      <point x="887" y="0" type="curve"/>
      <point x="912" y="0"/>
      <point x="887" y="0"/>
      <point x="912" y="0" type="curve"/>
      <point x="912" y="241"/>
      <point x="912" y="481"/>
      <point x="912" y="722" type="curve"/>
      <point x="887" y="722"/>
      <point x="912" y="722"/>
    </contour>
    <contour>
      <point x="218" y="0" type="curve"/>
      <point x="218" y="241"/>
      <point x="218" y="481"/>
      <point x="218" y="722" type="curve"/>
      <point x="193" y="722"/>
      <point x="218" y="722"/>
      <point x="193" y="722" type="curve"/>
      <point x="193" y="481"/>
      <point x="193" y="241"/>
      <point x="193" y="0" type="curve"/>
      <point x="218" y="0"/>
      <point x="193" y="0"/>
    </contour>
    <contour>
      <point x="490" y="-237" type="line"/>
      <point x="521" y="-211"/>
      <point x="549" y="-177"/>
      <point x="549" y="-123" type="curve"/>
      <point x="549" y="-102"/>
      <point x="545" y="-84"/>
      <point x="527" y="-84" type="curve"/>
      <point x="514" y="-84"/>
      <point x="507" y="-90"/>
      <point x="507" y="-102" type="curve"/>
      <point x="507" y="-112"/>
      <point x="511" y="-118"/>
      <point x="522" y="-123" type="curve"/>
      <point x="522" y="-149"/>
      <point x="509" y="-191"/>
      <point x="475" y="-218" type="curve"/>
    </contour>
  </outline>
</glyph>
<glyph name="ncommaaccent" format="1">
  <advance width="843"/>
  <unicode hex="0146"/>
  <outline>
    <contour>
      <point x="206" y="353" type="curve"/>
      <point x="253" y="456"/>
      <point x="357" y="516"/>
      <point x="468" y="516" type="curve"/>
      <point x="589" y="516"/>
      <point x="665" y="459"/>
      <point x="665" y="341" type="curve"/>
      <point x="665" y="228"/>
      <point x="665" y="114"/>
      <point x="665" y="0" type="curve"/>
      <point x="690" y="0"/>
      <point x="665" y="0"/>
      <point x="690" y="0" type="curve"/>
      <point x="690" y="115"/>
      <point x="690" y="229"/>
      <point x="690" y="344" type="curve"/>
      <point x="690" y="475"/>
      <point x="607" y="538"/>
      <point x="472" y="538" type="curve"/>
      <point x="352" y="538"/>
      <point x="236" y="479"/>
      <point x="194" y="364" type="curve"/>
      <point x="206" y="353"/>
      <point x="194" y="364"/>
    </contour>
    <contour>
      <point x="676" y="0" type="curve"/>
      <point x="730" y="0"/>
      <point x="785" y="0"/>
      <point x="839" y="0" type="curve"/>
      <point x="839" y="22"/>
      <point x="839" y="0"/>
      <point x="839" y="22" type="curve"/>
      <point x="675" y="22"/>
      <point x="840" y="22"/>
      <point x="676" y="22" type="curve"/>
      <point x="676" y="0"/>
      <point x="676" y="22"/>
    </contour>
    <contour>
      <point x="199" y="22" type="curve"/>
      <point x="35" y="22"/>
      <point x="200" y="22"/>
      <point x="36" y="22" type="curve"/>
      <point x="36" y="0"/>
      <point x="36" y="22"/>
      <point x="36" y="0" type="curve"/>
      <point x="91" y="0"/>
      <point x="145" y="0"/>
      <point x="199" y="0" type="curve"/>
      <point x="199" y="22"/>
      <point x="199" y="0"/>
    </contour>
    <contour>
      <point x="199" y="0" type="curve"/>
      <point x="249" y="0"/>
      <point x="198" y="0"/>
      <point x="348" y="0" type="curve"/>
      <point x="348" y="22"/>
      <point x="348" y="0"/>
      <point x="348" y="22" type="curve"/>
      <point x="198" y="22"/>
      <point x="350" y="22"/>
      <point x="199" y="22" type="curve"/>
      <point x="199" y="0"/>
      <point x="199" y="22"/>
    </contour>
    <contour>
      <point x="211" y="0" type="curve"/>
      <point x="211" y="178"/>
      <point x="211" y="355"/>
      <point x="211" y="533" type="curve"/>
      <point x="187" y="533"/>
      <point x="211" y="533"/>
      <point x="187" y="533" type="curve"/>
      <point x="187" y="355"/>
      <point x="187" y="178"/>
      <point x="187" y="0" type="curve"/>
      <point x="211" y="0"/>
      <point x="187" y="0"/>
    </contour>
    <contour>
      <point x="199" y="533" type="curve"/>
      <point x="145" y="533"/>
      <point x="91" y="533"/>
      <point x="36" y="533" type="curve"/>
      <point x="36" y="511"/>
      <point x="36" y="533"/>
      <point x="36" y="511" type="curve"/>
      <point x="200" y="511"/>
      <point x="35" y="511"/>
      <point x="199" y="511" type="curve"/>
      <point x="199" y="533"/>
      <point x="199" y="511"/>
    </contour>
    <contour>
      <point x="398" y="-243" type="line"/>
      <point x="429" y="-218"/>
      <point x="457" y="-183"/>
      <point x="457" y="-129" type="curve"/>
      <point x="457" y="-108"/>
      <point x="453" y="-90"/>
      <point x="435" y="-90" type="curve"/>
      <point x="422" y="-90"/>
      <point x="415" y="-96"/>
      <point x="415" y="-108" type="curve"/>
      <point x="415" y="-118"/>
      <point x="419" y="-124"/>
      <point x="430" y="-129" type="curve"/>
      <point x="430" y="-155"/>
      <point x="417" y="-197"/>
      <point x="383" y="-225" type="curve"/>
    </contour>
  </outline>
</glyph>
<glyph name="Omacron" format="1">
  <advance width="908"/>
  <unicode hex="014C"/>
  <outline>
    <contour>
      <point x="94" y="360" type="curve"/>
      <point x="94" y="573"/>
      <point x="235" y="705"/>
      <point x="452" y="705" type="curve"/>
      <point x="669" y="705"/>
      <point x="812" y="575"/>
      <point x="812" y="363" type="curve"/>
      <point x="812" y="151"/>
      <point x="671" y="18"/>
      <point x="455" y="18" type="curve"/>
      <point x="237" y="18"/>
      <point x="94" y="147"/>
      <point x="94" y="360" type="curve"/>
      <point x="70" y="360"/>
      <point x="94" y="360"/>
      <point x="70" y="360" type="curve"/>
      <point x="70" y="132"/>
      <point x="223" y="-5"/>
      <point x="454" y="-5" type="curve"/>
      <point x="685" y="-5"/>
      <point x="837" y="134"/>
      <point x="837" y="363" type="curve"/>
      <point x="837" y="590"/>
      <point x="684" y="727"/>
      <point x="453" y="727" type="curve"/>
      <point x="221" y="727"/>
      <point x="70" y="588"/>
      <point x="70" y="360" type="curve"/>
      <point x="94" y="360"/>
      <point x="70" y="360"/>
    </contour>
    <contour>
      <point x="592" y="846" type="curve"/>
      <point x="495" y="846"/>
      <point x="399" y="846"/>
      <point x="303" y="846" type="curve"/>
      <point x="303" y="825"/>
      <point x="303" y="846"/>
      <point x="303" y="825" type="curve"/>
      <point x="399" y="825"/>
      <point x="495" y="825"/>
      <point x="592" y="825" type="curve"/>
      <point x="592" y="846"/>
      <point x="592" y="825"/>
    </contour>
  </outline>
</glyph>
<glyph name="omacron" format="1">
  <advance width="711"/>
  <unicode hex="014D"/>
  <outline>
    <contour>
      <point x="91" y="268" type="curve"/>
      <point x="91" y="428"/>
      <point x="192" y="517"/>
      <point x="351" y="517" type="curve"/>
      <point x="516" y="517"/>
      <point x="620" y="427"/>
      <point x="620" y="266" type="curve"/>
      <point x="620" y="107"/>
      <point x="517" y="17"/>
      <point x="356" y="17" type="curve"/>
      <point x="192" y="17"/>
      <point x="91" y="109"/>
      <point x="91" y="268" type="curve"/>
      <point x="67" y="268"/>
      <point x="91" y="268"/>
      <point x="67" y="268" type="curve"/>
      <point x="67" y="95"/>
      <point x="178" y="-5"/>
      <point x="355" y="-5" type="curve"/>
      <point x="533" y="-5"/>
      <point x="645" y="93"/>
      <point x="645" y="266" type="curve"/>
      <point x="645" y="440"/>
      <point x="531" y="538"/>
      <point x="352" y="538" type="curve"/>
      <point x="177" y="538"/>
      <point x="67" y="439"/>
      <point x="67" y="268" type="curve"/>
      <point x="91" y="268"/>
      <point x="67" y="268"/>
    </contour>
    <contour>
      <point x="491" y="692" type="curve"/>
      <point x="394" y="692"/>
      <point x="298" y="692"/>
      <point x="202" y="692" type="curve"/>
      <point x="202" y="671"/>
      <point x="202" y="692"/>
      <point x="202" y="671" type="curve"/>
      <point x="298" y="671"/>
      <point x="394" y="671"/>
      <point x="491" y="671" type="curve"/>
      <point x="491" y="692"/>
      <point x="491" y="671"/>
    </contour>
  </outline>
</glyph>
<glyph name="rcaron" format="1">
  <advance width="552"/>
  <unicode hex="0159"/>
  <outline>
    <contour>
      <point x="202" y="0" type="curve"/>
      <point x="252" y="0"/>
      <point x="302" y="0"/>
      <point x="352" y="0" type="curve"/>
      <point x="352" y="22"/>
      <point x="352" y="0"/>
      <point x="352" y="22" type="curve"/>
      <point x="201" y="22"/>
      <point x="353" y="22"/>
      <point x="202" y="22" type="curve"/>
      <point x="202" y="0"/>
      <point x="202" y="22"/>
    </contour>
    <contour>
      <point x="202" y="22" type="curve"/>
      <point x="37" y="22"/>
      <point x="202" y="22"/>
      <point x="38" y="22" type="curve"/>
      <point x="38" y="0"/>
      <point x="38" y="22"/>
      <point x="38" y="0" type="curve"/>
      <point x="93" y="0"/>
      <point x="147" y="0"/>
      <point x="202" y="0" type="curve"/>
      <point x="202" y="22"/>
      <point x="202" y="0"/>
    </contour>
    <contour>
      <point x="201" y="533" type="curve"/>
      <point x="145" y="533"/>
      <point x="92" y="533"/>
      <point x="37" y="533" type="curve"/>
      <point x="37" y="511"/>
      <point x="37" y="533"/>
      <point x="37" y="511" type="curve"/>
      <point x="202" y="511"/>
      <point x="36" y="511"/>
      <point x="201" y="511" type="curve"/>
      <point x="201" y="533"/>
      <point x="201" y="511"/>
    </contour>
    <contour>
      <point x="214" y="0" type="curve"/>
      <point x="214" y="178"/>
      <point x="214" y="355"/>
      <point x="214" y="533" type="curve"/>
      <point x="190" y="533"/>
      <point x="214" y="533"/>
      <point x="190" y="533" type="curve"/>
      <point x="190" y="355"/>
      <point x="190" y="178"/>
      <point x="190" y="0" type="curve"/>
      <point x="214" y="0"/>
      <point x="190" y="0"/>
    </contour>
    <contour>
      <point x="208" y="354" type="curve"/>
      <point x="274" y="478"/>
      <point x="394" y="516"/>
      <point x="521" y="516" type="curve"/>
      <point x="521" y="539"/>
      <point x="521" y="516"/>
      <point x="521" y="538" type="curve"/>
      <point x="388" y="538"/>
      <point x="252" y="490"/>
      <point x="200" y="376" type="curve"/>
      <point x="213" y="359"/>
      <point x="195" y="371"/>
    </contour>
    <contour>
      <point x="375" y="837" type="line"/>
      <point x="190" y="671" type="line"/>
      <point x="229" y="671" type="line"/>
      <point x="405" y="837" type="line"/>
    </contour>
    <contour>
      <point x="6" y="837" type="line"/>
      <point x="182" y="671" type="line"/>
      <point x="221" y="671" type="line"/>
      <point x="35" y="837" type="line"/>
    </contour>
  </outline>
</glyph>
<glyph name="scedilla" format="1">
  <advance width="571"/>
  <unicode hex="015F"/>
  <outline>
    <contour>
      <point x="67" y="51" type="curve"/>
      <point x="145" y="19"/>
      <point x="217" y="-5"/>
      <point x="299" y="-5" type="curve"/>
      <point x="418" y="-5"/>
      <point x="505" y="30"/>
      <point x="505" y="139" type="curve"/>
      <point x="504" y="249"/>
      <point x="403" y="259"/>
      <point x="290" y="287" type="curve" smooth="yes"/>
      <point x="197" y="310"/>
      <point x="119" y="332"/>
      <point x="119" y="415" type="curve"/>
      <point x="119" y="494"/>
      <point x="186" y="516"/>
      <point x="276" y="516" type="curve"/>
      <point x="340" y="516"/>
      <point x="414" y="495"/>
      <point x="458" y="471" type="curve"/>
      <point x="468" y="489"/>
      <point x="459" y="472"/>
      <point x="469" y="490" type="curve"/>
      <point x="422" y="515"/>
      <point x="344" y="538"/>
      <point x="277" y="538" type="curve"/>
      <point x="173" y="538"/>
      <point x="97" y="509"/>
      <point x="97" y="415" type="curve"/>
      <point x="97" y="316"/>
      <point x="179" y="292"/>
      <point x="282" y="266" type="curve" smooth="yes"/>
      <point x="384" y="239"/>
      <point x="482" y="235"/>
      <point x="482" y="139" type="curve"/>
      <point x="482" y="45"/>
      <point x="404" y="17"/>
      <point x="303" y="17" type="curve"/>
      <point x="223" y="17"/>
      <point x="155" y="41"/>
      <point x="78" y="72" type="curve"/>
      <point x="65" y="52"/>
      <point x="79" y="71"/>
    </contour>
    <contour>
      <point x="447" y="490" type="curve"/>
      <point x="447" y="370"/>
      <point x="447" y="491"/>
      <point x="447" y="371" type="curve"/>
      <point x="469" y="371"/>
      <point x="447" y="371"/>
      <point x="469" y="371" type="curve"/>
      <point x="469" y="491"/>
      <point x="469" y="370"/>
      <point x="469" y="490" type="curve"/>
      <point x="448" y="490"/>
      <point x="467" y="490"/>
    </contour>
    <contour>
      <point x="86" y="51" type="curve"/>
      <point x="86" y="171"/>
      <point x="86" y="50"/>
      <point x="86" y="170" type="curve"/>
      <point x="65" y="170"/>
      <point x="86" y="170"/>
      <point x="65" y="170" type="curve"/>
      <point x="65" y="50"/>
      <point x="65" y="171"/>
      <point x="65" y="51" type="curve"/>
      <point x="86" y="51"/>
      <point x="65" y="51"/>
    </contour>
    <contour>
      <point x="275" y="10" type="curve"/>
      <point x="256" y="-17"/>
      <point x="237" y="-43"/>
      <point x="218" y="-70" type="curve"/>
      <point x="234" y="-87"/>
      <point x="218" y="-70"/>
      <point x="234" y="-87" type="curve"/>
      <point x="253" y="-59"/>
      <point x="273" y="-32"/>
      <point x="292" y="-4" type="curve"/>
      <point x="275" y="10"/>
      <point x="292" y="-4"/>
    </contour>
    <contour>
      <point x="234" y="-88" type="curve"/>
      <point x="254" y="-77"/>
      <point x="271" y="-75"/>
      <point x="295" y="-75" type="curve"/>
      <point x="336" y="-75"/>
      <point x="366" y="-93"/>
      <point x="366" y="-132" type="curve"/>
      <point x="366" y="-175"/>
      <point x="327" y="-187"/>
      <point x="278" y="-187" type="curve"/>
      <point x="244" y="-187"/>
      <point x="218" y="-185"/>
      <point x="187" y="-170" type="curve"/>
      <point x="178" y="-187"/>
      <point x="187" y="-170"/>
      <point x="178" y="-187" type="curve"/>
      <point x="212" y="-202"/>
      <point x="240" y="-208"/>
      <point x="277" y="-208" type="curve"/>
      <point x="340" y="-208"/>
      <point x="389" y="-189"/>
      <point x="389" y="-132" type="curve"/>
      <point x="389" y="-81"/>
      <point x="350" y="-54"/>
      <point x="297" y="-54" type="curve"/>
      <point x="267" y="-54"/>
      <point x="246" y="-60"/>
      <point x="218" y="-71" type="curve"/>
      <point x="234" y="-88"/>
      <point x="218" y="-71"/>
    </contour>
  </outline>
</glyph>
<glyph name="tcommaaccent" format="1">
  <advance width="544"/>
  <unicode hex="0163"/>
  <outline>
    <contour>
      <point x="21" y="511" type="curve"/>
      <point x="524" y="511" type="line"/>
      <point x="524" y="533"/>
      <point x="524" y="511"/>
      <point x="524" y="533" type="curve"/>
      <point x="21" y="533" type="line"/>
      <point x="21" y="511"/>
      <point x="21" y="533"/>
    </contour>
    <contour>
      <point x="494" y="48" type="curve"/>
      <point x="448" y="29"/>
      <point x="415" y="17"/>
      <point x="367" y="17" type="curve"/>
      <point x="280" y="17"/>
      <point x="231" y="56"/>
      <point x="231" y="145" type="curve"/>
      <point x="231" y="673" type="line"/>
      <point x="209" y="660"/>
      <point x="229" y="671"/>
      <point x="207" y="658" type="curve"/>
      <point x="207" y="143" type="line"/>
      <point x="207" y="43"/>
      <point x="265" y="-5"/>
      <point x="365" y="-5" type="curve"/>
      <point x="417" y="-5"/>
      <point x="453" y="9"/>
      <point x="503" y="28" type="curve"/>
      <point x="494" y="48"/>
      <point x="503" y="28"/>
    </contour>
    <contour>
      <point x="290" y="-243" type="line"/>
      <point x="321" y="-217"/>
      <point x="349" y="-183"/>
      <point x="349" y="-128" type="curve"/>
      <point x="349" y="-107"/>
      <point x="345" y="-90"/>
      <point x="326" y="-90" type="curve"/>
      <point x="313" y="-90"/>
      <point x="306" y="-96"/>
      <point x="306" y="-108" type="curve"/>
      <point x="306" y="-118"/>
      <point x="310" y="-124"/>
      <point x="321" y="-129" type="curve"/>
      <point x="321" y="-154"/>
      <point x="308" y="-196"/>
      <point x="275" y="-224" type="curve"/>
    </contour>
  </outline>
</glyph>
<glyph name="uring" format="1">
  <advance width="798"/>
  <unicode hex="016F"/>
  <outline>
    <contour>
      <point x="639" y="533" type="curve"/>
      <point x="584" y="533"/>
      <point x="530" y="533"/>
      <point x="475" y="533" type="curve"/>
      <point x="475" y="511"/>
      <point x="475" y="533"/>
      <point x="475" y="511" type="curve"/>
      <point x="640" y="511"/>
      <point x="474" y="511"/>
      <point x="639" y="511" type="curve"/>
      <point x="639" y="533"/>
      <point x="639" y="511"/>
    </contour>
    <contour>
      <point x="169" y="533" type="curve"/>
      <point x="115" y="533"/>
      <point x="60" y="533"/>
      <point x="6" y="533" type="curve"/>
      <point x="6" y="511"/>
      <point x="6" y="533"/>
      <point x="6" y="511" type="curve"/>
      <point x="170" y="511"/>
      <point x="5" y="511"/>
      <point x="169" y="511" type="curve"/>
      <point x="169" y="533"/>
      <point x="169" y="511"/>
    </contour>
    <contour>
      <point x="639" y="0" type="curve"/>
      <point x="689" y="0"/>
      <point x="739" y="0"/>
      <point x="789" y="0" type="curve"/>
      <point x="789" y="22"/>
      <point x="789" y="0"/>
      <point x="789" y="22" type="curve"/>
      <point x="638" y="22"/>
      <point x="790" y="22"/>
      <point x="639" y="22" type="curve"/>
      <point x="639" y="0"/>
      <point x="639" y="22"/>
    </contour>
    <contour>
      <point x="651" y="0" type="curve"/>
      <point x="651" y="178"/>
      <point x="651" y="355"/>
      <point x="651" y="533" type="curve"/>
      <point x="627" y="533"/>
      <point x="651" y="533"/>
      <point x="627" y="533" type="curve"/>
      <point x="627" y="355"/>
      <point x="627" y="178"/>
      <point x="627" y="0" type="curve"/>
      <point x="651" y="0"/>
      <point x="627" y="0"/>
    </contour>
    <contour>
      <point x="631" y="164" type="curve"/>
      <point x="578" y="82"/>
      <point x="486" y="17"/>
      <point x="389" y="17" type="curve"/>
      <point x="262" y="17"/>
      <point x="181" y="67"/>
      <point x="181" y="187" type="curve"/>
      <point x="181" y="302"/>
      <point x="181" y="418"/>
      <point x="181" y="533" type="curve"/>
      <point x="157" y="533"/>
      <point x="181" y="533"/>
      <point x="157" y="533" type="curve"/>
      <point x="157" y="417"/>
      <point x="157" y="301"/>
      <point x="157" y="185" type="curve"/>
      <point x="157" y="51"/>
      <point x="246" y="-5"/>
      <point x="386" y="-5" type="curve"/>
      <point x="493" y="-5"/>
      <point x="593" y="63"/>
      <point x="647" y="152" type="curve"/>
      <point x="630" y="163"/>
      <point x="647" y="153"/>
    </contour>
    <contour>
      <point x="245" y="786" type="curve"/>
      <point x="245" y="709"/>
      <point x="305" y="670"/>
      <point x="388" y="670" type="curve"/>
      <point x="472" y="670"/>
      <point x="534" y="707"/>
      <point x="534" y="786" type="curve"/>
      <point x="534" y="866"/>
      <point x="471" y="903"/>
      <point x="385" y="903" type="curve"/>
      <point x="303" y="903"/>
      <point x="245" y="864"/>
      <point x="245" y="786" type="curve"/>
      <point x="267" y="786"/>
      <point x="245" y="786"/>
      <point x="267" y="786" type="curve"/>
      <point x="267" y="850"/>
      <point x="316" y="882"/>
      <point x="385" y="882" type="curve"/>
      <point x="458" y="882"/>
      <point x="511" y="853"/>
      <point x="511" y="786" type="curve"/>
      <point x="511" y="721"/>
      <point x="459" y="691"/>
      <point x="388" y="691" type="curve"/>
      <point x="318" y="691"/>
      <point x="267" y="721"/>
      <point x="267" y="786" type="curve"/>
      <point x="245" y="786"/>
      <point x="267" y="786"/>
    </contour>
  </outline>
</glyph>
<glyph name="uhungarumlaut" format="1">
  <advance width="798"/>
  <unicode hex="0171"/>
  <outline>
    <contour>
      <point x="639" y="533" type="curve"/>
      <point x="584" y="533"/>
      <point x="530" y="533"/>
      <point x="475" y="533" type="curve"/>
      <point x="475" y="511"/>
      <point x="475" y="533"/>
      <point x="475" y="511" type="curve"/>
      <point x="640" y="511"/>
      <point x="474" y="511"/>
      <point x="639" y="511" type="curve"/>
      <point x="639" y="533"/>
      <point x="639" y="511"/>
    </contour>
    <contour>
      <point x="169" y="533" type="curve"/>
      <point x="115" y="533"/>
      <point x="60" y="533"/>
      <point x="6" y="533" type="curve"/>
      <point x="6" y="511"/>
      <point x="6" y="533"/>
      <point x="6" y="511" type="curve"/>
      <point x="170" y="511"/>
      <point x="5" y="511"/>
      <point x="169" y="511" type="curve"/>
      <point x="169" y="533"/>
      <point x="169" y="511"/>
    </contour>
    <contour>
      <point x="639" y="0" type="curve"/>
      <point x="689" y="0"/>
      <point x="739" y="0"/>
      <point x="789" y="0" type="curve"/>
      <point x="789" y="22"/>
      <point x="789" y="0"/>
      <point x="789" y="22" type="curve"/>
      <point x="638" y="22"/>
      <point x="790" y="22"/>
      <point x="639" y="22" type="curve"/>
      <point x="639" y="0"/>
      <point x="639" y="22"/>
    </contour>
    <contour>
      <point x="651" y="0" type="curve"/>
      <point x="651" y="178"/>
      <point x="651" y="355"/>
      <point x="651" y="533" type="curve"/>
      <point x="627" y="533"/>
      <point x="651" y="533"/>
      <point x="627" y="533" type="curve"/>
      <point x="627" y="355"/>
      <point x="627" y="178"/>
      <point x="627" y="0" type="curve"/>
      <point x="651" y="0"/>
      <point x="627" y="0"/>
    </contour>
    <contour>
      <point x="631" y="164" type="curve"/>
      <point x="578" y="82"/>
      <point x="486" y="17"/>
      <point x="389" y="17" type="curve"/>
      <point x="262" y="17"/>
      <point x="181" y="67"/>
      <point x="181" y="187" type="curve"/>
      <point x="181" y="302"/>
      <point x="181" y="418"/>
      <point x="181" y="533" type="curve"/>
      <point x="157" y="533"/>
      <point x="181" y="533"/>
      <point x="157" y="533" type="curve"/>
      <point x="157" y="417"/>
      <point x="157" y="301"/>
      <point x="157" y="185" type="curve"/>
      <point x="157" y="51"/>
      <point x="246" y="-5"/>
      <point x="386" y="-5" type="curve"/>
      <point x="493" y="-5"/>
      <point x="593" y="63"/>
      <point x="647" y="152" type="curve"/>
      <point x="630" y="163"/>
      <point x="647" y="153"/>
    </contour>
    <contour>
      <point x="275" y="697" type="line"/>
      <point x="460" y="863" type="line"/>
      <point x="421" y="863" type="line"/>
      <point x="245" y="697" type="line"/>
    </contour>
    <contour>
      <point x="446" y="697" type="line"/>
      <point x="631" y="863" type="line"/>
      <point x="592" y="863" type="line"/>
      <point x="416" y="697" type="line"/>
    </contour>
  </outline>
</glyph>
<glyph name="uogonek" format="1">
  <advance width="798"/>
  <unicode hex="0173"/>
  <outline>
    <contour>
      <point x="639" y="533" type="curve"/>
      <point x="584" y="533"/>
      <point x="530" y="533"/>
      <point x="475" y="533" type="curve"/>
      <point x="475" y="511"/>
      <point x="475" y="533"/>
      <point x="475" y="511" type="curve"/>
      <point x="640" y="511"/>
      <point x="474" y="511"/>
      <point x="639" y="511" type="curve"/>
      <point x="639" y="533"/>
      <point x="639" y="511"/>
    </contour>
    <contour>
      <point x="169" y="533" type="curve"/>
      <point x="115" y="533"/>
      <point x="60" y="533"/>
      <point x="6" y="533" type="curve"/>
      <point x="6" y="511"/>
      <point x="6" y="533"/>
      <point x="6" y="511" type="curve"/>
      <point x="170" y="511"/>
      <point x="5" y="511"/>
      <point x="169" y="511" type="curve"/>
      <point x="169" y="533"/>
      <point x="169" y="511"/>
    </contour>
    <contour>
      <point x="639" y="0" type="curve"/>
      <point x="689" y="0"/>
      <point x="739" y="0"/>
      <point x="789" y="0" type="curve"/>
      <point x="789" y="22"/>
      <point x="789" y="0"/>
      <point x="789" y="22" type="curve"/>
      <point x="638" y="22"/>
      <point x="790" y="22"/>
      <point x="639" y="22" type="curve"/>
      <point x="639" y="0"/>
      <point x="639" y="22"/>
    </contour>
    <contour>
      <point x="651" y="0" type="curve"/>
      <point x="651" y="178"/>
      <point x="651" y="355"/>
      <point x="651" y="533" type="curve"/>
      <point x="627" y="533"/>
      <point x="651" y="533"/>
      <point x="627" y="533" type="curve"/>
      <point x="627" y="355"/>
      <point x="627" y="178"/>
      <point x="627" y="0" type="curve"/>
      <point x="651" y="0"/>
      <point x="627" y="0"/>
    </contour>
    <contour>
      <point x="631" y="164" type="curve"/>
      <point x="578" y="82"/>
      <point x="486" y="17"/>
      <point x="389" y="17" type="curve"/>
      <point x="262" y="17"/>
      <point x="181" y="67"/>
      <point x="181" y="187" type="curve"/>
      <point x="181" y="302"/>
      <point x="181" y="418"/>
      <point x="181" y="533" type="curve"/>
      <point x="157" y="533"/>
      <point x="181" y="533"/>
      <point x="157" y="533" type="curve"/>
      <point x="157" y="417"/>
      <point x="157" y="301"/>
      <point x="157" y="185" type="curve"/>
      <point x="157" y="51"/>
      <point x="246" y="-5"/>
      <point x="386" y="-5" type="curve"/>
      <point x="493" y="-5"/>
      <point x="593" y="63"/>
      <point x="647" y="152" type="curve"/>
      <point x="630" y="163"/>
      <point x="647" y="153"/>
    </contour>
    <contour>
      <point x="642" y="14" type="curve"/>
      <point x="571" y="-12"/>
      <point x="506" y="-28"/>
      <point x="506" y="-100" type="curve"/>
      <point x="506" y="-161"/>
      <point x="551" y="-195"/>
      <point x="616" y="-195" type="curve"/>
      <point x="655" y="-195"/>
      <point x="680" y="-184"/>
      <point x="714" y="-167" type="curve"/>
      <point x="705" y="-152"/>
      <point x="713" y="-166"/>
      <point x="704" y="-151" type="curve"/>
      <point x="674" y="-166"/>
      <point x="651" y="-174"/>
      <point x="618" y="-174" type="curve"/>
      <point x="565" y="-174"/>
      <point x="528" y="-149"/>
      <point x="528" y="-100" type="curve"/>
      <point x="528" y="-36"/>
      <point x="589" y="-26"/>
      <point x="651" y="0" type="curve"/>
      <point x="642" y="13"/>
      <point x="650" y="1"/>
    </contour>
  </outline>
</glyph>
<glyph name="Ydieresis" format="1">
  <advance width="888"/>
  <unicode hex="0178"/>
  <outline>
    <contour>
      <point x="423" y="22" type="curve"/>
      <point x="259" y="22"/>
      <point x="424" y="22"/>
      <point x="260" y="22" type="curve"/>
      <point x="260" y="0"/>
      <point x="260" y="22"/>
      <point x="260" y="0" type="curve"/>
      <point x="314" y="0"/>
      <point x="368" y="0"/>
      <point x="423" y="0" type="curve"/>
      <point x="423" y="22"/>
      <point x="423" y="0"/>
    </contour>
    <contour>
      <point x="423" y="0" type="curve"/>
      <point x="477" y="0"/>
      <point x="531" y="0"/>
      <point x="586" y="0" type="curve"/>
      <point x="586" y="22"/>
      <point x="586" y="0"/>
      <point x="586" y="22" type="curve"/>
      <point x="422" y="22"/>
      <point x="587" y="22"/>
      <point x="423" y="22" type="curve"/>
      <point x="423" y="0"/>
      <point x="423" y="22"/>
    </contour>
    <contour>
      <point x="708" y="722" type="curve"/>
      <point x="653" y="722"/>
      <point x="600" y="722"/>
      <point x="545" y="722" type="curve"/>
      <point x="545" y="700"/>
      <point x="545" y="722"/>
      <point x="545" y="700" type="curve"/>
      <point x="709" y="700"/>
      <point x="544" y="700"/>
      <point x="708" y="700" type="curve"/>
      <point x="708" y="722"/>
      <point x="708" y="700"/>
    </contour>
    <contour>
      <point x="154" y="722" type="curve"/>
      <point x="99" y="722"/>
      <point x="45" y="722"/>
      <point x="-9" y="722" type="curve"/>
      <point x="-9" y="700"/>
      <point x="-9" y="722"/>
      <point x="-9" y="700" type="curve"/>
      <point x="155" y="700"/>
      <point x="-10" y="700"/>
      <point x="154" y="700" type="curve"/>
      <point x="154" y="722"/>
      <point x="154" y="700"/>
    </contour>
    <contour>
      <point x="154" y="700" type="curve"/>
      <point x="319" y="700"/>
      <point x="153" y="700"/>
      <point x="318" y="700" type="curve"/>
      <point x="318" y="722"/>
      <point x="318" y="700"/>
      <point x="318" y="722" type="curve"/>
      <point x="262" y="722"/>
      <point x="209" y="722"/>
      <point x="154" y="722" type="curve"/>
      <point x="154" y="700"/>
      <point x="154" y="722"/>
    </contour>
    <contour>
      <point x="708" y="700" type="curve"/>
      <point x="873" y="700"/>
      <point x="708" y="700"/>
      <point x="872" y="700" type="curve"/>
      <point x="872" y="722"/>
      <point x="872" y="700"/>
      <point x="872" y="722" type="curve"/>
      <point x="816" y="722"/>
      <point x="763" y="722"/>
      <point x="708" y="722" type="curve"/>
      <point x="708" y="700"/>
      <point x="708" y="722"/>
    </contour>
    <contour>
      <point x="108" y="722" type="curve"/>
      <point x="208" y="594"/>
      <point x="309" y="465"/>
      <point x="410" y="337" type="curve"/>
      <point x="436" y="337"/>
      <point x="410" y="341"/>
      <point x="436" y="341" type="curve"/>
      <point x="336" y="468"/>
      <point x="236" y="595"/>
      <point x="137" y="722" type="curve"/>
      <point x="108" y="722"/>
      <point x="137" y="722"/>
    </contour>
    <contour>
      <point x="726" y="722" type="curve"/>
      <point x="620" y="595"/>
      <point x="516" y="468"/>
      <point x="411" y="341" type="curve"/>
      <point x="436" y="341"/>
      <point x="411" y="337"/>
      <point x="436" y="337" type="curve"/>
      <point x="542" y="465"/>
      <point x="648" y="594"/>
      <point x="755" y="722" type="curve"/>
      <point x="726" y="722"/>
      <point x="755" y="722"/>
    </contour>
    <contour>
      <point x="436" y="0" type="curve"/>
      <point x="436" y="115"/>
      <point x="436" y="231"/>
      <point x="436" y="346" type="curve"/>
      <point x="410" y="346"/>
      <point x="436" y="346"/>
      <point x="410" y="346" type="curve"/>
      <point x="410" y="231"/>
      <point x="410" y="115"/>
      <point x="410" y="0" type="curve"/>
      <point x="436" y="0"/>
      <point x="410" y="0"/>
    </contour>
    <contour>
      <point x="365" y="843" type="curve"/>
      <point x="365" y="854"/>
      <point x="357" y="861"/>
      <point x="345" y="861" type="curve"/>
      <point x="334" y="861"/>
      <point x="327" y="854"/>
      <point x="327" y="843" type="curve"/>
      <point x="343" y="843"/>
      <point x="349" y="843"/>
      <point x="365" y="843" type="curve"/>
      <point x="365" y="832"/>
      <point x="357" y="825"/>
      <point x="345" y="825" type="curve"/>
      <point x="334" y="825"/>
      <point x="327" y="832"/>
      <point x="327" y="843" type="curve"/>
      <point x="343" y="843"/>
      <point x="349" y="843"/>
    </contour>
    <contour>
      <point x="519" y="843" type="curve"/>
      <point x="519" y="854"/>
      <point x="511" y="861"/>
      <point x="499" y="861" type="curve"/>
      <point x="488" y="861"/>
      <point x="481" y="854"/>
      <point x="481" y="843" type="curve"/>
      <point x="497" y="843"/>
      <point x="503" y="843"/>
      <point x="519" y="843" type="curve"/>
      <point x="519" y="832"/>
      <point x="511" y="825"/>
      <point x="499" y="825" type="curve"/>
      <point x="488" y="825"/>
      <point x="481" y="832"/>
      <point x="481" y="843" type="curve"/>
      <point x="497" y="843"/>
      <point x="503" y="843"/>
    </contour>
  </outline>
</glyph>
<glyph name="scommaaccent" format="1">
  <advance width="571"/>
  <unicode hex="0219"/>
  <outline>
    <contour>
      <point x="67" y="51" type="curve"/>
      <point x="145" y="19"/>
      <point x="217" y="-5"/>
      <point x="299" y="-5" type="curve"/>
      <point x="418" y="-5"/>
      <point x="505" y="30"/>
      <point x="505" y="139" type="curve"/>
      <point x="504" y="249"/>
      <point x="403" y="259"/>
      <point x="290" y="287" type="curve" smooth="yes"/>
      <point x="197" y="310"/>
      <point x="119" y="332"/>
      <point x="119" y="415" type="curve"/>
      <point x="119" y="494"/>
      <point x="186" y="516"/>
      <point x="276" y="516" type="curve"/>
      <point x="340" y="516"/>
      <point x="414" y="495"/>
      <point x="458" y="471" type="curve"/>
      <point x="468" y="489"/>
      <point x="459" y="472"/>
      <point x="469" y="490" type="curve"/>
      <point x="422" y="515"/>
      <point x="344" y="538"/>
      <point x="277" y="538" type="curve"/>
      <point x="173" y="538"/>
      <point x="97" y="509"/>
      <point x="97" y="415" type="curve"/>
      <point x="97" y="316"/>
      <point x="179" y="292"/>
      <point x="282" y="266" type="curve" smooth="yes"/>
      <point x="384" y="239"/>
      <point x="482" y="235"/>
      <point x="482" y="139" type="curve"/>
      <point x="482" y="45"/>
      <point x="404" y="17"/>
      <point x="303" y="17" type="curve"/>
      <point x="223" y="17"/>
      <point x="155" y="41"/>
      <point x="78" y="72" type="curve"/>
      <point x="65" y="52"/>
      <point x="79" y="71"/>
    </contour>
    <contour>
      <point x="447" y="490" type="curve"/>
      <point x="447" y="370"/>
      <point x="447" y="491"/>
      <point x="447" y="371" type="curve"/>
      <point x="469" y="371"/>
      <point x="447" y="371"/>
      <point x="469" y="371" type="curve"/>
      <point x="469" y="491"/>
      <point x="469" y="370"/>
      <point x="469" y="490" type="curve"/>
      <point x="448" y="490"/>
      <point x="467" y="490"/>
    </contour>
    <contour>
      <point x="86" y="51" type="curve"/>
      <point x="86" y="171"/>
      <point x="86" y="50"/>
      <point x="86" y="170" type="curve"/>
      <point x="65" y="170"/>
      <point x="86" y="170"/>
      <point x="65" y="170" type="curve"/>
      <point x="65" y="50"/>
      <point x="65" y="171"/>
      <point x="65" y="51" type="curve"/>
      <point x="86" y="51"/>
      <point x="65" y="51"/>
    </contour>
    <contour>
      <point x="231" y="-243" type="line"/>
      <point x="262" y="-218"/>
      <point x="290" y="-183"/>
      <point x="290" y="-129" type="curve"/>
      <point x="290" y="-108"/>
      <point x="286" y="-90"/>
      <point x="267" y="-90" type="curve"/>
      <point x="254" y="-90"/>
      <point x="247" y="-96"/>
      <point x="247" y="-108" type="curve"/>
      <point x="247" y="-118"/>
      <point x="251" y="-124"/>
      <point x="262" y="-129" type="curve"/>
      <point x="262" y="-155"/>
      <point x="250" y="-197"/>
      <point x="216" y="-225" type="curve"/>
    </contour>
  </outline>
</glyph>
<glyph name="breve" format="1">
  <advance width="451"/>
  <unicode hex="02D8"/>
  <outline>
    <contour>
      <point x="173" y="619" type="move" name="_top"/>
    </contour>
    <contour>
      <point x="327" y="742" type="curve"/>
      <point x="327" y="667"/>
      <point x="261" y="640"/>
      <point x="175" y="640" type="curve"/>
      <point x="94" y="640"/>
      <point x="31" y="670"/>
      <point x="31" y="743" type="curve"/>
      <point x="9" y="743"/>
      <point x="31" y="743"/>
      <point x="9" y="743" type="curve"/>
      <point x="9" y="656"/>
      <point x="78" y="619"/>
      <point x="173" y="619" type="curve"/>
      <point x="275" y="619"/>
      <point x="349" y="652"/>
      <point x="349" y="742" type="curve"/>
      <point x="327" y="742"/>
      <point x="349" y="742"/>
    </contour>
  </outline>
</glyph>
<glyph name="ring" format="1">
  <advance width="385"/>
  <unicode hex="02DA"/>
  <outline>
    <contour>
      <point x="154" y="631" type="move" name="_top"/>
    </contour>
    <contour>
      <point x="12" y="746" type="curve"/>
      <point x="12" y="669"/>
      <point x="72" y="630"/>
      <point x="154" y="630" type="curve"/>
      <point x="239" y="630"/>
      <point x="301" y="667"/>
      <point x="301" y="746" type="curve"/>
      <point x="301" y="825"/>
      <point x="238" y="863"/>
      <point x="151" y="863" type="curve"/>
      <point x="70" y="863"/>
      <point x="12" y="824"/>
      <point x="12" y="746" type="curve"/>
      <point x="34" y="746"/>
      <point x="12" y="746"/>
      <point x="34" y="746" type="curve"/>
      <point x="34" y="810"/>
      <point x="83" y="842"/>
      <point x="151" y="842" type="curve"/>
      <point x="225" y="842"/>
      <point x="277" y="812"/>
      <point x="277" y="746" type="curve"/>
      <point x="277" y="681"/>
      <point x="226" y="651"/>
      <point x="154" y="651" type="curve"/>
      <point x="85" y="651"/>
      <point x="34" y="681"/>
      <point x="34" y="746" type="curve"/>
      <point x="12" y="746"/>
      <point x="34" y="746"/>
    </contour>
  </outline>
</glyph>
<glyph name="ogonek" format="1">
  <advance width="334"/>
  <unicode hex="02DB"/>
  <outline>
    <contour>
      <point x="169" y="2" type="move" name="_bottom"/>
    </contour>
    <contour>
      <point x="160" y="16" type="curve"/>
      <point x="89" y="-10"/>
      <point x="24" y="-27"/>
      <point x="24" y="-98" type="curve"/>
      <point x="24" y="-159"/>
      <point x="69" y="-193"/>
      <point x="134" y="-193" type="curve"/>
      <point x="173" y="-193"/>
      <point x="198" y="-182"/>
      <point x="232" y="-165" type="curve"/>
      <point x="223" y="-150"/>
      <point x="231" y="-164"/>
      <point x="222" y="-149" type="curve"/>
      <point x="192" y="-164"/>
      <point x="169" y="-172"/>
      <point x="136" y="-172" type="curve"/>
      <point x="83" y="-172"/>
      <point x="46" y="-147"/>
      <point x="46" y="-98" type="curve"/>
      <point x="46" y="-35"/>
      <point x="107" y="-24"/>
      <point x="169" y="2" type="curve"/>
      <point x="160" y="15"/>
      <point x="168" y="3"/>
    </contour>
  </outline>
</glyph>
<glyph name="tilde" format="1">
  <advance width="613"/>
  <unicode hex="02DC"/>
  <outline>
    <contour>
      <point x="246" y="607" type="move" name="_top"/>
    </contour>
    <contour>
      <point x="463" y="730" type="curve"/>
      <point x="445" y="674"/>
      <point x="422" y="627"/>
      <point x="366" y="627" type="curve"/>
      <point x="318" y="627"/>
      <point x="286" y="644"/>
      <point x="251" y="676" type="curve"/>
      <point x="213" y="710"/>
      <point x="182" y="731"/>
      <point x="132" y="731" type="curve"/>
      <point x="61" y="731"/>
      <point x="22" y="684"/>
      <point x="4" y="612" type="curve"/>
      <point x="23" y="606"/>
      <point x="4" y="612"/>
      <point x="23" y="606" type="curve"/>
      <point x="40" y="668"/>
      <point x="71" y="710"/>
      <point x="132" y="710" type="curve"/>
      <point x="175" y="710"/>
      <point x="201" y="691"/>
      <point x="233" y="662" type="curve"/>
      <point x="274" y="626"/>
      <point x="310" y="606"/>
      <point x="364" y="606" type="curve"/>
      <point x="432" y="606"/>
      <point x="461" y="659"/>
      <point x="483" y="726" type="curve"/>
      <point x="463" y="730"/>
      <point x="483" y="726"/>
    </contour>
  </outline>
</glyph>
<glyph name="dvU" format="1">
  <advance width="706"/>
  <unicode hex="0909"/>
  <outline>
    <contour>
      <point x="96" y="156" type="curve"/>
      <point x="168" y="91"/>
      <point x="247" y="66"/>
      <point x="347" y="66" type="curve"/>
      <point x="477" y="62"/>
      <point x="577" y="128"/>
      <point x="574" y="250" type="curve"/>
      <point x="572" y="384"/>
      <point x="437" y="419"/>
      <point x="286" y="419" type="curve"/>
      <point x="286" y="412"/>
      <point x="286" y="409"/>
      <point x="286" y="402" type="curve"/>
      <point x="425" y="402"/>
      <point x="549" y="371"/>
      <point x="551" y="248" type="curve"/>
      <point x="554" y="141"/>
      <point x="464" y="84"/>
      <point x="349" y="87" type="curve"/>
      <point x="255" y="87"/>
      <point x="181" y="110"/>
      <point x="112" y="169" type="curve"/>
      <point x="105" y="163"/>
      <point x="103" y="162"/>
    </contour>
    <contour>
      <point x="333" y="702" type="line"/>
      <point x="444" y="702"/>
      <point x="536" y="665"/>
      <point x="535" y="567" type="curve"/>
      <point x="534" y="452"/>
      <point x="417" y="424"/>
      <point x="286" y="424" type="curve"/>
      <point x="286" y="415"/>
      <point x="286" y="413"/>
      <point x="286" y="405" type="curve"/>
      <point x="431" y="405"/>
      <point x="559" y="442"/>
      <point x="559" y="570" type="curve"/>
      <point x="559" y="680"/>
      <point x="458" y="721"/>
      <point x="336" y="721" type="curve"/>
    </contour>
    <component base="dvTopbar" xScale="1.10388982908" xOffset="-4"/>
  </outline>
</glyph>
<glyph name="dvNGA" format="1">
  <advance width="696"/>
  <unicode hex="0919"/>
  <outline>
    <contour>
      <point x="449" y="-59" type="move" name="blwm.virama"/>
    </contour>
    <contour>
      <point x="512" y="719" type="move" name="abvm.e"/>
    </contour>
    <contour>
      <point x="464" y="-144" type="move" name="blwm.u"/>
    </contour>
    <component base="dvDDA"/>
    <component base="dvAnusvara" xOffset="792" yOffset="-503"/>
    <component base="dvTopbar" xScale="0.709697559853" xOffset="-3"/>
  </outline>
</glyph>
<glyph name="dvmUU" format="1">
  <advance width="0"/>
  <unicode hex="0942"/>
  <outline>
    <contour>
      <point x="-41" y="30" type="move" name="_blwm.u"/>
    </contour>
    <contour>
      <point x="-122" y="-234" type="line"/>
      <point x="-210" y="-234"/>
      <point x="-280" y="-193"/>
      <point x="-280" y="-111" type="curve"/>
      <point x="-280" y="-25"/>
      <point x="-212" y="25"/>
      <point x="-121" y="25" type="curve"/>
      <point x="26" y="25"/>
      <point x="116" y="-92"/>
      <point x="129" y="-250" type="curve"/>
      <point x="153" y="-245" type="line"/>
      <point x="136" y="-77"/>
      <point x="41" y="46"/>
      <point x="-121" y="46" type="curve"/>
      <point x="-226" y="46"/>
      <point x="-305" y="-12"/>
      <point x="-305" y="-111" type="curve"/>
      <point x="-305" y="-207"/>
      <point x="-225" y="-256"/>
      <point x="-123" y="-256" type="curve"/>
    </contour>
  </outline>
</glyph>
<glyph name="dvmvRR" format="1">
  <advance width="0"/>
  <unicode hex="0944"/>
  <outline>
    <contour>
      <point x="-123" y="16" type="move" name="_blwm.u"/>
    </contour>
    <contour>
      <point x="-150" y="-177" type="line"/>
      <point x="-232" y="-177"/>
      <point x="-304" y="-158"/>
      <point x="-304" y="-86" type="curve"/>
      <point x="-304" y="-11"/>
      <point x="-229" y="14"/>
      <point x="-142" y="14" type="curve"/>
      <point x="-143" y="36" type="line"/>
      <point x="-243" y="36"/>
      <point x="-328" y="3"/>
      <point x="-328" y="-86" type="curve"/>
      <point x="-328" y="-170"/>
      <point x="-245" y="-198"/>
      <point x="-150" y="-198" type="curve"/>
    </contour>
    <contour>
      <point x="-150" y="-184" type="line"/>
      <point x="-246" y="-184"/>
      <point x="-326" y="-220"/>
      <point x="-326" y="-306" type="curve"/>
      <point x="-326" y="-382"/>
      <point x="-261" y="-420"/>
      <point x="-179" y="-420" type="curve"/>
      <point x="-151" y="-420"/>
      <point x="-127" y="-412"/>
      <point x="-106" y="-397" type="curve"/>
      <point x="-119" y="-380" type="line"/>
      <point x="-136" y="-392"/>
      <point x="-156" y="-399"/>
      <point x="-179" y="-399" type="curve"/>
      <point x="-247" y="-399"/>
      <point x="-302" y="-371"/>
      <point x="-302" y="-309" type="curve"/>
      <point x="-302" y="-235"/>
      <point x="-232" y="-205"/>
      <point x="-150" y="-205" type="curve"/>
    </contour>
  </outline>
</glyph>
<glyph name="dvmEcandra" format="1">
  <advance width="0"/>
  <unicode hex="0945"/>
  <outline>
    <contour>
      <point x="-133" y="740" type="move" name="_abvm.e"/>
    </contour>
    <contour>
      <point x="47" y="998" type="curve"/>
      <point x="47" y="895"/>
      <point x="-39" y="851"/>
      <point x="-153" y="851" type="curve"/>
      <point x="-264" y="851"/>
      <point x="-346" y="896"/>
      <point x="-346" y="998" type="curve"/>
      <point x="-370" y="998"/>
      <point x="-346" y="998"/>
      <point x="-370" y="998" type="curve"/>
      <point x="-370" y="882"/>
      <point x="-278" y="830"/>
      <point x="-154" y="830" type="curve"/>
      <point x="-26" y="830"/>
      <point x="70" y="880"/>
      <point x="70" y="998" type="curve"/>
      <point x="47" y="998"/>
      <point x="70" y="998"/>
    </contour>
  </outline>
</glyph>
<glyph name="dvmE" format="1">
  <advance width="0"/>
  <unicode hex="0947"/>
  <outline>
    <contour>
      <point x="-157" y="718" type="move" name="_abvm.e"/>
    </contour>
    <contour>
      <point x="-617" y="951" type="line"/>
      <point x="-572" y="974"/>
      <point x="-527" y="989"/>
      <point x="-474" y="989" type="curve"/>
      <point x="-310" y="989"/>
      <point x="-227" y="861"/>
      <point x="-183" y="706" type="curve"/>
      <point x="-161" y="712" type="line"/>
      <point x="-209" y="877"/>
      <point x="-298" y="1011"/>
      <point x="-471" y="1011" type="curve"/>
      <point x="-529" y="1011"/>
      <point x="-577" y="997"/>
      <point x="-627" y="971" type="curve"/>
    </contour>
  </outline>
</glyph>
<glyph name="dvKxA" format="1">
  <advance width="1171"/>
  <unicode hex="0958"/>
  <outline>
    <contour>
      <point x="581" y="-26" type="move" name="blwm.virama"/>
    </contour>
    <contour>
      <point x="578" y="722" type="move" name="abvm.e"/>
    </contour>
    <contour>
      <point x="627" y="-137" type="move" name="blwm.u"/>
    </contour>
    <component base="dvKA"/>
    <component base="dvAnusvara" xOffset="523" yOffset="-924"/>
  </outline>
</glyph>
<glyph name="dvDDxA" format="1">
  <advance width="674"/>
  <unicode hex="095C"/>
  <outline>
    <contour>
      <point x="496" y="-200" type="move" name="blwm.virama"/>
    </contour>
    <contour>
      <point x="511" y="719" type="move" name="abvm.e"/>
    </contour>
    <contour>
      <point x="481" y="-283" type="move" name="blwm.u"/>
    </contour>
    <component base="dvDDA" xOffset="1"/>
    <component base="dvAnusvara" xOffset="528" yOffset="-1003"/>
  </outline>
</glyph>
<glyph name="dvPHxA" format="1">
  <advance width="1136"/>
  <unicode hex="095E"/>
  <outline>
    <contour>
      <point x="579" y="-38" type="move" name="blwm.virama"/>
    </contour>
    <contour>
      <point x="579" y="721" type="move" name="abvm.e"/>
    </contour>
    <contour>
      <point x="638" y="-107" type="move" name="blwm.u"/>
    </contour>
    <component base="dvPHA"/>
    <component base="dvAnusvara" xOffset="447" yOffset="-838"/>
  </outline>
</glyph>
<glyph name="quoteleft" format="1">
  <advance width="223"/>
  <unicode hex="2018"/>
  <outline>
    <contour>
      <point x="147" y="694" type="line"/>
      <point x="116" y="668"/>
      <point x="88" y="634"/>
      <point x="88" y="580" type="curve"/>
      <point x="88" y="559"/>
      <point x="92" y="541"/>
      <point x="110" y="541" type="curve"/>
      <point x="123" y="541"/>
      <point x="130" y="547"/>
      <point x="130" y="559" type="curve"/>
      <point x="130" y="569"/>
      <point x="126" y="575"/>
      <point x="115" y="580" type="curve"/>
      <point x="115" y="606"/>
      <point x="128" y="648"/>
      <point x="162" y="675" type="curve"/>
    </contour>
  </outline>
</glyph>
<glyph name="quoteright" format="1">
  <advance width="221"/>
  <unicode hex="2019"/>
  <outline>
    <contour>
      <point x="103" y="570" type="line"/>
      <point x="134" y="596"/>
      <point x="162" y="630"/>
      <point x="162" y="685" type="curve"/>
      <point x="162" y="705"/>
      <point x="158" y="723"/>
      <point x="139" y="723" type="curve"/>
      <point x="126" y="723"/>
      <point x="119" y="717"/>
      <point x="119" y="705" type="curve"/>
      <point x="119" y="695"/>
      <point x="123" y="689"/>
      <point x="134" y="684" type="curve"/>
      <point x="134" y="659"/>
      <point x="121" y="617"/>
      <point x="88" y="589" type="curve"/>
    </contour>
  </outline>
</glyph>
<glyph name="quotesinglbase" format="1">
  <advance width="199"/>
  <unicode hex="201A"/>
  <outline>
    <contour>
      <point x="48" y="-120" type="line"/>
      <point x="79" y="-94"/>
      <point x="107" y="-60"/>
      <point x="107" y="-6" type="curve"/>
      <point x="107" y="15"/>
      <point x="103" y="33"/>
      <point x="84" y="33" type="curve"/>
      <point x="71" y="33"/>
      <point x="64" y="27"/>
      <point x="64" y="15" type="curve"/>
      <point x="64" y="5"/>
      <point x="68" y="-1"/>
      <point x="79" y="-6" type="curve"/>
      <point x="79" y="-32"/>
      <point x="67" y="-74"/>
      <point x="33" y="-101" type="curve"/>
    </contour>
  </outline>
</glyph>
<glyph name="quotedblleft" format="1">
  <advance width="298"/>
  <unicode hex="201C"/>
  <outline>
    <contour>
      <point x="268" y="732" type="line"/>
      <point x="237" y="706"/>
      <point x="209" y="672"/>
      <point x="209" y="618" type="curve"/>
      <point x="209" y="597"/>
      <point x="213" y="579"/>
      <point x="232" y="579" type="curve"/>
      <point x="245" y="579"/>
      <point x="252" y="585"/>
      <point x="252" y="597" type="curve"/>
      <point x="252" y="607"/>
      <point x="248" y="613"/>
      <point x="237" y="618" type="curve"/>
      <point x="237" y="643"/>
      <point x="250" y="686"/>
      <point x="283" y="713" type="curve"/>
    </contour>
    <contour>
      <point x="112" y="732" type="line"/>
      <point x="81" y="706"/>
      <point x="53" y="672"/>
      <point x="53" y="618" type="curve"/>
      <point x="53" y="597"/>
      <point x="57" y="579"/>
      <point x="76" y="579" type="curve"/>
      <point x="89" y="579"/>
      <point x="96" y="585"/>
      <point x="96" y="597" type="curve"/>
      <point x="96" y="607"/>
      <point x="92" y="613"/>
      <point x="81" y="618" type="curve"/>
      <point x="81" y="643"/>
      <point x="93" y="686"/>
      <point x="127" y="713" type="curve"/>
    </contour>
  </outline>
</glyph>
<glyph name="quotedblright" format="1">
  <advance width="273"/>
  <unicode hex="201D"/>
  <outline>
    <contour>
      <point x="19" y="682" type="line"/>
      <point x="50" y="707"/>
      <point x="78" y="742"/>
      <point x="78" y="796" type="curve"/>
      <point x="78" y="817"/>
      <point x="74" y="835"/>
      <point x="56" y="835" type="curve"/>
      <point x="43" y="835"/>
      <point x="36" y="829"/>
      <point x="36" y="817" type="curve"/>
      <point x="36" y="807"/>
      <point x="40" y="801"/>
      <point x="51" y="796" type="curve"/>
      <point x="51" y="770"/>
      <point x="38" y="728"/>
      <point x="4" y="700" type="curve"/>
    </contour>
    <contour>
      <point x="175" y="682" type="line"/>
      <point x="207" y="707"/>
      <point x="235" y="742"/>
      <point x="235" y="796" type="curve"/>
      <point x="235" y="817"/>
      <point x="231" y="835"/>
      <point x="212" y="835" type="curve"/>
      <point x="199" y="835"/>
      <point x="192" y="829"/>
      <point x="192" y="817" type="curve"/>
      <point x="192" y="807"/>
      <point x="196" y="801"/>
      <point x="207" y="796" type="curve"/>
      <point x="207" y="770"/>
      <point x="194" y="728"/>
      <point x="160" y="700" type="curve"/>
    </contour>
  </outline>
</glyph>
<glyph name="quotedblbase" format="1">
  <advance width="354"/>
  <unicode hex="201E"/>
  <outline>
    <contour>
      <point x="48" y="-120" type="line"/>
      <point x="79" y="-94"/>
      <point x="107" y="-60"/>
      <point x="107" y="-6" type="curve"/>
      <point x="107" y="15"/>
      <point x="103" y="33"/>
      <point x="84" y="33" type="curve"/>
      <point x="71" y="33"/>
      <point x="64" y="27"/>
      <point x="64" y="15" type="curve"/>
      <point x="64" y="5"/>
      <point x="68" y="-1"/>
      <point x="79" y="-6" type="curve"/>
      <point x="79" y="-32"/>
      <point x="67" y="-74"/>
      <point x="33" y="-101" type="curve"/>
    </contour>
    <contour>
      <point x="203" y="-120" type="line"/>
      <point x="235" y="-94"/>
      <point x="263" y="-60"/>
      <point x="263" y="-6" type="curve"/>
      <point x="263" y="15"/>
      <point x="259" y="33"/>
      <point x="240" y="33" type="curve"/>
      <point x="227" y="33"/>
      <point x="220" y="27"/>
      <point x="220" y="15" type="curve"/>
      <point x="220" y="5"/>
      <point x="224" y="-1"/>
      <point x="235" y="-6" type="curve"/>
      <point x="235" y="-32"/>
      <point x="222" y="-74"/>
      <point x="188" y="-101" type="curve"/>
    </contour>
  </outline>
</glyph>
<glyph name="fraction" format="1">
  <advance width="507"/>
  <unicode hex="2044"/>
  <outline>
    <contour>
      <point x="-228" y="757" type="move" name="top"/>
    </contour>
    <contour>
      <point x="604" y="-98" type="move" name="bottom"/>
    </contour>
    <contour>
      <point x="-55" y="-93" type="line"/>
      <point x="493" y="757" type="line"/>
      <point x="466" y="757" type="line"/>
      <point x="-82" y="-93" type="line"/>
    </contour>
  </outline>
</glyph>
<glyph name="Euro" format="1">
  <advance width="973"/>
  <unicode hex="20AC"/>
  <outline>
    <contour>
      <point x="57" y="252" type="curve"/>
      <point x="231" y="252"/>
      <point x="405" y="252"/>
      <point x="580" y="252" type="curve"/>
      <point x="580" y="275"/>
      <point x="580" y="252"/>
      <point x="580" y="275" type="curve"/>
      <point x="405" y="275"/>
      <point x="231" y="275"/>
      <point x="57" y="275" type="curve"/>
      <point x="57" y="252"/>
      <point x="57" y="275"/>
    </contour>
    <contour>
      <point x="57" y="422" type="curve"/>
      <point x="231" y="422"/>
      <point x="405" y="422"/>
      <point x="580" y="422" type="curve"/>
      <point x="580" y="445"/>
      <point x="580" y="422"/>
      <point x="580" y="445" type="curve"/>
      <point x="405" y="445"/>
      <point x="231" y="445"/>
      <point x="57" y="445" type="curve"/>
      <point x="57" y="422"/>
      <point x="57" y="445"/>
    </contour>
    <contour>
      <point x="859" y="655" type="curve"/>
      <point x="859" y="535"/>
      <point x="859" y="655"/>
      <point x="859" y="535" type="curve"/>
      <point x="881" y="535"/>
      <point x="859" y="535"/>
      <point x="881" y="535" type="curve"/>
      <point x="881" y="655"/>
      <point x="881" y="535"/>
      <point x="881" y="655" type="curve"/>
      <point x="859" y="655"/>
      <point x="881" y="655"/>
    </contour>
    <contour>
      <point x="881" y="655" type="curve"/>
      <point x="793" y="697"/>
      <point x="699" y="727"/>
      <point x="594" y="727" type="curve"/>
      <point x="343" y="727"/>
      <point x="183" y="590"/>
      <point x="183" y="344" type="curve"/>
      <point x="183" y="117"/>
      <point x="333" y="-5"/>
      <point x="567" y="-5" type="curve"/>
      <point x="703" y="-5"/>
      <point x="793" y="26"/>
      <point x="905" y="96" type="curve"/>
      <point x="890" y="113"/>
      <point x="905" y="96"/>
      <point x="890" y="113" type="curve"/>
      <point x="785" y="44"/>
      <point x="696" y="19"/>
      <point x="568" y="19" type="curve"/>
      <point x="349" y="19"/>
      <point x="207" y="134"/>
      <point x="207" y="345" type="curve"/>
      <point x="207" y="574"/>
      <point x="358" y="704"/>
      <point x="593" y="704" type="curve"/>
      <point x="693" y="704"/>
      <point x="785" y="679"/>
      <point x="868" y="638" type="curve"/>
      <point x="881" y="655"/>
      <point x="868" y="638"/>
    </contour>
  </outline>
</glyph>
<glyph name="indianrupee" format="1">
  <advance width="704"/>
  <unicode hex="20B9"/>
  <outline>
    <contour>
      <point x="162" y="340" type="curve"/>
      <point x="297" y="341"/>
      <point x="400" y="399"/>
      <point x="400" y="522" type="curve"/>
      <point x="400" y="590"/>
      <point x="376" y="639"/>
      <point x="324" y="683" type="curve"/>
      <point x="318" y="678"/>
      <point x="314" y="674"/>
      <point x="308" y="669" type="curve"/>
      <point x="357" y="629"/>
      <point x="377" y="583"/>
      <point x="377" y="519" type="curve"/>
      <point x="377" y="402"/>
      <point x="269" y="360"/>
      <point x="139" y="360" type="curve"/>
      <point x="147" y="353"/>
      <point x="154" y="347"/>
    </contour>
    <contour>
      <point x="139" y="360" type="curve"/>
      <point x="139" y="161"/>
      <point x="184" y="-11"/>
      <point x="359" y="-11" type="curve"/>
      <point x="457" y="-11"/>
      <point x="520" y="47"/>
      <point x="556" y="139" type="curve"/>
      <point x="550" y="143"/>
      <point x="546" y="145"/>
      <point x="538" y="150" type="curve"/>
      <point x="503" y="65"/>
      <point x="449" y="10"/>
      <point x="359" y="10" type="curve"/>
      <point x="204" y="10"/>
      <point x="162" y="163"/>
      <point x="162" y="340" type="curve"/>
      <point x="154" y="347"/>
      <point x="147" y="353"/>
    </contour>
    <component base="dvTopbar" xScale="0.868665421812" xOffset="74" yOffset="-37"/>
    <component base="dvTopbar" xScale="0.868665421812" xOffset="75" yOffset="-200"/>
  </outline>
</glyph>
<glyph name="estimated" format="1">
  <advance width="841"/>
  <unicode hex="212E"/>
  <outline>
    <contour>
      <point x="752" y="119" type="curve"/>
      <point x="664" y="52"/>
      <point x="552" y="17"/>
      <point x="451" y="17" type="curve"/>
      <point x="225" y="17"/>
      <point x="95" y="155"/>
      <point x="95" y="380" type="curve"/>
      <point x="95" y="580"/>
      <point x="213" y="702"/>
      <point x="418" y="702" type="curve"/>
      <point x="626" y="702"/>
      <point x="747" y="589"/>
      <point x="747" y="404" type="curve"/>
      <point x="747" y="394"/>
      <point x="747" y="385"/>
      <point x="747" y="375" type="curve"/>
      <point x="751" y="378"/>
      <point x="755" y="381"/>
      <point x="759" y="384" type="curve"/>
      <point x="763" y="387"/>
      <point x="766" y="391"/>
      <point x="769" y="394" type="curve"/>
      <point x="539" y="394"/>
      <point x="314" y="394"/>
      <point x="84" y="394" type="curve"/>
      <point x="84" y="374"/>
      <point x="84" y="393"/>
      <point x="84" y="372" type="curve"/>
      <point x="314" y="372"/>
      <point x="539" y="372"/>
      <point x="769" y="372" type="curve"/>
      <point x="770" y="372"/>
      <point x="770" y="372"/>
      <point x="770" y="372" type="curve"/>
      <point x="770" y="375"/>
      <point x="770" y="372"/>
      <point x="770" y="375" type="curve"/>
      <point x="770" y="384"/>
      <point x="770" y="393"/>
      <point x="770" y="402" type="curve"/>
      <point x="770" y="602"/>
      <point x="642" y="724"/>
      <point x="420" y="724" type="curve"/>
      <point x="199" y="724"/>
      <point x="71" y="594"/>
      <point x="71" y="380" type="curve"/>
      <point x="71" y="142"/>
      <point x="210" y="-5"/>
      <point x="451" y="-5" type="curve"/>
      <point x="560" y="-5"/>
      <point x="678" y="32"/>
      <point x="767" y="103" type="curve"/>
      <point x="753" y="118"/>
      <point x="766" y="104"/>
    </contour>
    <contour>
      <point x="147" y="141" type="line"/>
      <point x="147" y="593" type="line"/>
      <point x="118" y="553" type="line"/>
      <point x="74" y="380" type="line"/>
      <point x="99" y="239" type="line"/>
    </contour>
    <contour>
      <point x="756" y="382" type="line"/>
      <point x="741" y="522" type="line"/>
      <point x="695" y="611" type="line"/>
      <point x="695" y="383" type="line"/>
    </contour>
  </outline>
</glyph>
<glyph name="lessequal" format="1">
  <advance width="955"/>
  <unicode hex="2264"/>
  <outline>
    <contour>
      <point x="870" y="676" type="curve"/>
      <point x="605" y="588"/>
      <point x="339" y="501"/>
      <point x="75" y="413" type="curve"/>
      <point x="75" y="390"/>
      <point x="75" y="413"/>
      <point x="75" y="390" type="curve"/>
      <point x="339" y="478"/>
      <point x="605" y="566"/>
      <point x="870" y="653" type="curve"/>
      <point x="870" y="676"/>
      <point x="870" y="653"/>
    </contour>
    <contour>
      <point x="870" y="149" type="curve"/>
      <point x="605" y="237"/>
      <point x="339" y="325"/>
      <point x="75" y="413" type="curve"/>
      <point x="75" y="390"/>
      <point x="75" y="413"/>
      <point x="75" y="390" type="curve"/>
      <point x="339" y="302"/>
      <point x="605" y="214"/>
      <point x="870" y="126" type="curve"/>
      <point x="870" y="149"/>
      <point x="870" y="126"/>
    </contour>
    <contour>
      <point x="75" y="0" type="curve"/>
      <point x="339" y="0"/>
      <point x="605" y="0"/>
      <point x="870" y="0" type="curve"/>
      <point x="870" y="22"/>
      <point x="870" y="0"/>
      <point x="870" y="22" type="curve"/>
      <point x="605" y="22"/>
      <point x="339" y="22"/>
      <point x="75" y="22" type="curve"/>
      <point x="75" y="0"/>
      <point x="75" y="22"/>
    </contour>
  </outline>
</glyph>
<glyph name="commaaccent" format="1">
  <advance width="266"/>
  <outline>
    <contour>
      <point x="182" y="118" type="move" name="_bottom"/>
    </contour>
    <contour>
      <point x="96" y="-116" type="line"/>
      <point x="127" y="-90"/>
      <point x="155" y="-56"/>
      <point x="155" y="-2" type="curve"/>
      <point x="155" y="19"/>
      <point x="151" y="37"/>
      <point x="132" y="37" type="curve"/>
      <point x="119" y="37"/>
      <point x="112" y="31"/>
      <point x="112" y="19" type="curve"/>
      <point x="112" y="9"/>
      <point x="116" y="3"/>
      <point x="127" y="-2" type="curve"/>
      <point x="127" y="-28"/>
      <point x="114" y="-70"/>
      <point x="81" y="-97" type="curve"/>
    </contour>
  </outline>
</glyph>
<glyph name="dvBH" format="1">
  <advance width="600"/>
  <outline>
    <contour>
      <point x="187" y="565" type="line"/>
      <point x="199" y="649"/>
      <point x="242" y="706"/>
      <point x="323" y="706" type="curve"/>
      <point x="411" y="706"/>
      <point x="457" y="639"/>
      <point x="457" y="547" type="curve"/>
      <point x="457" y="461"/>
      <point x="457" y="399"/>
      <point x="457" y="313" type="curve"/>
      <point x="457" y="213"/>
      <point x="407" y="139"/>
      <point x="313" y="139" type="curve"/>
      <point x="222" y="139"/>
      <point x="156" y="185"/>
      <point x="156" y="273" type="curve"/>
      <point x="156" y="361"/>
      <point x="233" y="399"/>
      <point x="331" y="399" type="curve"/>
      <point x="475" y="399"/>
      <point x="577" y="399"/>
      <point x="720" y="399" type="curve"/>
      <point x="720" y="407"/>
      <point x="720" y="412"/>
      <point x="720" y="420" type="curve"/>
      <point x="578" y="420"/>
      <point x="475" y="420"/>
      <point x="332" y="420" type="curve"/>
      <point x="220" y="420"/>
      <point x="132" y="374"/>
      <point x="132" y="272" type="curve"/>
      <point x="132" y="172"/>
      <point x="208" y="119"/>
      <point x="312" y="119" type="curve"/>
      <point x="421" y="119"/>
      <point x="481" y="200"/>
      <point x="481" y="313" type="curve"/>
      <point x="481" y="399"/>
      <point x="481" y="461"/>
      <point x="481" y="547" type="curve"/>
      <point x="481" y="652"/>
      <point x="425" y="727"/>
      <point x="324" y="727" type="curve"/>
      <point x="231" y="727"/>
      <point x="178" y="664"/>
      <point x="166" y="568" type="curve"/>
    </contour>
  </outline>
</glyph>
<glyph name="dvB" format="1">
  <advance width="492"/>
  <outline>
    <contour>
      <point x="623" y="340" type="curve"/>
      <point x="623" y="205"/>
      <point x="517" y="137"/>
      <point x="377" y="137" type="curve"/>
      <point x="231" y="137"/>
      <point x="116" y="204"/>
      <point x="116" y="341" type="curve"/>
      <point x="116" y="483"/>
      <point x="228" y="546"/>
      <point x="369" y="546" type="curve"/>
      <point x="509" y="546"/>
      <point x="623" y="484"/>
      <point x="623" y="340" type="curve"/>
      <point x="645" y="340"/>
      <point x="625" y="340"/>
      <point x="646" y="340" type="curve"/>
      <point x="646" y="496"/>
      <point x="523" y="567"/>
      <point x="370" y="567" type="curve"/>
      <point x="215" y="567"/>
      <point x="93" y="496"/>
      <point x="93" y="341" type="curve"/>
      <point x="93" y="191"/>
      <point x="215" y="115"/>
      <point x="374" y="115" type="curve"/>
      <point x="529" y="115"/>
      <point x="646" y="191"/>
      <point x="646" y="340" type="curve"/>
      <point x="625" y="340"/>
      <point x="645" y="340"/>
    </contour>
    <component base="dvDiagonal" xOffset="1" yOffset="1"/>
    <component base="dvTopbar" xScale="0.975845940284"/>
  </outline>
</glyph>
<glyph name="dvC_CH_VA" format="1">
  <advance width="1482"/>
  <outline>
    <contour>
      <point x="1205" y="-392" type="move" name="blwm.virama"/>
    </contour>
    <contour>
      <point x="1234" y="721" type="move" name="abvm.e"/>
    </contour>
    <contour>
      <point x="1200" y="-388" type="move" name="blwm.u"/>
    </contour>
    <component base="dvStroke_down" yScale="1.56117666506" xOffset="635" yOffset="-396"/>
    <component base="dvC_CHA"/>
    <component base="dvVA_open" xOffset="533" yOffset="-475"/>
  </outline>
</glyph>
<glyph name="dvConnector_short" format="1">
  <advance width="500"/>
  <outline>
    <contour>
      <point x="798" y="417" type="line"/>
      <point x="774" y="373"/>
      <point x="738" y="340"/>
      <point x="683" y="339" type="curve" smooth="yes"/>
      <point x="637" y="338"/>
      <point x="603" y="354"/>
      <point x="563" y="374" type="curve"/>
      <point x="555" y="355" type="line"/>
      <point x="598" y="332"/>
      <point x="635" y="317"/>
      <point x="684" y="318" type="curve" smooth="yes"/>
      <point x="747" y="321"/>
      <point x="792" y="354"/>
      <point x="816" y="406" type="curve"/>
    </contour>
  </outline>
</glyph>
<glyph name="dvDA_base" format="1">
  <advance width="500"/>
  <outline>
    <contour>
      <point x="508" y="534" type="curve"/>
      <point x="508" y="593"/>
      <point x="508" y="651"/>
      <point x="508" y="710" type="curve"/>
      <point x="485" y="710"/>
      <point x="508" y="710"/>
      <point x="485" y="710" type="curve"/>
      <point x="485" y="658"/>
      <point x="485" y="606"/>
      <point x="485" y="554" type="curve"/>
      <point x="508" y="534"/>
      <point x="485" y="554"/>
    </contour>
    <contour>
      <point x="541" y="294" type="line"/>
      <point x="541" y="192"/>
      <point x="449" y="139"/>
      <point x="340" y="139" type="curve"/>
      <point x="211" y="139"/>
      <point x="115" y="206"/>
      <point x="115" y="330" type="curve"/>
      <point x="115" y="481"/>
      <point x="259" y="534"/>
      <point x="428" y="534" type="curve"/>
      <point x="458" y="534"/>
      <point x="479" y="534"/>
      <point x="508" y="534" type="curve"/>
      <point x="500" y="541"/>
      <point x="493" y="547"/>
      <point x="485" y="554" type="curve"/>
      <point x="465" y="554"/>
      <point x="449" y="554"/>
      <point x="428" y="554" type="curve"/>
      <point x="245" y="554"/>
      <point x="92" y="492"/>
      <point x="92" y="328" type="curve"/>
      <point x="92" y="192"/>
      <point x="197" y="118"/>
      <point x="338" y="118" type="curve"/>
      <point x="465" y="118"/>
      <point x="564" y="176"/>
      <point x="564" y="290" type="curve"/>
    </contour>
  </outline>
</glyph>
<glyph name="dvDD_DDHA" format="1">
  <advance width="660"/>
  <outline>
    <contour>
      <point x="442" y="-412" type="move" name="blwm.virama"/>
    </contour>
    <contour>
      <point x="480" y="720" type="move" name="abvm.e"/>
    </contour>
    <contour>
      <point x="489" y="-482" type="move" name="blwm.u"/>
    </contour>
    <component base="dvTopbar" xScale="1.03426210919" xOffset="-4"/>
    <component base="dvDD_short" xOffset="-17"/>
    <component base="dvDDHA_open" xOffset="-18" yOffset="-449"/>
    <component base="dvStem_short" yScale="0.721488891607" xOffset="160" yOffset="202"/>
  </outline>
</glyph>
<glyph name="dvDD_VA" format="1">
  <advance width="693"/>
  <outline>
    <contour>
      <point x="551" y="-303" type="move" name="blwm.virama"/>
    </contour>
    <contour>
      <point x="496" y="720" type="move" name="abvm.e"/>
    </contour>
    <contour>
      <point x="551" y="-309" type="move" name="blwm.u"/>
    </contour>
    <component base="dvTopbar" xScale="1.08325898113" xOffset="-3"/>
    <component base="dvDD_short" xOffset="5"/>
    <component base="dvStroke_down" yScale="1.68423216522" xOffset="-16" yOffset="-324"/>
    <component base="dvVA_open" xOffset="-120" yOffset="-381"/>
    <component base="dvStem_short" yScale="0.684589830884" xOffset="181" yOffset="222"/>
  </outline>
</glyph>
<glyph name="dvDD_low" format="1">
  <advance width="500"/>
  <outline>
    <contour>
      <point x="238" y="-92" type="curve"/>
      <point x="294" y="-73"/>
      <point x="341" y="-65"/>
      <point x="400" y="-65" type="curve"/>
      <point x="489" y="-65"/>
      <point x="561" y="-104"/>
      <point x="561" y="-184" type="curve"/>
      <point x="561" y="-268"/>
      <point x="472" y="-300"/>
      <point x="371" y="-300" type="curve"/>
      <point x="282" y="-300"/>
      <point x="215" y="-267"/>
      <point x="150" y="-206" type="curve"/>
      <point x="144" y="-210"/>
      <point x="138" y="-215"/>
      <point x="132" y="-219" type="curve"/>
      <point x="202" y="-290"/>
      <point x="274" y="-322"/>
      <point x="371" y="-322" type="curve"/>
      <point x="485" y="-322"/>
      <point x="584" y="-286"/>
      <point x="584" y="-184" type="curve"/>
      <point x="582" y="-92"/>
      <point x="503" y="-44"/>
      <point x="403" y="-44" type="curve"/>
      <point x="344" y="-43"/>
      <point x="297" y="-48"/>
      <point x="241" y="-66" type="curve"/>
      <point x="240" y="-75"/>
      <point x="239" y="-83"/>
    </contour>
    <contour>
      <point x="355" y="147" type="line"/>
      <point x="244" y="147"/>
      <point x="142" y="125"/>
      <point x="142" y="28" type="curve"/>
      <point x="142" y="-31"/>
      <point x="184" y="-65"/>
      <point x="238" y="-92" type="curve"/>
      <point x="239" y="-83"/>
      <point x="240" y="-75"/>
      <point x="241" y="-66" type="curve"/>
      <point x="205" y="-50"/>
      <point x="165" y="-18"/>
      <point x="165" y="28" type="curve"/>
      <point x="165" y="112"/>
      <point x="257" y="127"/>
      <point x="355" y="127" type="curve"/>
    </contour>
  </outline>
</glyph>
<glyph name="dvDD_short" format="1">
  <advance width="500"/>
  <outline>
    <contour>
      <point x="233" y="333" type="curve"/>
      <point x="288" y="340"/>
      <point x="336" y="341"/>
      <point x="399" y="341" type="curve"/>
      <point x="490" y="341"/>
      <point x="565" y="313"/>
      <point x="565" y="249" type="curve"/>
      <point x="565" y="181"/>
      <point x="476" y="161"/>
      <point x="376" y="161" type="curve"/>
      <point x="289" y="161"/>
      <point x="222" y="186"/>
      <point x="156" y="237" type="curve"/>
      <point x="151" y="231"/>
      <point x="146" y="227"/>
      <point x="141" y="221" type="curve"/>
      <point x="211" y="163"/>
      <point x="281" y="139"/>
      <point x="375" y="139" type="curve"/>
      <point x="486" y="139"/>
      <point x="583" y="164"/>
      <point x="583" y="249" type="curve"/>
      <point x="581" y="325"/>
      <point x="501" y="362"/>
      <point x="402" y="362" type="curve"/>
      <point x="340" y="363"/>
      <point x="293" y="365"/>
      <point x="237" y="358" type="curve"/>
      <point x="237" y="350"/>
      <point x="234" y="341"/>
    </contour>
    <contour>
      <point x="497" y="580" type="line"/>
      <point x="356" y="580" type="line"/>
      <point x="245" y="580"/>
      <point x="143" y="558"/>
      <point x="143" y="461" type="curve"/>
      <point x="143" y="402"/>
      <point x="186" y="368"/>
      <point x="240" y="341" type="curve"/>
      <point x="241" y="350"/>
      <point x="242" y="358"/>
      <point x="243" y="367" type="curve"/>
      <point x="206" y="383"/>
      <point x="166" y="415"/>
      <point x="166" y="461" type="curve"/>
      <point x="166" y="545"/>
      <point x="258" y="560"/>
      <point x="356" y="560" type="curve"/>
      <point x="497" y="560" type="line"/>
    </contour>
  </outline>
</glyph>
<glyph name="dvD_GHA" format="1">
  <advance width="1015"/>
  <outline>
    <contour>
      <point x="881" y="-3" type="move" name="blwm.virama"/>
    </contour>
    <contour>
      <point x="822" y="719" type="move" name="abvm.e"/>
    </contour>
    <contour>
      <point x="882" y="4" type="move" name="blwm.u"/>
    </contour>
    <component base="dvTopbar" xScale="0.869750168722" xOffset="-6"/>
    <component base="dvDA" xOffset="317"/>
    <component base="dvDH_close" xOffset="-81" yOffset="-141"/>
  </outline>
</glyph>
<glyph name="dvD_G_RA" format="1">
  <advance width="695"/>
  <outline>
    <contour>
      <point x="566" y="-175" type="move" name="blwm.virama"/>
    </contour>
    <contour>
      <point x="507" y="717" type="move" name="abvm.e"/>
    </contour>
    <contour>
      <point x="569" y="-242" type="move" name="blwm.u"/>
    </contour>
    <component base="dvGA_low" xOffset="-1" yOffset="-23"/>
    <component base="dvDA_short" xOffset="2" yOffset="34"/>
    <component base="dvStroke_down" yScale="1.84948826413" xOffset="-3" yOffset="-188"/>
    <component base="dvTopbar" xScale="1.12056598945" xOffset="4"/>
    <component base="dvRaker" xOffset="183" yOffset="-149"/>
  </outline>
</glyph>
<glyph name="dvD_RA" format="1">
  <advance width="681"/>
  <outline>
    <contour>
      <point x="564" y="-32" type="move" name="blwm.virama"/>
    </contour>
    <contour>
      <point x="506" y="719" type="move" name="abvm.e"/>
    </contour>
    <contour>
      <point x="564" y="-113" type="move" name="blwm.u"/>
    </contour>
    <component base="dvDA"/>
    <component base="dvRaker" xOffset="176" yOffset="-60"/>
  </outline>
</glyph>
<glyph name="dvD_VA" format="1">
  <advance width="692"/>
  <outline>
    <contour>
      <point x="543" y="-212" type="move" name="blwm.virama"/>
    </contour>
    <contour>
      <point x="490" y="721" type="move" name="abvm.e"/>
    </contour>
    <contour>
      <point x="543" y="-189" type="move" name="blwm.u"/>
    </contour>
    <component base="dvDA_short" xOffset="-18" yOffset="36"/>
    <component base="dvStroke_down" yScale="1.94729391796" xOffset="-23" yOffset="-215"/>
    <component base="dvVA_open" xOffset="-126" yOffset="-318"/>
    <component base="dvTopbar" xScale="1.08346251714" xOffset="-3"/>
  </outline>
</glyph>
